<ttFont>
    <TTGlyph name=".notdef" xMin="68" yMin="0" xMax="612" yMax="1365">
      <contour>
        <pt x="68" y="0" on="1"/>
        <pt x="68" y="1365" on="1"/>
        <pt x="612" y="1365" on="1"/>
        <pt x="612" y="0" on="1"/>
      </contour>
      <contour>
        <pt x="136" y="68" on="1"/>
        <pt x="544" y="68" on="1"/>
        <pt x="544" y="1297" on="1"/>
        <pt x="136" y="1297" on="1"/>
      </contour>
    </TTGlyph>
    <TTGlyph name="A" xMin="25" yMin="0" xMax="1108" yMax="1536">
      <contour>
        <pt x="359" y="329" on="1"/>
        <pt x="292" y="0" on="1"/>
        <pt x="25" y="0" on="1"/>
        <pt x="349" y="1518" on="1"/>
        <pt x="776" y="1536" on="1"/>
        <pt x="1108" y="12" on="1"/>
        <pt x="781" y="0" on="1"/>
        <pt x="724" y="329" on="1"/>
      </contour>
      <contour>
        <pt x="670" y="575" on="1"/>
        <pt x="529" y="1310" on="1"/>
        <pt x="413" y="575" on="1"/>
      </contour>
    </TTGlyph>
    <TTGlyph name="AE" xMin="-7" yMin="0" xMax="1530" yMax="1536">
      <contour>
        <pt x="769" y="0" on="1"/>
        <pt x="785" y="329" on="1"/>
        <pt x="450" y="329" on="1"/>
        <pt x="320" y="0" on="1"/>
        <pt x="-7" y="0" on="1"/>
        <pt x="654" y="1518" on="1"/>
        <pt x="858" y="1536" on="1"/>
        <pt x="1514" y="1536" on="1"/>
        <pt x="1490" y="1296" on="1"/>
        <pt x="1104" y="1296" on="1"/>
        <pt x="1104" y="930" on="1"/>
        <pt x="1357" y="930" on="1"/>
        <pt x="1356" y="672" on="1"/>
        <pt x="1104" y="672" on="1"/>
        <pt x="1104" y="240" on="1"/>
        <pt x="1530" y="240" on="1"/>
        <pt x="1506" y="0" on="1"/>
      </contour>
      <contour>
        <pt x="786" y="575" on="1"/>
        <pt x="808" y="1310" on="1"/>
        <pt x="549" y="575" on="1"/>
      </contour>
    </TTGlyph>
    <TTGlyph name="AEacute" xMin="-7" yMin="0" xMax="1530" yMax="2177">
      <component glyphName="AE" x="0" y="0" flags="0x204"/>
      <component glyphName="acute" x="776" y="384" flags="0x4"/>
    </TTGlyph>
    <TTGlyph name="AEmacron" xMin="-7" yMin="0" xMax="1530" yMax="1827">
      <component glyphName="AE" x="0" y="0" flags="0x204"/>
      <component glyphName="macron" x="642" y="387" flags="0x4"/>
    </TTGlyph>
    <TTGlyph name="Aacute" xMin="25" yMin="0" xMax="1108" yMax="2177">
      <component glyphName="A" x="0" y="0" flags="0x204"/>
      <component glyphName="acute" x="240" y="384" flags="0x4"/>
    </TTGlyph>
    <TTGlyph name="Abreve" xMin="25" yMin="0" xMax="1108" yMax="2112">
      <component glyphName="A" x="0" y="0" flags="0x204"/>
      <component glyphName="breve" x="58" y="384" flags="0x4"/>
    </TTGlyph>
    <TTGlyph name="Acircumflex" xMin="25" yMin="0" xMax="1108" yMax="2112">
      <component glyphName="A" x="0" y="0" flags="0x204"/>
      <component glyphName="circumflex" x="199" y="384" flags="0x4"/>
    </TTGlyph>
    <TTGlyph name="Adieresis" xMin="25" yMin="0" xMax="1108" yMax="1920">
      <component glyphName="A" x="0" y="0" flags="0x204"/>
      <component glyphName="dieresis" x="21" y="384" flags="0x4"/>
    </TTGlyph>
    <TTGlyph name="Agrave" xMin="25" yMin="0" xMax="1108" yMax="2173">
      <component glyphName="A" x="0" y="0" flags="0x204"/>
      <component glyphName="grave" x="245" y="384" flags="0x4"/>
    </TTGlyph>
    <TTGlyph name="Amacron" xMin="25" yMin="0" xMax="1108" yMax="1824">
      <component glyphName="A" x="0" y="0" flags="0x204"/>
      <component glyphName="macron" x="117" y="384" flags="0x4"/>
    </TTGlyph>
    <TTGlyph name="Aogonek" xMin="25" yMin="-385" xMax="1208" yMax="1536">
      <component glyphName="A" x="0" y="0" flags="0x4"/>
      <component glyphName="ogonek" x="691" y="0" flags="0x4"/>
    </TTGlyph>
    <TTGlyph name="Aring" xMin="25" yMin="0" xMax="1108" yMax="2176">
      <component glyphName="A" x="0" y="0" flags="0x204"/>
      <component glyphName="ring" x="172" y="384" flags="0x4"/>
    </TTGlyph>
    <TTGlyph name="Atilde" xMin="25" yMin="0" xMax="1108" yMax="1921">
      <component glyphName="A" x="0" y="0" flags="0x204"/>
      <component glyphName="tilde" x="130" y="384" flags="0x4"/>
    </TTGlyph>
    <TTGlyph name="B" xMin="142" yMin="0" xMax="1065" yMax="1536">
      <contour>
        <pt x="142" y="1536" on="1"/>
        <pt x="486" y="1536" on="1"/>
        <pt x="634" y="1536" on="0"/>
        <pt x="837" y="1474" on="0"/>
        <pt x="963" y="1366" on="0"/>
        <pt x="1018" y="1222" on="0"/>
        <pt x="1018" y="1140" on="1"/>
        <pt x="1018" y="1084" on="0"/>
        <pt x="995" y="984" on="0"/>
        <pt x="952" y="901" on="0"/>
        <pt x="890" y="837" on="0"/>
        <pt x="851" y="818" on="1"/>
        <pt x="892" y="797" on="0"/>
        <pt x="969" y="739" on="0"/>
        <pt x="1029" y="650" on="0"/>
        <pt x="1065" y="522" on="0"/>
        <pt x="1065" y="431" on="1"/>
        <pt x="1065" y="341" on="0"/>
        <pt x="1010" y="207" on="0"/>
        <pt x="913" y="111" on="0"/>
        <pt x="782" y="50" on="0"/>
        <pt x="632" y="14" on="0"/>
        <pt x="469" y="0" on="0"/>
        <pt x="388" y="0" on="1"/>
        <pt x="142" y="0" on="1"/>
      </contour>
      <contour>
        <pt x="497" y="240" on="1"/>
        <pt x="579" y="240" on="0"/>
        <pt x="687" y="287" on="0"/>
        <pt x="751" y="357" on="0"/>
        <pt x="777" y="437" on="0"/>
        <pt x="777" y="471" on="1"/>
        <pt x="777" y="545" on="0"/>
        <pt x="733" y="633" on="0"/>
        <pt x="659" y="679" on="0"/>
        <pt x="561" y="693" on="0"/>
        <pt x="508" y="693" on="1"/>
        <pt x="442" y="693" on="1"/>
        <pt x="442" y="240" on="1"/>
      </contour>
      <contour>
        <pt x="504" y="911" on="1"/>
        <pt x="556" y="911" on="0"/>
        <pt x="643" y="924" on="0"/>
        <pt x="705" y="966" on="0"/>
        <pt x="739" y="1045" on="0"/>
        <pt x="739" y="1111" on="1"/>
        <pt x="739" y="1168" on="0"/>
        <pt x="699" y="1241" on="0"/>
        <pt x="631" y="1281" on="0"/>
        <pt x="541" y="1296" on="0"/>
        <pt x="491" y="1296" on="1"/>
        <pt x="432" y="1296" on="1"/>
        <pt x="432" y="911" on="1"/>
      </contour>
    </TTGlyph>
    <TTGlyph name="C" xMin="81" yMin="-32" xMax="997" yMax="1568">
      <contour>
        <pt x="997" y="523" on="1"/>
        <pt x="997" y="416" on="0"/>
        <pt x="944" y="215" on="0"/>
        <pt x="836" y="61" on="0"/>
        <pt x="672" y="-32" on="0"/>
        <pt x="561" y="-32" on="1"/>
        <pt x="465" y="-32" on="0"/>
        <pt x="318" y="37" on="0"/>
        <pt x="212" y="158" on="0"/>
        <pt x="141" y="319" on="0"/>
        <pt x="99" y="504" on="0"/>
        <pt x="81" y="703" on="0"/>
        <pt x="81" y="800" on="1"/>
        <pt x="81" y="886" on="0"/>
        <pt x="103" y="1067" on="0"/>
        <pt x="151" y="1238" on="0"/>
        <pt x="228" y="1389" on="0"/>
        <pt x="336" y="1502" on="0"/>
        <pt x="478" y="1568" on="0"/>
        <pt x="568" y="1568" on="1"/>
        <pt x="669" y="1568" on="0"/>
        <pt x="828" y="1471" on="0"/>
        <pt x="937" y="1314" on="0"/>
        <pt x="995" y="1116" on="0"/>
        <pt x="995" y="1014" on="1"/>
        <pt x="705" y="999" on="1"/>
        <pt x="705" y="1007" on="0"/>
        <pt x="703" y="1062" on="0"/>
        <pt x="693" y="1135" on="0"/>
        <pt x="674" y="1216" on="0"/>
        <pt x="640" y="1284" on="0"/>
        <pt x="588" y="1328" on="0"/>
        <pt x="551" y="1328" on="1"/>
        <pt x="515" y="1328" on="0"/>
        <pt x="462" y="1281" on="0"/>
        <pt x="424" y="1202" on="0"/>
        <pt x="400" y="1096" on="0"/>
        <pt x="386" y="979" on="0"/>
        <pt x="381" y="857" on="0"/>
        <pt x="381" y="800" on="1"/>
        <pt x="381" y="728" on="0"/>
        <pt x="386" y="586" on="0"/>
        <pt x="402" y="458" on="0"/>
        <pt x="429" y="349" on="0"/>
        <pt x="474" y="270" on="0"/>
        <pt x="537" y="225" on="0"/>
        <pt x="580" y="225" on="1"/>
        <pt x="627" y="225" on="0"/>
        <pt x="686" y="288" on="0"/>
        <pt x="722" y="384" on="0"/>
        <pt x="738" y="497" on="0"/>
        <pt x="742" y="547" on="1"/>
      </contour>
    </TTGlyph>
    <TTGlyph name="Cacute" xMin="81" yMin="-32" xMax="997" yMax="2177">
      <component glyphName="C" x="0" y="0" flags="0x204"/>
      <component glyphName="acute" x="291" y="384" flags="0x4"/>
    </TTGlyph>
    <TTGlyph name="Ccaron" xMin="81" yMin="-32" xMax="997" yMax="2112">
      <component glyphName="C" x="0" y="0" flags="0x204"/>
      <component glyphName="circumflex" x="189" y="3360" scalex="1.0" scaley="-0.999938964844" flags="0x4"/>
    </TTGlyph>
    <TTGlyph name="Ccedilla" xMin="83" yMin="-556" xMax="999" yMax="1568">
      <component glyphName="C" x="2" y="0" flags="0x4"/>
      <component glyphName="cedilla" x="330" y="0" flags="0x4"/>
    </TTGlyph>
    <TTGlyph name="Ccircumflex" xMin="81" yMin="-32" xMax="997" yMax="2112">
      <component glyphName="C" x="0" y="0" flags="0x204"/>
      <component glyphName="circumflex" x="194" y="384" flags="0x4"/>
    </TTGlyph>
    <TTGlyph name="Cdotaccent" xMin="81" yMin="-32" xMax="997" yMax="1985">
      <component glyphName="C" x="0" y="0" flags="0x204"/>
      <component glyphName="dotaccent" x="224" y="447" flags="0x4"/>
    </TTGlyph>
    <TTGlyph name="D" xMin="142" yMin="0" xMax="1059" yMax="1536">
      <contour>
        <pt x="142" y="1536" on="1"/>
        <pt x="456" y="1536" on="1"/>
        <pt x="759" y="1536" on="0"/>
        <pt x="1059" y="1153" on="0"/>
        <pt x="1059" y="762" on="1"/>
        <pt x="1059" y="665" on="0"/>
        <pt x="1033" y="476" on="0"/>
        <pt x="978" y="307" on="0"/>
        <pt x="892" y="163" on="0"/>
        <pt x="770" y="59" on="0"/>
        <pt x="610" y="0" on="0"/>
        <pt x="509" y="0" on="1"/>
        <pt x="142" y="0" on="1"/>
      </contour>
      <contour>
        <pt x="441" y="1296" on="1"/>
        <pt x="441" y="240" on="1"/>
        <pt x="484" y="240" on="1"/>
        <pt x="541" y="240" on="0"/>
        <pt x="627" y="279" on="0"/>
        <pt x="688" y="347" on="0"/>
        <pt x="727" y="438" on="0"/>
        <pt x="750" y="541" on="0"/>
        <pt x="759" y="651" on="0"/>
        <pt x="759" y="705" on="1"/>
        <pt x="759" y="817" on="1"/>
        <pt x="759" y="880" on="0"/>
        <pt x="747" y="1011" on="0"/>
        <pt x="715" y="1137" on="0"/>
        <pt x="653" y="1236" on="0"/>
        <pt x="552" y="1296" on="0"/>
        <pt x="476" y="1296" on="1"/>
      </contour>
    </TTGlyph>
    <TTGlyph name="Dcaron" xMin="142" yMin="0" xMax="1059" yMax="2110">
      <component glyphName="D" x="0" y="0" flags="0x204"/>
      <component glyphName="circumflex" x="116" y="382" flags="0x4"/>
    </TTGlyph>
    <TTGlyph name="Dcroat" xMin="5" yMin="0" xMax="1065" yMax="1536">
      <component glyphName="Eth" x="0" y="0" flags="0x200"/>
    </TTGlyph>
    <TTGlyph name="Delta" xMin="44" yMin="0" xMax="1004" yMax="1322">
      <contour>
        <pt x="385" y="1322" on="1"/>
        <pt x="650" y="1322" on="1"/>
        <pt x="1004" y="0" on="1"/>
        <pt x="44" y="0" on="1"/>
      </contour>
      <contour>
        <pt x="412" y="192" on="1"/>
        <pt x="719" y="192" on="1"/>
        <pt x="553" y="907" on="1"/>
      </contour>
    </TTGlyph>
    <TTGlyph name="E" xMin="142" yMin="0" xMax="938" yMax="1536">
      <contour>
        <pt x="142" y="1536" on="1"/>
        <pt x="922" y="1536" on="1"/>
        <pt x="898" y="1296" on="1"/>
        <pt x="442" y="1296" on="1"/>
        <pt x="442" y="930" on="1"/>
        <pt x="765" y="930" on="1"/>
        <pt x="764" y="672" on="1"/>
        <pt x="442" y="672" on="1"/>
        <pt x="442" y="240" on="1"/>
        <pt x="938" y="240" on="1"/>
        <pt x="914" y="0" on="1"/>
        <pt x="142" y="0" on="1"/>
      </contour>
    </TTGlyph>
    <TTGlyph name="Eacute" xMin="142" yMin="0" xMax="985" yMax="2177">
      <component glyphName="E" x="0" y="0" flags="0x204"/>
      <component glyphName="acute" x="296" y="384" flags="0x4"/>
    </TTGlyph>
    <TTGlyph name="Ebreve" xMin="80" yMin="0" xMax="944" yMax="2112">
      <component glyphName="E" x="0" y="0" flags="0x204"/>
      <component glyphName="breve" x="3" y="384" flags="0x4"/>
    </TTGlyph>
    <TTGlyph name="Ecaron" xMin="142" yMin="0" xMax="938" yMax="2103">
      <component glyphName="E" x="0" y="0" flags="0x204"/>
      <component glyphName="circumflex" x="124" y="375" flags="0x4"/>
    </TTGlyph>
    <TTGlyph name="Ecircumflex" xMin="142" yMin="0" xMax="938" yMax="2112">
      <component glyphName="E" x="0" y="0" flags="0x204"/>
      <component glyphName="circumflex" x="161" y="384" flags="0x4"/>
    </TTGlyph>
    <TTGlyph name="Edieresis" xMin="142" yMin="0" xMax="938" yMax="1920">
      <component glyphName="E" x="0" y="0" flags="0x204"/>
      <component glyphName="dieresis" x="0" y="384" flags="0x4"/>
    </TTGlyph>
    <TTGlyph name="Edotaccent" xMin="142" yMin="0" xMax="938" yMax="1922">
      <component glyphName="E" x="0" y="0" flags="0x204"/>
      <component glyphName="dotaccent" x="203" y="384" flags="0x4"/>
    </TTGlyph>
    <TTGlyph name="Egrave" xMin="2" yMin="0" xMax="938" yMax="2173">
      <component glyphName="E" x="0" y="0" flags="0x204"/>
      <component glyphName="grave" x="51" y="384" flags="0x4"/>
    </TTGlyph>
    <TTGlyph name="Emacron" xMin="142" yMin="0" xMax="938" yMax="1824">
      <component glyphName="E" x="0" y="0" flags="0x204"/>
      <component glyphName="macron" x="51" y="384" flags="0x4"/>
    </TTGlyph>
    <TTGlyph name="Eng" xMin="141" yMin="-317" xMax="1104" yMax="1536">
      <contour>
        <pt x="628" y="-84" on="1"/>
        <pt x="652" y="-92" on="0"/>
        <pt x="691" y="-98" on="0"/>
        <pt x="708" y="-98" on="1"/>
        <pt x="761" y="-98" on="0"/>
        <pt x="819" y="-60" on="0"/>
        <pt x="846" y="1" on="0"/>
        <pt x="850" y="79" on="0"/>
        <pt x="850" y="120" on="1"/>
        <pt x="850" y="143" on="1"/>
        <pt x="409" y="998" on="1"/>
        <pt x="409" y="12" on="1"/>
        <pt x="141" y="0" on="1"/>
        <pt x="141" y="1524" on="1"/>
        <pt x="454" y="1536" on="1"/>
        <pt x="850" y="722" on="1"/>
        <pt x="850" y="1512" on="1"/>
        <pt x="1104" y="1536" on="1"/>
        <pt x="1104" y="95" on="1"/>
        <pt x="1104" y="3" on="0"/>
        <pt x="1075" y="-148" on="0"/>
        <pt x="1009" y="-257" on="0"/>
        <pt x="900" y="-317" on="0"/>
        <pt x="820" y="-317" on="1"/>
        <pt x="739" y="-317" on="0"/>
        <pt x="628" y="-287" on="1"/>
      </contour>
    </TTGlyph>
    <TTGlyph name="Eogonek" xMin="142" yMin="-387" xMax="1097" yMax="1536">
      <component glyphName="E" x="0" y="0" flags="0x4"/>
      <component glyphName="ogonek" x="580" y="-2" flags="0x4"/>
    </TTGlyph>
    <TTGlyph name="Eth" xMin="5" yMin="0" xMax="1065" yMax="1536">
      <contour>
        <pt x="5" y="864" on="1"/>
        <pt x="148" y="864" on="1"/>
        <pt x="148" y="1536" on="1"/>
        <pt x="462" y="1536" on="1"/>
        <pt x="765" y="1536" on="0"/>
        <pt x="1065" y="1153" on="0"/>
        <pt x="1065" y="762" on="1"/>
        <pt x="1065" y="665" on="0"/>
        <pt x="1039" y="476" on="0"/>
        <pt x="984" y="307" on="0"/>
        <pt x="898" y="163" on="0"/>
        <pt x="776" y="59" on="0"/>
        <pt x="616" y="0" on="0"/>
        <pt x="515" y="0" on="1"/>
        <pt x="148" y="0" on="1"/>
        <pt x="148" y="672" on="1"/>
        <pt x="5" y="672" on="1"/>
      </contour>
      <contour>
        <pt x="447" y="1296" on="1"/>
        <pt x="447" y="864" on="1"/>
        <pt x="581" y="864" on="1"/>
        <pt x="581" y="672" on="1"/>
        <pt x="447" y="672" on="1"/>
        <pt x="447" y="240" on="1"/>
        <pt x="490" y="240" on="1"/>
        <pt x="547" y="240" on="0"/>
        <pt x="633" y="279" on="0"/>
        <pt x="694" y="347" on="0"/>
        <pt x="733" y="438" on="0"/>
        <pt x="756" y="541" on="0"/>
        <pt x="765" y="651" on="0"/>
        <pt x="765" y="705" on="1"/>
        <pt x="765" y="817" on="1"/>
        <pt x="765" y="880" on="0"/>
        <pt x="753" y="1011" on="0"/>
        <pt x="721" y="1137" on="0"/>
        <pt x="659" y="1236" on="0"/>
        <pt x="558" y="1296" on="0"/>
        <pt x="482" y="1296" on="1"/>
      </contour>
    </TTGlyph>
    <TTGlyph name="Euro" xMin="51" yMin="-32" xMax="1072" yMax="1568">
      <contour>
        <pt x="51" y="960" on="1"/>
        <pt x="165" y="960" on="1"/>
        <pt x="178" y="1074" on="0"/>
        <pt x="244" y="1292" on="0"/>
        <pt x="360" y="1463" on="0"/>
        <pt x="528" y="1568" on="0"/>
        <pt x="643" y="1568" on="1"/>
        <pt x="710" y="1568" on="0"/>
        <pt x="826" y="1528" on="0"/>
        <pt x="921" y="1459" on="0"/>
        <pt x="994" y="1364" on="0"/>
        <pt x="1044" y="1254" on="0"/>
        <pt x="1070" y="1134" on="0"/>
        <pt x="1070" y="1074" on="1"/>
        <pt x="780" y="1059" on="1"/>
        <pt x="780" y="1065" on="0"/>
        <pt x="778" y="1110" on="0"/>
        <pt x="768" y="1170" on="0"/>
        <pt x="749" y="1236" on="0"/>
        <pt x="715" y="1292" on="0"/>
        <pt x="663" y="1328" on="0"/>
        <pt x="626" y="1328" on="1"/>
        <pt x="584" y="1328" on="0"/>
        <pt x="525" y="1266" on="0"/>
        <pt x="487" y="1163" on="0"/>
        <pt x="465" y="1030" on="0"/>
        <pt x="461" y="960" on="1"/>
        <pt x="915" y="960" on="1"/>
        <pt x="915" y="816" on="1"/>
        <pt x="456" y="816" on="1"/>
        <pt x="456" y="760" on="1"/>
        <pt x="456" y="740" on="0"/>
        <pt x="457" y="720" on="1"/>
        <pt x="915" y="720" on="1"/>
        <pt x="915" y="576" on="1"/>
        <pt x="464" y="576" on="1"/>
        <pt x="470" y="502" on="0"/>
        <pt x="495" y="374" on="0"/>
        <pt x="540" y="279" on="0"/>
        <pt x="607" y="225" on="0"/>
        <pt x="655" y="225" on="1"/>
        <pt x="702" y="225" on="0"/>
        <pt x="761" y="272" on="0"/>
        <pt x="797" y="344" on="0"/>
        <pt x="813" y="429" on="0"/>
        <pt x="817" y="467" on="1"/>
        <pt x="1072" y="443" on="1"/>
        <pt x="1072" y="351" on="0"/>
        <pt x="1019" y="179" on="0"/>
        <pt x="911" y="47" on="0"/>
        <pt x="747" y="-32" on="0"/>
        <pt x="636" y="-32" on="1"/>
        <pt x="558" y="-32" on="0"/>
        <pt x="432" y="14" on="0"/>
        <pt x="334" y="96" on="0"/>
        <pt x="261" y="210" on="0"/>
        <pt x="209" y="345" on="0"/>
        <pt x="176" y="497" on="0"/>
        <pt x="167" y="576" on="1"/>
        <pt x="51" y="576" on="1"/>
        <pt x="51" y="720" on="1"/>
        <pt x="157" y="720" on="1"/>
        <pt x="156" y="740" on="0"/>
        <pt x="156" y="760" on="1"/>
        <pt x="156" y="816" on="1"/>
        <pt x="51" y="816" on="1"/>
      </contour>
    </TTGlyph>
    <TTGlyph name="F" xMin="141" yMin="-12" xMax="921" yMax="1536">
      <contour>
        <pt x="141" y="1536" on="1"/>
        <pt x="921" y="1536" on="1"/>
        <pt x="897" y="1295" on="1"/>
        <pt x="441" y="1295" on="1"/>
        <pt x="441" y="893" on="1"/>
        <pt x="763" y="893" on="1"/>
        <pt x="763" y="638" on="1"/>
        <pt x="441" y="638" on="1"/>
        <pt x="441" y="12" on="1"/>
        <pt x="141" y="-12" on="1"/>
      </contour>
    </TTGlyph>
    <TTGlyph name="G" xMin="81" yMin="-32" xMax="1031" yMax="1568">
      <contour>
        <pt x="739" y="1015" on="1"/>
        <pt x="735" y="1044" on="0"/>
        <pt x="728" y="1113" on="0"/>
        <pt x="715" y="1184" on="0"/>
        <pt x="695" y="1250" on="0"/>
        <pt x="661" y="1301" on="0"/>
        <pt x="611" y="1332" on="0"/>
        <pt x="576" y="1332" on="1"/>
        <pt x="536" y="1332" on="0"/>
        <pt x="476" y="1279" on="0"/>
        <pt x="432" y="1191" on="0"/>
        <pt x="404" y="1074" on="0"/>
        <pt x="388" y="947" on="0"/>
        <pt x="381" y="816" on="0"/>
        <pt x="381" y="758" on="1"/>
        <pt x="381" y="703" on="0"/>
        <pt x="383" y="579" on="0"/>
        <pt x="394" y="457" on="0"/>
        <pt x="417" y="345" on="0"/>
        <pt x="461" y="260" on="0"/>
        <pt x="529" y="209" on="0"/>
        <pt x="578" y="209" on="1"/>
        <pt x="618" y="209" on="0"/>
        <pt x="679" y="254" on="0"/>
        <pt x="721" y="334" on="0"/>
        <pt x="742" y="444" on="0"/>
        <pt x="742" y="508" on="1"/>
        <pt x="590" y="508" on="1"/>
        <pt x="614" y="768" on="1"/>
        <pt x="1031" y="768" on="1"/>
        <pt x="1031" y="12" on="1"/>
        <pt x="916" y="0" on="1"/>
        <pt x="915" y="4" on="0"/>
        <pt x="908" y="34" on="0"/>
        <pt x="898" y="75" on="0"/>
        <pt x="885" y="125" on="0"/>
        <pt x="879" y="151" on="1"/>
        <pt x="864" y="211" on="0"/>
        <pt x="846" y="285" on="1"/>
        <pt x="839" y="196" on="0"/>
        <pt x="803" y="126" on="1"/>
        <pt x="788" y="96" on="0"/>
        <pt x="741" y="40" on="0"/>
        <pt x="673" y="-5" on="0"/>
        <pt x="581" y="-32" on="0"/>
        <pt x="521" y="-32" on="1"/>
        <pt x="440" y="-32" on="0"/>
        <pt x="311" y="29" on="0"/>
        <pt x="214" y="138" on="0"/>
        <pt x="145" y="289" on="0"/>
        <pt x="101" y="468" on="0"/>
        <pt x="81" y="669" on="0"/>
        <pt x="81" y="774" on="1"/>
        <pt x="81" y="863" on="0"/>
        <pt x="104" y="1049" on="0"/>
        <pt x="153" y="1226" on="0"/>
        <pt x="231" y="1382" on="0"/>
        <pt x="342" y="1500" on="0"/>
        <pt x="488" y="1568" on="0"/>
        <pt x="580" y="1568" on="1"/>
        <pt x="697" y="1568" on="0"/>
        <pt x="865" y="1479" on="0"/>
        <pt x="973" y="1331" on="0"/>
        <pt x="1025" y="1138" on="0"/>
        <pt x="1025" y="1034" on="1"/>
      </contour>
    </TTGlyph>
    <TTGlyph name="Gbreve" xMin="81" yMin="-32" xMax="1031" yMax="2112">
      <component glyphName="G" x="0" y="0" flags="0x204"/>
      <component glyphName="breve" x="55" y="384" flags="0x4"/>
    </TTGlyph>
    <TTGlyph name="Gcircumflex" xMin="81" yMin="-32" xMax="1031" yMax="2112">
      <component glyphName="G" x="0" y="0" flags="0x204"/>
      <component glyphName="circumflex" x="231" y="384" flags="0x4"/>
    </TTGlyph>
    <TTGlyph name="Gcommaaccent" xMin="81" yMin="-665" xMax="1031" yMax="1568">
      <component glyphName="G" x="0" y="0" flags="0x204"/>
      <component glyphName="commaaccent" x="320" y="-761" flags="0x4"/>
    </TTGlyph>
    <TTGlyph name="Gdotaccent" xMin="81" yMin="-32" xMax="1031" yMax="1922">
      <component glyphName="G" x="0" y="0" flags="0x204"/>
      <component glyphName="dotaccent" x="283" y="384" flags="0x4"/>
    </TTGlyph>
    <TTGlyph name="H" xMin="142" yMin="-12" xMax="1030" yMax="1536">
      <contour>
        <pt x="730" y="639" on="1"/>
        <pt x="442" y="639" on="1"/>
        <pt x="442" y="12" on="1"/>
        <pt x="142" y="-12" on="1"/>
        <pt x="142" y="1512" on="1"/>
        <pt x="442" y="1536" on="1"/>
        <pt x="442" y="913" on="1"/>
        <pt x="730" y="913" on="1"/>
        <pt x="730" y="1512" on="1"/>
        <pt x="1030" y="1536" on="1"/>
        <pt x="1030" y="12" on="1"/>
        <pt x="730" y="-12" on="1"/>
      </contour>
    </TTGlyph>
    <TTGlyph name="Hbar" xMin="26" yMin="-12" xMax="1139" yMax="1536">
      <contour>
        <pt x="26" y="1344" on="1"/>
        <pt x="145" y="1344" on="1"/>
        <pt x="145" y="1512" on="1"/>
        <pt x="445" y="1536" on="1"/>
        <pt x="445" y="1344" on="1"/>
        <pt x="733" y="1344" on="1"/>
        <pt x="733" y="1512" on="1"/>
        <pt x="1033" y="1536" on="1"/>
        <pt x="1033" y="1344" on="1"/>
        <pt x="1139" y="1344" on="1"/>
        <pt x="1139" y="1162" on="1"/>
        <pt x="1033" y="1162" on="1"/>
        <pt x="1033" y="12" on="1"/>
        <pt x="733" y="-12" on="1"/>
        <pt x="733" y="639" on="1"/>
        <pt x="445" y="639" on="1"/>
        <pt x="445" y="12" on="1"/>
        <pt x="145" y="-12" on="1"/>
        <pt x="145" y="1162" on="1"/>
        <pt x="26" y="1162" on="1"/>
      </contour>
      <contour>
        <pt x="733" y="913" on="1"/>
        <pt x="733" y="1162" on="1"/>
        <pt x="445" y="1162" on="1"/>
        <pt x="445" y="913" on="1"/>
      </contour>
    </TTGlyph>
    <TTGlyph name="Hcircumflex" xMin="142" yMin="-12" xMax="1030" yMax="2112">
      <component glyphName="H" x="0" y="0" flags="0x204"/>
      <component glyphName="circumflex" x="217" y="384" flags="0x4"/>
    </TTGlyph>
    <TTGlyph name="I" xMin="142" yMin="-12" xMax="442" yMax="1536">
      <contour>
        <pt x="142" y="1512" on="1"/>
        <pt x="442" y="1536" on="1"/>
        <pt x="442" y="12" on="1"/>
        <pt x="142" y="-12" on="1"/>
      </contour>
    </TTGlyph>
    <TTGlyph name="IJ" xMin="142" yMin="-28" xMax="1076" yMax="1536">
      <component glyphName="I" x="0" y="0" flags="0x4"/>
      <component glyphName="J" x="550" y="0" flags="0x4"/>
    </TTGlyph>
    <TTGlyph name="Iacute" xMin="130" yMin="-12" xMax="654" yMax="2177">
      <component glyphName="I" x="0" y="0" flags="0x204"/>
      <component glyphName="acute" x="-35" y="384" flags="0x4"/>
    </TTGlyph>
    <TTGlyph name="Ibreve" xMin="-141" yMin="-12" xMax="723" yMax="2112">
      <component glyphName="I" x="0" y="0" flags="0x4"/>
      <component glyphName="breve" x="-218" y="384" flags="0x4"/>
    </TTGlyph>
    <TTGlyph name="Icircumflex" xMin="-44" yMin="-12" xMax="628" yMax="2112">
      <component glyphName="I" x="0" y="0" flags="0x204"/>
      <component glyphName="circumflex" x="-76" y="384" flags="0x4"/>
    </TTGlyph>
    <TTGlyph name="Idieresis" xMin="-93" yMin="-12" xMax="675" yMax="1920">
      <component glyphName="I" x="0" y="0" flags="0x4"/>
      <component glyphName="dieresis" x="-255" y="384" flags="0x4"/>
    </TTGlyph>
    <TTGlyph name="Idotaccent" xMin="142" yMin="-12" xMax="442" yMax="1922">
      <component glyphName="I" x="0" y="0" flags="0x204"/>
      <component glyphName="dotaccent" x="-14" y="384" flags="0x4"/>
    </TTGlyph>
    <TTGlyph name="Igrave" xMin="-79" yMin="-12" xMax="445" yMax="2173">
      <component glyphName="I" x="0" y="0" flags="0x204"/>
      <component glyphName="grave" x="-30" y="384" flags="0x4"/>
    </TTGlyph>
    <TTGlyph name="Imacron" xMin="4" yMin="-12" xMax="580" yMax="1824">
      <component glyphName="I" x="0" y="0" flags="0x204"/>
      <component glyphName="macron" x="-158" y="384" flags="0x4"/>
    </TTGlyph>
    <TTGlyph name="Iogonek" xMin="142" yMin="-385" xMax="605" yMax="1536">
      <component glyphName="I" x="0" y="0" flags="0x204"/>
      <component glyphName="ogonek" x="88" y="0" flags="0x4"/>
    </TTGlyph>
    <TTGlyph name="Itilde" xMin="-24" yMin="-12" xMax="613" yMax="1921">
      <component glyphName="I" x="0" y="0" flags="0x4"/>
      <component glyphName="tilde" x="-142" y="384" flags="0x4"/>
    </TTGlyph>
    <TTGlyph name="J" xMin="34" yMin="-28" xMax="526" yMax="1536">
      <contour>
        <pt x="34" y="205" on="1"/>
        <pt x="58" y="197" on="0"/>
        <pt x="97" y="191" on="0"/>
        <pt x="114" y="191" on="1"/>
        <pt x="156" y="191" on="0"/>
        <pt x="201" y="229" on="0"/>
        <pt x="222" y="290" on="0"/>
        <pt x="226" y="368" on="0"/>
        <pt x="226" y="409" on="1"/>
        <pt x="226" y="1512" on="1"/>
        <pt x="526" y="1536" on="1"/>
        <pt x="526" y="384" on="1"/>
        <pt x="526" y="292" on="0"/>
        <pt x="497" y="141" on="0"/>
        <pt x="427" y="32" on="0"/>
        <pt x="312" y="-28" on="0"/>
        <pt x="226" y="-28" on="1"/>
        <pt x="145" y="-28" on="0"/>
        <pt x="34" y="2" on="1"/>
      </contour>
    </TTGlyph>
    <TTGlyph name="Jcircumflex" xMin="28" yMin="-28" xMax="700" yMax="2112">
      <component glyphName="J" x="0" y="0" flags="0x204"/>
      <component glyphName="circumflex" x="-4" y="384" flags="0x4"/>
    </TTGlyph>
    <TTGlyph name="K" xMin="142" yMin="-27" xMax="1131" yMax="1536">
      <contour>
        <pt x="590" y="666" on="1"/>
        <pt x="442" y="401" on="1"/>
        <pt x="442" y="0" on="1"/>
        <pt x="142" y="0" on="1"/>
        <pt x="142" y="1512" on="1"/>
        <pt x="442" y="1536" on="1"/>
        <pt x="442" y="864" on="1"/>
        <pt x="806" y="1536" on="1"/>
        <pt x="1126" y="1536" on="1"/>
        <pt x="797" y="902" on="1"/>
        <pt x="1131" y="43" on="1"/>
        <pt x="826" y="-27" on="1"/>
      </contour>
    </TTGlyph>
    <TTGlyph name="Kcommaaccent" xMin="142" yMin="-666" xMax="1131" yMax="1536">
      <component glyphName="K" x="0" y="0" flags="0x4"/>
      <component glyphName="commaaccent" x="378" y="-762" flags="0x4"/>
    </TTGlyph>
    <TTGlyph name="L" xMin="142" yMin="0" xMax="961" yMax="1536">
      <contour>
        <pt x="441" y="1536" on="1"/>
        <pt x="441" y="240" on="1"/>
        <pt x="961" y="240" on="1"/>
        <pt x="913" y="0" on="1"/>
        <pt x="142" y="0" on="1"/>
        <pt x="142" y="1512" on="1"/>
      </contour>
    </TTGlyph>
    <TTGlyph name="Lacute" xMin="142" yMin="0" xMax="961" yMax="2177">
      <component glyphName="L" x="0" y="0" flags="0x204"/>
      <component glyphName="acute" x="0" y="384" flags="0x4"/>
    </TTGlyph>
    <TTGlyph name="Lcaron" xMin="142" yMin="0" xMax="961" yMax="1812">
      <component glyphName="L" x="0" y="0" flags="0x204"/>
      <component glyphName="quoteright" x="486" y="276" flags="0x4"/>
    </TTGlyph>
    <TTGlyph name="Lcommaaccent" xMin="142" yMin="-666" xMax="961" yMax="1536">
      <component glyphName="L" x="0" y="0" flags="0x4"/>
      <component glyphName="commaaccent" x="289" y="-762" flags="0x4"/>
    </TTGlyph>
    <TTGlyph name="Ldot" xMin="142" yMin="0" xMax="961" yMax="1536">
      <component glyphName="L" x="0" y="0" flags="0x4"/>
      <component glyphName="periodcentered" x="557" y="288" flags="0x4"/>
    </TTGlyph>
    <TTGlyph name="Lslash" xMin="-2" yMin="0" xMax="975" yMax="1536">
      <contour>
        <pt x="455" y="1536" on="1"/>
        <pt x="455" y="975" on="1"/>
        <pt x="670" y="1006" on="1"/>
        <pt x="670" y="768" on="1"/>
        <pt x="455" y="737" on="1"/>
        <pt x="455" y="240" on="1"/>
        <pt x="975" y="240" on="1"/>
        <pt x="927" y="0" on="1"/>
        <pt x="156" y="0" on="1"/>
        <pt x="156" y="694" on="1"/>
        <pt x="-2" y="672" on="1"/>
        <pt x="-2" y="910" on="1"/>
        <pt x="156" y="932" on="1"/>
        <pt x="156" y="1512" on="1"/>
      </contour>
    </TTGlyph>
    <TTGlyph name="M" xMin="142" yMin="-12" xMax="1480" yMax="1534">
      <contour>
        <pt x="390" y="1144" on="1"/>
        <pt x="390" y="12" on="1"/>
        <pt x="142" y="0" on="1"/>
        <pt x="142" y="1522" on="1"/>
        <pt x="581" y="1534" on="1"/>
        <pt x="835" y="584" on="1"/>
        <pt x="1079" y="1500" on="1"/>
        <pt x="1480" y="1524" on="1"/>
        <pt x="1480" y="12" on="1"/>
        <pt x="1170" y="-12" on="1"/>
        <pt x="1170" y="1140" on="1"/>
        <pt x="883" y="0" on="1"/>
        <pt x="698" y="0" on="1"/>
      </contour>
    </TTGlyph>
    <TTGlyph name="N" xMin="141" yMin="-12" xMax="1104" yMax="1536">
      <contour>
        <pt x="409" y="948" on="1"/>
        <pt x="409" y="12" on="1"/>
        <pt x="141" y="0" on="1"/>
        <pt x="141" y="1524" on="1"/>
        <pt x="454" y="1536" on="1"/>
        <pt x="850" y="622" on="1"/>
        <pt x="850" y="1512" on="1"/>
        <pt x="1104" y="1536" on="1"/>
        <pt x="1104" y="12" on="1"/>
        <pt x="858" y="-12" on="1"/>
      </contour>
    </TTGlyph>
    <TTGlyph name="Nacute" xMin="141" yMin="-12" xMax="1104" yMax="2177">
      <component glyphName="N" x="0" y="0" flags="0x204"/>
      <component glyphName="acute" x="361" y="384" flags="0x4"/>
    </TTGlyph>
    <TTGlyph name="Ncaron" xMin="141" yMin="-12" xMax="1104" yMax="2124">
      <component glyphName="N" x="0" y="0" flags="0x204"/>
      <component glyphName="caron" x="251" y="396" flags="0x4"/>
    </TTGlyph>
    <TTGlyph name="Ncommaaccent" xMin="141" yMin="-666" xMax="1104" yMax="1536">
      <component glyphName="N" x="0" y="0" flags="0x204"/>
      <component glyphName="commaaccent" x="375" y="-762" flags="0x4"/>
    </TTGlyph>
    <TTGlyph name="Ntilde" xMin="141" yMin="-12" xMax="1104" yMax="1921">
      <component glyphName="N" x="0" y="0" flags="0x204"/>
      <component glyphName="tilde" x="162" y="384" flags="0x4"/>
    </TTGlyph>
    <TTGlyph name="O" xMin="86" yMin="-32" xMax="1039" yMax="1561">
      <contour>
        <pt x="561" y="-32" on="1"/>
        <pt x="463" y="-32" on="0"/>
        <pt x="316" y="34" on="0"/>
        <pt x="210" y="152" on="0"/>
        <pt x="142" y="313" on="0"/>
        <pt x="102" y="502" on="0"/>
        <pt x="86" y="712" on="0"/>
        <pt x="86" y="820" on="1"/>
        <pt x="86" y="982" on="0"/>
        <pt x="141" y="1258" on="0"/>
        <pt x="257" y="1454" on="0"/>
        <pt x="436" y="1561" on="0"/>
        <pt x="561" y="1561" on="1"/>
        <pt x="686" y="1561" on="0"/>
        <pt x="867" y="1454" on="0"/>
        <pt x="984" y="1258" on="0"/>
        <pt x="1039" y="982" on="0"/>
        <pt x="1039" y="820" on="1"/>
        <pt x="1039" y="712" on="0"/>
        <pt x="1023" y="502" on="0"/>
        <pt x="982" y="313" on="0"/>
        <pt x="913" y="152" on="0"/>
        <pt x="807" y="34" on="0"/>
        <pt x="659" y="-32" on="0"/>
      </contour>
      <contour>
        <pt x="561" y="223" on="1"/>
        <pt x="621" y="223" on="0"/>
        <pt x="692" y="306" on="0"/>
        <pt x="729" y="461" on="0"/>
        <pt x="739" y="682" on="0"/>
        <pt x="739" y="820" on="1"/>
        <pt x="739" y="868" on="0"/>
        <pt x="736" y="973" on="0"/>
        <pt x="724" y="1086" on="0"/>
        <pt x="701" y="1192" on="0"/>
        <pt x="661" y="1273" on="0"/>
        <pt x="602" y="1322" on="0"/>
        <pt x="561" y="1322" on="1"/>
        <pt x="520" y="1322" on="0"/>
        <pt x="462" y="1273" on="0"/>
        <pt x="423" y="1192" on="0"/>
        <pt x="400" y="1086" on="0"/>
        <pt x="388" y="973" on="0"/>
        <pt x="385" y="868" on="0"/>
        <pt x="385" y="820" on="1"/>
        <pt x="385" y="682" on="0"/>
        <pt x="395" y="461" on="0"/>
        <pt x="431" y="306" on="0"/>
        <pt x="501" y="223" on="0"/>
      </contour>
    </TTGlyph>
    <TTGlyph name="OE" xMin="86" yMin="-27" xMax="1558" yMax="1546">
      <contour>
        <pt x="768" y="1536" on="1"/>
        <pt x="1542" y="1536" on="1"/>
        <pt x="1542" y="1296" on="1"/>
        <pt x="1068" y="1296" on="1"/>
        <pt x="1068" y="930" on="1"/>
        <pt x="1367" y="930" on="1"/>
        <pt x="1367" y="672" on="1"/>
        <pt x="1068" y="672" on="1"/>
        <pt x="1068" y="240" on="1"/>
        <pt x="1558" y="240" on="1"/>
        <pt x="1558" y="0" on="1"/>
        <pt x="768" y="0" on="1"/>
        <pt x="768" y="96" on="1"/>
        <pt x="731" y="38" on="0"/>
        <pt x="630" y="-27" on="0"/>
        <pt x="561" y="-27" on="1"/>
        <pt x="463" y="-27" on="0"/>
        <pt x="316" y="38" on="0"/>
        <pt x="210" y="153" on="0"/>
        <pt x="142" y="311" on="0"/>
        <pt x="102" y="497" on="0"/>
        <pt x="86" y="703" on="0"/>
        <pt x="86" y="810" on="1"/>
        <pt x="86" y="974" on="0"/>
        <pt x="141" y="1245" on="0"/>
        <pt x="257" y="1439" on="0"/>
        <pt x="436" y="1546" on="0"/>
        <pt x="561" y="1546" on="1"/>
        <pt x="627" y="1546" on="0"/>
        <pt x="729" y="1483" on="0"/>
        <pt x="768" y="1424" on="1"/>
      </contour>
      <contour>
        <pt x="561" y="228" on="1"/>
        <pt x="622" y="228" on="0"/>
        <pt x="703" y="290" on="0"/>
        <pt x="749" y="406" on="0"/>
        <pt x="768" y="574" on="0"/>
        <pt x="768" y="681" on="1"/>
        <pt x="768" y="884" on="1"/>
        <pt x="768" y="929" on="0"/>
        <pt x="761" y="1028" on="0"/>
        <pt x="743" y="1122" on="0"/>
        <pt x="713" y="1206" on="0"/>
        <pt x="667" y="1270" on="0"/>
        <pt x="603" y="1307" on="0"/>
        <pt x="561" y="1307" on="1"/>
        <pt x="520" y="1307" on="0"/>
        <pt x="462" y="1259" on="0"/>
        <pt x="423" y="1179" on="0"/>
        <pt x="400" y="1075" on="0"/>
        <pt x="388" y="965" on="0"/>
        <pt x="385" y="856" on="0"/>
        <pt x="385" y="810" on="1"/>
        <pt x="385" y="675" on="0"/>
        <pt x="395" y="459" on="0"/>
        <pt x="431" y="308" on="0"/>
        <pt x="501" y="228" on="0"/>
      </contour>
    </TTGlyph>
    <TTGlyph name="Oacute" xMin="86" yMin="-32" xMax="1039" yMax="2177">
      <component glyphName="O" x="0" y="0" flags="0x204"/>
      <component glyphName="acute" x="235" y="384" flags="0x4"/>
    </TTGlyph>
    <TTGlyph name="Obreve" xMin="86" yMin="-32" xMax="1039" yMax="2112">
      <component glyphName="O" x="0" y="0" flags="0x204"/>
      <component glyphName="breve" x="53" y="384" flags="0x4"/>
    </TTGlyph>
    <TTGlyph name="Ocircumflex" xMin="86" yMin="-32" xMax="1039" yMax="2112">
      <component glyphName="O" x="0" y="0" flags="0x204"/>
      <component glyphName="circumflex" x="194" y="384" flags="0x4"/>
    </TTGlyph>
    <TTGlyph name="Odieresis" xMin="86" yMin="-32" xMax="1039" yMax="1920">
      <component glyphName="O" x="0" y="0" flags="0x204"/>
      <component glyphName="dieresis" x="16" y="384" flags="0x4"/>
    </TTGlyph>
    <TTGlyph name="Ograve" xMin="86" yMin="-32" xMax="1039" yMax="2173">
      <component glyphName="O" x="0" y="0" flags="0x204"/>
      <component glyphName="grave" x="289" y="384" flags="0x4"/>
    </TTGlyph>
    <TTGlyph name="Ohungarumlaut" xMin="87" yMin="-32" xMax="1192" yMax="2143">
      <component glyphName="O" x="1" y="0" flags="0x4"/>
      <component glyphName="hungarumlaut" x="125" y="415" flags="0x4"/>
    </TTGlyph>
    <TTGlyph name="Omacron" xMin="86" yMin="-32" xMax="1039" yMax="1824">
      <component glyphName="O" x="0" y="0" flags="0x204"/>
      <component glyphName="macron" x="112" y="384" flags="0x4"/>
    </TTGlyph>
    <TTGlyph name="Oslash" xMin="29" yMin="-32" xMax="1130" yMax="1568">
      <contour>
        <pt x="562" y="-32" on="1"/>
        <pt x="494" y="-32" on="0"/>
        <pt x="383" y="0" on="0"/>
        <pt x="293" y="58" on="0"/>
        <pt x="223" y="142" on="0"/>
        <pt x="196" y="193" on="1"/>
        <pt x="124" y="106" on="1"/>
        <pt x="29" y="198" on="1"/>
        <pt x="141" y="334" on="1"/>
        <pt x="110" y="442" on="0"/>
        <pt x="87" y="689" on="0"/>
        <pt x="87" y="820" on="1"/>
        <pt x="87" y="989" on="0"/>
        <pt x="142" y="1265" on="0"/>
        <pt x="258" y="1461" on="0"/>
        <pt x="437" y="1568" on="0"/>
        <pt x="562" y="1568" on="1"/>
        <pt x="701" y="1568" on="0"/>
        <pt x="894" y="1436" on="0"/>
        <pt x="951" y="1317" on="1"/>
        <pt x="1035" y="1419" on="1"/>
        <pt x="1130" y="1327" on="1"/>
        <pt x="1002" y="1171" on="1"/>
        <pt x="1040" y="1016" on="0"/>
        <pt x="1040" y="820" on="1"/>
        <pt x="1040" y="712" on="0"/>
        <pt x="1024" y="502" on="0"/>
        <pt x="983" y="313" on="0"/>
        <pt x="914" y="152" on="0"/>
        <pt x="808" y="34" on="0"/>
        <pt x="660" y="-32" on="0"/>
      </contour>
      <contour>
        <pt x="386" y="820" on="1"/>
        <pt x="386" y="723" on="1"/>
        <pt x="386" y="677" on="0"/>
        <pt x="388" y="634" on="1"/>
        <pt x="729" y="1048" on="1"/>
        <pt x="723" y="1103" on="0"/>
        <pt x="699" y="1204" on="0"/>
        <pt x="660" y="1282" on="0"/>
        <pt x="602" y="1329" on="0"/>
        <pt x="562" y="1329" on="1"/>
        <pt x="521" y="1329" on="0"/>
        <pt x="463" y="1280" on="0"/>
        <pt x="424" y="1199" on="0"/>
        <pt x="401" y="1093" on="0"/>
        <pt x="389" y="980" on="0"/>
        <pt x="386" y="868" on="0"/>
      </contour>
      <contour>
        <pt x="562" y="223" on="1"/>
        <pt x="622" y="223" on="0"/>
        <pt x="693" y="306" on="0"/>
        <pt x="730" y="461" on="0"/>
        <pt x="740" y="682" on="0"/>
        <pt x="740" y="820" on="1"/>
        <pt x="740" y="853" on="1"/>
        <pt x="403" y="444" on="1"/>
        <pt x="418" y="338" on="0"/>
        <pt x="491" y="223" on="0"/>
      </contour>
    </TTGlyph>
    <TTGlyph name="Oslashacute" xMin="29" yMin="-32" xMax="1130" yMax="2177">
      <component glyphName="Oslash" x="0" y="0" flags="0x204"/>
      <component glyphName="acute" x="392" y="384" flags="0x4"/>
    </TTGlyph>
    <TTGlyph name="Otilde" xMin="86" yMin="-32" xMax="1039" yMax="1921">
      <component glyphName="O" x="0" y="0" flags="0x204"/>
      <component glyphName="tilde" x="125" y="384" flags="0x4"/>
    </TTGlyph>
    <TTGlyph name="P" xMin="141" yMin="-12" xMax="1049" yMax="1536">
      <contour>
        <pt x="141" y="1536" on="1"/>
        <pt x="333" y="1536" on="1"/>
        <pt x="411" y="1536" on="0"/>
        <pt x="577" y="1534" on="0"/>
        <pt x="736" y="1511" on="0"/>
        <pt x="879" y="1458" on="0"/>
        <pt x="986" y="1355" on="0"/>
        <pt x="1049" y="1194" on="0"/>
        <pt x="1049" y="1075" on="1"/>
        <pt x="1049" y="967" on="0"/>
        <pt x="997" y="814" on="0"/>
        <pt x="907" y="709" on="0"/>
        <pt x="788" y="647" on="0"/>
        <pt x="652" y="614" on="0"/>
        <pt x="509" y="604" on="0"/>
        <pt x="441" y="604" on="1"/>
        <pt x="441" y="12" on="1"/>
        <pt x="141" y="-12" on="1"/>
      </contour>
      <contour>
        <pt x="494" y="847" on="1"/>
        <pt x="546" y="847" on="0"/>
        <pt x="639" y="866" on="0"/>
        <pt x="709" y="917" on="0"/>
        <pt x="750" y="1007" on="0"/>
        <pt x="750" y="1077" on="1"/>
        <pt x="750" y="1146" on="0"/>
        <pt x="715" y="1232" on="0"/>
        <pt x="647" y="1279" on="0"/>
        <pt x="549" y="1296" on="0"/>
        <pt x="486" y="1296" on="1"/>
        <pt x="443" y="1296" on="1"/>
        <pt x="443" y="847" on="1"/>
      </contour>
    </TTGlyph>
    <TTGlyph name="Q" xMin="84" yMin="-295" xMax="1042" yMax="1568">
      <contour>
        <pt x="559" y="-32" on="1"/>
        <pt x="461" y="-32" on="0"/>
        <pt x="314" y="38" on="0"/>
        <pt x="208" y="160" on="0"/>
        <pt x="140" y="325" on="0"/>
        <pt x="100" y="514" on="0"/>
        <pt x="84" y="719" on="0"/>
        <pt x="84" y="820" on="1"/>
        <pt x="84" y="921" on="0"/>
        <pt x="108" y="1111" on="0"/>
        <pt x="158" y="1277" on="0"/>
        <pt x="236" y="1415" on="0"/>
        <pt x="341" y="1514" on="0"/>
        <pt x="476" y="1568" on="0"/>
        <pt x="559" y="1568" on="1"/>
        <pt x="643" y="1568" on="0"/>
        <pt x="778" y="1514" on="0"/>
        <pt x="884" y="1415" on="0"/>
        <pt x="962" y="1277" on="0"/>
        <pt x="1013" y="1111" on="0"/>
        <pt x="1037" y="921" on="0"/>
        <pt x="1037" y="820" on="1"/>
        <pt x="1037" y="715" on="0"/>
        <pt x="1019" y="503" on="0"/>
        <pt x="975" y="309" on="0"/>
        <pt x="899" y="143" on="0"/>
        <pt x="841" y="84" on="1"/>
        <pt x="849" y="39" on="0"/>
        <pt x="893" y="-16" on="0"/>
        <pt x="950" y="-46" on="0"/>
        <pt x="1014" y="-59" on="0"/>
        <pt x="1042" y="-63" on="1"/>
        <pt x="1042" y="-293" on="1"/>
        <pt x="1031" y="-293" on="0"/>
        <pt x="1012" y="-295" on="0"/>
        <pt x="1003" y="-295" on="1"/>
        <pt x="928" y="-295" on="0"/>
        <pt x="812" y="-258" on="0"/>
        <pt x="726" y="-187" on="0"/>
        <pt x="667" y="-87" on="0"/>
        <pt x="649" y="-24" on="1"/>
        <pt x="649" y="-26" on="0"/>
        <pt x="621" y="-27" on="0"/>
        <pt x="604" y="-29" on="1"/>
        <pt x="584" y="-31" on="0"/>
      </contour>
      <contour>
        <pt x="559" y="223" on="1"/>
        <pt x="624" y="223" on="0"/>
        <pt x="696" y="313" on="0"/>
        <pt x="730" y="473" on="0"/>
        <pt x="737" y="691" on="0"/>
        <pt x="737" y="820" on="1"/>
        <pt x="737" y="862" on="0"/>
        <pt x="735" y="971" on="0"/>
        <pt x="725" y="1084" on="0"/>
        <pt x="704" y="1193" on="0"/>
        <pt x="664" y="1278" on="0"/>
        <pt x="603" y="1330" on="0"/>
        <pt x="559" y="1330" on="1"/>
        <pt x="515" y="1330" on="0"/>
        <pt x="455" y="1278" on="0"/>
        <pt x="416" y="1193" on="0"/>
        <pt x="394" y="1084" on="0"/>
        <pt x="385" y="971" on="0"/>
        <pt x="383" y="862" on="0"/>
        <pt x="383" y="820" on="1"/>
        <pt x="383" y="691" on="0"/>
        <pt x="390" y="473" on="0"/>
        <pt x="423" y="313" on="0"/>
        <pt x="494" y="223" on="0"/>
      </contour>
    </TTGlyph>
    <TTGlyph name="R" xMin="142" yMin="-27" xMax="1127" yMax="1536">
      <contour>
        <pt x="142" y="-12" on="1"/>
        <pt x="142" y="1524" on="1"/>
        <pt x="506" y="1536" on="1"/>
        <pt x="632" y="1536" on="0"/>
        <pt x="840" y="1487" on="0"/>
        <pt x="989" y="1382" on="0"/>
        <pt x="1070" y="1220" on="0"/>
        <pt x="1070" y="1108" on="1"/>
        <pt x="1070" y="1033" on="0"/>
        <pt x="1038" y="913" on="0"/>
        <pt x="980" y="819" on="0"/>
        <pt x="899" y="747" on="0"/>
        <pt x="850" y="719" on="1"/>
        <pt x="850" y="718" on="0"/>
        <pt x="874" y="660" on="0"/>
        <pt x="913" y="566" on="0"/>
        <pt x="962" y="446" on="0"/>
        <pt x="988" y="384" on="1"/>
        <pt x="1049" y="238" on="0"/>
        <pt x="1127" y="53" on="1"/>
        <pt x="832" y="-27" on="1"/>
        <pt x="558" y="673" on="1"/>
        <pt x="441" y="673" on="1"/>
        <pt x="441" y="12" on="1"/>
      </contour>
      <contour>
        <pt x="441" y="895" on="1"/>
        <pt x="543" y="895" on="1"/>
        <pt x="588" y="895" on="0"/>
        <pt x="670" y="910" on="0"/>
        <pt x="733" y="955" on="0"/>
        <pt x="770" y="1037" on="0"/>
        <pt x="770" y="1105" on="1"/>
        <pt x="770" y="1159" on="0"/>
        <pt x="741" y="1232" on="0"/>
        <pt x="690" y="1277" on="0"/>
        <pt x="621" y="1296" on="0"/>
        <pt x="581" y="1296" on="1"/>
        <pt x="441" y="1296" on="1"/>
      </contour>
    </TTGlyph>
    <TTGlyph name="Racute" xMin="142" yMin="-27" xMax="1127" yMax="2177">
      <component glyphName="R" x="0" y="0" flags="0x204"/>
      <component glyphName="acute" x="319" y="384" flags="0x4"/>
    </TTGlyph>
    <TTGlyph name="Rcaron" xMin="142" yMin="-27" xMax="1127" yMax="2110">
      <component glyphName="R" x="0" y="0" flags="0x204"/>
      <component glyphName="circumflex" x="194" y="382" flags="0x4"/>
    </TTGlyph>
    <TTGlyph name="Rcommaaccent" xMin="142" yMin="-666" xMax="1127" yMax="1536">
      <component glyphName="R" x="0" y="0" flags="0x4"/>
      <component glyphName="commaaccent" x="376" y="-762" flags="0x4"/>
    </TTGlyph>
    <TTGlyph name="S" xMin="48" yMin="-32" xMax="1038" yMax="1568">
      <contour>
        <pt x="739" y="1141" on="1"/>
        <pt x="721" y="1179" on="0"/>
        <pt x="690" y="1247" on="0"/>
        <pt x="649" y="1299" on="0"/>
        <pt x="591" y="1329" on="0"/>
        <pt x="546" y="1329" on="1"/>
        <pt x="511" y="1329" on="0"/>
        <pt x="458" y="1303" on="0"/>
        <pt x="424" y="1259" on="0"/>
        <pt x="407" y="1201" on="0"/>
        <pt x="407" y="1169" on="1"/>
        <pt x="407" y="1143" on="0"/>
        <pt x="423" y="1097" on="0"/>
        <pt x="450" y="1059" on="0"/>
        <pt x="484" y="1028" on="0"/>
        <pt x="501" y="1018" on="1"/>
        <pt x="749" y="873" on="1"/>
        <pt x="837" y="823" on="0"/>
        <pt x="949" y="713" on="0"/>
        <pt x="1012" y="605" on="0"/>
        <pt x="1036" y="504" on="0"/>
        <pt x="1038" y="463" on="1"/>
        <pt x="1038" y="352" on="0"/>
        <pt x="963" y="169" on="0"/>
        <pt x="831" y="39" on="0"/>
        <pt x="652" y="-32" on="0"/>
        <pt x="548" y="-32" on="1"/>
        <pt x="452" y="-32" on="0"/>
        <pt x="292" y="26" on="0"/>
        <pt x="167" y="129" on="0"/>
        <pt x="76" y="270" on="0"/>
        <pt x="48" y="352" on="1"/>
        <pt x="302" y="471" on="1"/>
        <pt x="324" y="435" on="0"/>
        <pt x="376" y="348" on="0"/>
        <pt x="440" y="273" on="0"/>
        <pt x="522" y="223" on="0"/>
        <pt x="576" y="223" on="1"/>
        <pt x="603" y="223" on="0"/>
        <pt x="652" y="248" on="0"/>
        <pt x="689" y="291" on="0"/>
        <pt x="712" y="346" on="0"/>
        <pt x="712" y="376" on="1"/>
        <pt x="712" y="437" on="0"/>
        <pt x="653" y="529" on="0"/>
        <pt x="610" y="557" on="1"/>
        <pt x="341" y="716" on="1"/>
        <pt x="285" y="748" on="0"/>
        <pt x="192" y="830" on="0"/>
        <pt x="123" y="929" on="0"/>
        <pt x="85" y="1043" on="0"/>
        <pt x="85" y="1108" on="1"/>
        <pt x="85" y="1210" on="0"/>
        <pt x="158" y="1379" on="0"/>
        <pt x="285" y="1501" on="0"/>
        <pt x="460" y="1568" on="0"/>
        <pt x="562" y="1568" on="1"/>
        <pt x="718" y="1568" on="0"/>
        <pt x="940" y="1409" on="0"/>
        <pt x="993" y="1256" on="1"/>
      </contour>
    </TTGlyph>
    <TTGlyph name="Sacute" xMin="48" yMin="-32" xMax="1038" yMax="2177">
      <component glyphName="S" x="0" y="0" flags="0x4"/>
      <component glyphName="acute" x="320" y="384" flags="0x4"/>
    </TTGlyph>
    <TTGlyph name="Scaron" xMin="48" yMin="-32" xMax="1038" yMax="2112">
      <component glyphName="S" x="0" y="0" flags="0x204"/>
      <component glyphName="caron" x="178" y="384" flags="0x4"/>
    </TTGlyph>
    <TTGlyph name="Scedilla" xMin="48" yMin="-556" xMax="1038" yMax="1568">
      <component glyphName="S" x="0" y="0" flags="0x4"/>
      <component glyphName="cedilla" x="349" y="0" flags="0x4"/>
    </TTGlyph>
    <TTGlyph name="Scircumflex" xMin="48" yMin="-32" xMax="1038" yMax="2112">
      <component glyphName="S" x="0" y="0" flags="0x4"/>
      <component glyphName="circumflex" x="199" y="384" flags="0x4"/>
    </TTGlyph>
    <TTGlyph name="Scommaaccent" xMin="48" yMin="-672" xMax="1038" yMax="1568">
      <component glyphName="S" x="0" y="0" flags="0x4"/>
      <component glyphName="commaaccent" x="266" y="-768" flags="0x4"/>
    </TTGlyph>
    <TTGlyph name="Sigma" xMin="51" yMin="0" xMax="949" yMax="1536">
      <component glyphName="Z" x="0" y="0" flags="0x200"/>
    </TTGlyph>
    <TTGlyph name="T" xMin="28" yMin="-12" xMax="952" yMax="1536">
      <contour>
        <pt x="28" y="1296" on="1"/>
        <pt x="52" y="1536" on="1"/>
        <pt x="952" y="1536" on="1"/>
        <pt x="928" y="1296" on="1"/>
        <pt x="641" y="1296" on="1"/>
        <pt x="641" y="12" on="1"/>
        <pt x="341" y="-12" on="1"/>
        <pt x="341" y="1296" on="1"/>
      </contour>
    </TTGlyph>
    <TTGlyph name="Tbar" xMin="28" yMin="-12" xMax="952" yMax="1536">
      <component glyphName="T" x="0" y="0" flags="0x204"/>
      <component glyphName="macron" x="32" y="-634" flags="0x4"/>
    </TTGlyph>
    <TTGlyph name="Tcaron" xMin="28" yMin="-12" xMax="952" yMax="2112">
      <component glyphName="T" x="0" y="0" flags="0x204"/>
      <component glyphName="caron" x="120" y="384" flags="0x4"/>
    </TTGlyph>
    <TTGlyph name="Tcommaaccent" xMin="30" yMin="-666" xMax="954" yMax="1536">
      <component glyphName="T" x="2" y="0" flags="0x204"/>
      <component glyphName="commaaccent" x="248" y="-762" flags="0x4"/>
    </TTGlyph>
    <TTGlyph name="Thorn" xMin="140" yMin="-92" xMax="1048" yMax="1536">
      <contour>
        <pt x="140" y="1536" on="1"/>
        <pt x="442" y="1536" on="1"/>
        <pt x="442" y="1167" on="1"/>
        <pt x="514" y="1166" on="0"/>
        <pt x="659" y="1156" on="0"/>
        <pt x="794" y="1125" on="0"/>
        <pt x="911" y="1065" on="0"/>
        <pt x="998" y="966" on="0"/>
        <pt x="1048" y="819" on="0"/>
        <pt x="1048" y="716" on="1"/>
        <pt x="1048" y="613" on="0"/>
        <pt x="996" y="466" on="0"/>
        <pt x="906" y="366" on="0"/>
        <pt x="787" y="306" on="0"/>
        <pt x="651" y="275" on="0"/>
        <pt x="508" y="265" on="0"/>
        <pt x="440" y="265" on="1"/>
        <pt x="440" y="-68" on="1"/>
        <pt x="140" y="-92" on="1"/>
      </contour>
      <contour>
        <pt x="493" y="488" on="1"/>
        <pt x="545" y="488" on="0"/>
        <pt x="638" y="507" on="0"/>
        <pt x="708" y="558" on="0"/>
        <pt x="749" y="648" on="0"/>
        <pt x="749" y="718" on="1"/>
        <pt x="749" y="787" on="0"/>
        <pt x="714" y="873" on="0"/>
        <pt x="646" y="920" on="0"/>
        <pt x="548" y="937" on="0"/>
        <pt x="485" y="937" on="1"/>
        <pt x="442" y="937" on="1"/>
        <pt x="442" y="488" on="1"/>
      </contour>
    </TTGlyph>
    <TTGlyph name="U" xMin="132" yMin="-32" xMax="1031" yMax="1536">
      <contour>
        <pt x="132" y="1524" on="1"/>
        <pt x="432" y="1536" on="1"/>
        <pt x="432" y="482" on="1"/>
        <pt x="432" y="436" on="0"/>
        <pt x="438" y="344" on="0"/>
        <pt x="471" y="270" on="0"/>
        <pt x="538" y="223" on="0"/>
        <pt x="600" y="223" on="1"/>
        <pt x="658" y="223" on="0"/>
        <pt x="721" y="271" on="0"/>
        <pt x="751" y="347" on="0"/>
        <pt x="756" y="440" on="0"/>
        <pt x="756" y="485" on="1"/>
        <pt x="756" y="1512" on="1"/>
        <pt x="1031" y="1536" on="1"/>
        <pt x="1031" y="541" on="1"/>
        <pt x="1031" y="497" on="0"/>
        <pt x="1027" y="378" on="0"/>
        <pt x="1002" y="251" on="0"/>
        <pt x="946" y="126" on="0"/>
        <pt x="841" y="28" on="0"/>
        <pt x="678" y="-32" on="0"/>
        <pt x="559" y="-32" on="1"/>
        <pt x="448" y="-32" on="0"/>
        <pt x="287" y="55" on="0"/>
        <pt x="182" y="202" on="0"/>
        <pt x="132" y="398" on="0"/>
        <pt x="132" y="506" on="1"/>
      </contour>
    </TTGlyph>
    <TTGlyph name="Uacute" xMin="132" yMin="-32" xMax="1031" yMax="2177">
      <component glyphName="U" x="0" y="0" flags="0x204"/>
      <component glyphName="acute" x="255" y="384" flags="0x4"/>
    </TTGlyph>
    <TTGlyph name="Ubreve" xMin="132" yMin="-32" xMax="1031" yMax="2112">
      <component glyphName="U" x="0" y="0" flags="0x204"/>
      <component glyphName="breve" x="73" y="384" flags="0x4"/>
    </TTGlyph>
    <TTGlyph name="Ucircumflex" xMin="132" yMin="-32" xMax="1031" yMax="2112">
      <component glyphName="U" x="0" y="0" flags="0x204"/>
      <component glyphName="circumflex" x="214" y="384" flags="0x4"/>
    </TTGlyph>
    <TTGlyph name="Udieresis" xMin="132" yMin="-32" xMax="1031" yMax="1920">
      <component glyphName="U" x="0" y="0" flags="0x204"/>
      <component glyphName="dieresis" x="36" y="384" flags="0x4"/>
    </TTGlyph>
    <TTGlyph name="Ugrave" xMin="132" yMin="-32" xMax="1031" yMax="2173">
      <component glyphName="U" x="0" y="0" flags="0x204"/>
      <component glyphName="grave" x="309" y="384" flags="0x4"/>
    </TTGlyph>
    <TTGlyph name="Uhungarumlaut" xMin="79" yMin="-32" xMax="1085" yMax="2112">
      <component glyphName="U" x="0" y="0" flags="0x204"/>
      <component glyphName="hungarumlaut" x="18" y="384" flags="0x4"/>
    </TTGlyph>
    <TTGlyph name="Umacron" xMin="132" yMin="-32" xMax="1031" yMax="1824">
      <component glyphName="U" x="0" y="0" flags="0x204"/>
      <component glyphName="macron" x="132" y="384" flags="0x4"/>
    </TTGlyph>
    <TTGlyph name="Uogonek" xMin="132" yMin="-385" xMax="1031" yMax="1536">
      <component glyphName="U" x="0" y="0" flags="0x4"/>
      <component glyphName="ogonek" x="410" y="0" flags="0x4"/>
    </TTGlyph>
    <TTGlyph name="Uring" xMin="132" yMin="-32" xMax="1031" yMax="2176">
      <component glyphName="U" x="0" y="0" flags="0x204"/>
      <component glyphName="ring" x="188" y="384" flags="0x4"/>
    </TTGlyph>
    <TTGlyph name="Utilde" xMin="132" yMin="-32" xMax="1031" yMax="1921">
      <component glyphName="U" x="0" y="0" flags="0x204"/>
      <component glyphName="tilde" x="146" y="384" flags="0x4"/>
    </TTGlyph>
    <TTGlyph name="V" xMin="17" yMin="0" xMax="1078" yMax="1536">
      <contour>
        <pt x="17" y="1524" on="1"/>
        <pt x="372" y="1536" on="1"/>
        <pt x="576" y="476" on="1"/>
        <pt x="789" y="1524" on="1"/>
        <pt x="1078" y="1536" on="1"/>
        <pt x="708" y="0" on="1"/>
        <pt x="379" y="0" on="1"/>
      </contour>
    </TTGlyph>
    <TTGlyph name="W" xMin="27" yMin="0" xMax="1568" yMax="1536">
      <contour>
        <pt x="614" y="0" on="1"/>
        <pt x="339" y="0" on="1"/>
        <pt x="27" y="1524" on="1"/>
        <pt x="355" y="1536" on="1"/>
        <pt x="517" y="616" on="1"/>
        <pt x="690" y="1524" on="1"/>
        <pt x="935" y="1536" on="1"/>
        <pt x="1097" y="606" on="1"/>
        <pt x="1293" y="1524" on="1"/>
        <pt x="1568" y="1536" on="1"/>
        <pt x="1240" y="0" on="1"/>
        <pt x="943" y="0" on="1"/>
        <pt x="780" y="938" on="1"/>
      </contour>
    </TTGlyph>
    <TTGlyph name="Wacute" xMin="27" yMin="0" xMax="1568" yMax="2177">
      <component glyphName="W" x="0" y="0" flags="0x204"/>
      <component glyphName="acute" x="468" y="384" flags="0x4"/>
    </TTGlyph>
    <TTGlyph name="Wcircumflex" xMin="27" yMin="0" xMax="1568" yMax="2112">
      <component glyphName="W" x="0" y="0" flags="0x204"/>
      <component glyphName="circumflex" x="427" y="384" flags="0x4"/>
    </TTGlyph>
    <TTGlyph name="Wdieresis" xMin="27" yMin="0" xMax="1568" yMax="1920">
      <component glyphName="W" x="0" y="0" flags="0x204"/>
      <component glyphName="dieresis" x="249" y="384" flags="0x4"/>
    </TTGlyph>
    <TTGlyph name="Wgrave" xMin="27" yMin="0" xMax="1568" yMax="2173">
      <component glyphName="W" x="0" y="0" flags="0x204"/>
      <component glyphName="grave" x="522" y="384" flags="0x4"/>
    </TTGlyph>
    <TTGlyph name="X" xMin="1" yMin="0" xMax="1076" yMax="1536">
      <contour>
        <pt x="502" y="481" on="1"/>
        <pt x="285" y="0" on="1"/>
        <pt x="1" y="0" on="1"/>
        <pt x="382" y="780" on="1"/>
        <pt x="16" y="1536" on="1"/>
        <pt x="375" y="1536" on="1"/>
        <pt x="553" y="1137" on="1"/>
        <pt x="737" y="1536" on="1"/>
        <pt x="1023" y="1536" on="1"/>
        <pt x="677" y="838" on="1"/>
        <pt x="1076" y="0" on="1"/>
        <pt x="719" y="0" on="1"/>
      </contour>
    </TTGlyph>
    <TTGlyph name="Y" xMin="-3" yMin="-12" xMax="1025" yMax="1536">
      <contour>
        <pt x="367" y="608" on="1"/>
        <pt x="-3" y="1536" on="1"/>
        <pt x="327" y="1536" on="1"/>
        <pt x="538" y="896" on="1"/>
        <pt x="766" y="1536" on="1"/>
        <pt x="1025" y="1536" on="1"/>
        <pt x="670" y="643" on="1"/>
        <pt x="670" y="12" on="1"/>
        <pt x="367" y="-12" on="1"/>
      </contour>
    </TTGlyph>
    <TTGlyph name="Yacute" xMin="-3" yMin="-12" xMax="1025" yMax="2177">
      <component glyphName="Y" x="0" y="0" flags="0x204"/>
      <component glyphName="acute" x="184" y="384" flags="0x4"/>
    </TTGlyph>
    <TTGlyph name="Ycircumflex" xMin="-3" yMin="-12" xMax="1025" yMax="2112">
      <component glyphName="Y" x="0" y="0" flags="0x204"/>
      <component glyphName="circumflex" x="143" y="384" flags="0x4"/>
    </TTGlyph>
    <TTGlyph name="Ydieresis" xMin="-3" yMin="-12" xMax="1025" yMax="1920">
      <component glyphName="Y" x="0" y="0" flags="0x204"/>
      <component glyphName="dieresis" x="-32" y="384" flags="0x4"/>
    </TTGlyph>
    <TTGlyph name="Ygrave" xMin="-3" yMin="-12" xMax="1025" yMax="2173">
      <component glyphName="Y" x="0" y="0" flags="0x204"/>
      <component glyphName="grave" x="238" y="384" flags="0x4"/>
    </TTGlyph>
    <TTGlyph name="Z" xMin="51" yMin="0" xMax="949" yMax="1536">
      <contour>
        <pt x="581" y="1296" on="1"/>
        <pt x="98" y="1296" on="1"/>
        <pt x="122" y="1536" on="1"/>
        <pt x="935" y="1536" on="1"/>
        <pt x="935" y="1337" on="1"/>
        <pt x="421" y="240" on="1"/>
        <pt x="949" y="240" on="1"/>
        <pt x="901" y="0" on="1"/>
        <pt x="51" y="0" on="1"/>
        <pt x="51" y="190" on="1"/>
      </contour>
    </TTGlyph>
    <TTGlyph name="Zacute" xMin="51" yMin="0" xMax="949" yMax="2177">
      <component glyphName="Z" x="0" y="0" flags="0x204"/>
      <component glyphName="acute" x="178" y="384" flags="0x4"/>
    </TTGlyph>
    <TTGlyph name="Zcaron" xMin="51" yMin="0" xMax="949" yMax="2112">
      <component glyphName="Z" x="0" y="0" flags="0x204"/>
      <component glyphName="caron" x="137" y="384" flags="0x4"/>
    </TTGlyph>
    <TTGlyph name="Zdotaccent" xMin="51" yMin="0" xMax="949" yMax="1922">
      <component glyphName="Z" x="0" y="0" flags="0x204"/>
      <component glyphName="dotaccent" x="199" y="384" flags="0x4"/>
    </TTGlyph>
    <TTGlyph name="a" xMin="56" yMin="-27" xMax="882" yMax="1167">
      <contour>
        <pt x="56" y="327" on="1"/>
        <pt x="56" y="409" on="0"/>
        <pt x="103" y="532" on="0"/>
        <pt x="182" y="621" on="0"/>
        <pt x="286" y="681" on="0"/>
        <pt x="399" y="718" on="0"/>
        <pt x="513" y="737" on="0"/>
        <pt x="563" y="740" on="1"/>
        <pt x="563" y="780" on="0"/>
        <pt x="561" y="857" on="0"/>
        <pt x="545" y="918" on="0"/>
        <pt x="511" y="956" on="0"/>
        <pt x="480" y="956" on="1"/>
        <pt x="454" y="956" on="0"/>
        <pt x="417" y="933" on="0"/>
        <pt x="392" y="896" on="0"/>
        <pt x="379" y="849" on="0"/>
        <pt x="376" y="826" on="1"/>
        <pt x="96" y="875" on="1"/>
        <pt x="107" y="961" on="0"/>
        <pt x="183" y="1074" on="0"/>
        <pt x="290" y="1140" on="0"/>
        <pt x="417" y="1167" on="0"/>
        <pt x="480" y="1167" on="1"/>
        <pt x="578" y="1167" on="0"/>
        <pt x="718" y="1112" on="0"/>
        <pt x="808" y="1016" on="0"/>
        <pt x="851" y="887" on="0"/>
        <pt x="851" y="813" on="1"/>
        <pt x="851" y="217" on="1"/>
        <pt x="851" y="183" on="0"/>
        <pt x="860" y="111" on="0"/>
        <pt x="866" y="81" on="1"/>
        <pt x="873" y="46" on="0"/>
        <pt x="882" y="12" on="1"/>
        <pt x="602" y="-12" on="1"/>
        <pt x="570" y="129" on="1"/>
        <pt x="553" y="98" on="0"/>
        <pt x="498" y="42" on="0"/>
        <pt x="430" y="-1" on="0"/>
        <pt x="354" y="-27" on="0"/>
        <pt x="317" y="-27" on="1"/>
        <pt x="258" y="-27" on="0"/>
        <pt x="162" y="26" on="0"/>
        <pt x="93" y="121" on="0"/>
        <pt x="56" y="250" on="0"/>
      </contour>
      <contour>
        <pt x="338" y="331" on="1"/>
        <pt x="338" y="263" on="0"/>
        <pt x="393" y="179" on="0"/>
        <pt x="452" y="179" on="1"/>
        <pt x="472" y="179" on="0"/>
        <pt x="511" y="200" on="0"/>
        <pt x="527" y="213" on="1"/>
        <pt x="545" y="228" on="0"/>
        <pt x="563" y="247" on="1"/>
        <pt x="563" y="568" on="1"/>
        <pt x="515" y="568" on="0"/>
        <pt x="433" y="544" on="0"/>
        <pt x="372" y="488" on="0"/>
        <pt x="338" y="397" on="0"/>
      </contour>
    </TTGlyph>
    <TTGlyph name="aacute" xMin="56" yMin="-27" xMax="882" yMax="1793">
      <component glyphName="a" x="0" y="0" flags="0x204"/>
      <component glyphName="acute" x="154" y="0" flags="0x4"/>
    </TTGlyph>
    <TTGlyph name="abreve" xMin="53" yMin="-27" xMax="917" yMax="1728">
      <component glyphName="a" x="0" y="0" flags="0x204"/>
      <component glyphName="breve" x="-24" y="0" flags="0x4"/>
    </TTGlyph>
    <TTGlyph name="acircumflex" xMin="56" yMin="-27" xMax="882" yMax="1728">
      <component glyphName="a" x="0" y="0" flags="0x204"/>
      <component glyphName="circumflex" x="113" y="0" flags="0x4"/>
    </TTGlyph>
    <TTGlyph name="acute" xMin="165" yMin="1245" xMax="689" yMax="1793">
      <contour>
        <pt x="165" y="1346" on="1"/>
        <pt x="462" y="1793" on="1"/>
        <pt x="689" y="1591" on="1"/>
        <pt x="278" y="1245" on="1"/>
      </contour>
    </TTGlyph>
    <TTGlyph name="adieresis" xMin="56" yMin="-27" xMax="882" yMax="1536">
      <component glyphName="a" x="0" y="0" flags="0x204"/>
      <component glyphName="dieresis" x="-61" y="0" flags="0x4"/>
    </TTGlyph>
    <TTGlyph name="ae" xMin="54" yMin="-27" xMax="1407" yMax="1167">
      <contour>
        <pt x="849" y="536" on="1"/>
        <pt x="849" y="482" on="0"/>
        <pt x="863" y="358" on="0"/>
        <pt x="896" y="254" on="0"/>
        <pt x="950" y="185" on="0"/>
        <pt x="989" y="185" on="1"/>
        <pt x="1023" y="185" on="0"/>
        <pt x="1079" y="239" on="0"/>
        <pt x="1121" y="307" on="0"/>
        <pt x="1146" y="367" on="0"/>
        <pt x="1149" y="373" on="1"/>
        <pt x="1367" y="290" on="1"/>
        <pt x="1347" y="220" on="0"/>
        <pt x="1281" y="104" on="0"/>
        <pt x="1187" y="20" on="0"/>
        <pt x="1063" y="-27" on="0"/>
        <pt x="984" y="-27" on="1"/>
        <pt x="897" y="-27" on="0"/>
        <pt x="763" y="63" on="0"/>
        <pt x="713" y="144" on="1"/>
        <pt x="687" y="94" on="0"/>
        <pt x="608" y="28" on="0"/>
        <pt x="515" y="-11" on="0"/>
        <pt x="414" y="-27" on="0"/>
        <pt x="365" y="-27" on="1"/>
        <pt x="295" y="-27" on="0"/>
        <pt x="180" y="26" on="0"/>
        <pt x="99" y="121" on="0"/>
        <pt x="54" y="250" on="0"/>
        <pt x="54" y="327" on="1"/>
        <pt x="54" y="409" on="0"/>
        <pt x="101" y="532" on="0"/>
        <pt x="180" y="621" on="0"/>
        <pt x="284" y="681" on="0"/>
        <pt x="397" y="718" on="0"/>
        <pt x="511" y="737" on="0"/>
        <pt x="561" y="740" on="1"/>
        <pt x="561" y="780" on="0"/>
        <pt x="559" y="857" on="0"/>
        <pt x="543" y="918" on="0"/>
        <pt x="509" y="956" on="0"/>
        <pt x="478" y="956" on="1"/>
        <pt x="452" y="956" on="0"/>
        <pt x="415" y="933" on="0"/>
        <pt x="390" y="896" on="0"/>
        <pt x="377" y="849" on="0"/>
        <pt x="374" y="826" on="1"/>
        <pt x="94" y="875" on="1"/>
        <pt x="105" y="961" on="0"/>
        <pt x="181" y="1074" on="0"/>
        <pt x="288" y="1140" on="0"/>
        <pt x="415" y="1167" on="0"/>
        <pt x="478" y="1167" on="1"/>
        <pt x="561" y="1167" on="0"/>
        <pt x="681" y="1095" on="0"/>
        <pt x="723" y="1032" on="1"/>
        <pt x="777" y="1095" on="0"/>
        <pt x="911" y="1167" on="0"/>
        <pt x="994" y="1167" on="1"/>
        <pt x="1097" y="1167" on="0"/>
        <pt x="1251" y="1080" on="0"/>
        <pt x="1355" y="922" on="0"/>
        <pt x="1407" y="702" on="0"/>
        <pt x="1407" y="570" on="1"/>
        <pt x="1403" y="556" on="1"/>
        <pt x="1401" y="550" on="0"/>
        <pt x="1399" y="539" on="0"/>
        <pt x="1399" y="536" on="1"/>
      </contour>
      <contour>
        <pt x="336" y="331" on="1"/>
        <pt x="336" y="263" on="0"/>
        <pt x="391" y="179" on="0"/>
        <pt x="450" y="179" on="1"/>
        <pt x="474" y="179" on="0"/>
        <pt x="515" y="216" on="0"/>
        <pt x="545" y="274" on="0"/>
        <pt x="561" y="347" on="0"/>
        <pt x="561" y="382" on="1"/>
        <pt x="561" y="568" on="1"/>
        <pt x="513" y="568" on="0"/>
        <pt x="431" y="544" on="0"/>
        <pt x="370" y="488" on="0"/>
        <pt x="336" y="397" on="0"/>
      </contour>
      <contour>
        <pt x="1124" y="702" on="1"/>
        <pt x="1124" y="759" on="0"/>
        <pt x="1109" y="857" on="0"/>
        <pt x="1077" y="928" on="0"/>
        <pt x="1026" y="969" on="0"/>
        <pt x="989" y="969" on="1"/>
        <pt x="963" y="969" on="0"/>
        <pt x="914" y="930" on="0"/>
        <pt x="875" y="862" on="0"/>
        <pt x="850" y="768" on="0"/>
        <pt x="849" y="713" on="1"/>
        <pt x="849" y="702" on="1"/>
      </contour>
    </TTGlyph>
    <TTGlyph name="aeacute" xMin="54" yMin="-27" xMax="1407" yMax="1793">
      <component glyphName="ae" x="0" y="0" flags="0x4"/>
      <component glyphName="acute" x="254" y="0" flags="0x4"/>
    </TTGlyph>
    <TTGlyph name="aemacron" xMin="54" yMin="-27" xMax="1407" yMax="1440">
      <component glyphName="ae" x="0" y="0" flags="0x4"/>
      <component glyphName="macron" x="255" y="0" flags="0x4"/>
    </TTGlyph>
    <TTGlyph name="agrave" xMin="56" yMin="-27" xMax="882" yMax="1789">
      <component glyphName="a" x="0" y="0" flags="0x204"/>
      <component glyphName="grave" x="208" y="0" flags="0x4"/>
    </TTGlyph>
    <TTGlyph name="amacron" xMin="56" yMin="-27" xMax="882" yMax="1440">
      <component glyphName="a" x="0" y="0" flags="0x204"/>
      <component glyphName="macron" x="31" y="0" flags="0x4"/>
    </TTGlyph>
    <TTGlyph name="ampersand" xMin="39" yMin="-28" xMax="1227" yMax="1546">
      <contour>
        <pt x="39" y="375" on="1"/>
        <pt x="39" y="452" on="0"/>
        <pt x="92" y="583" on="0"/>
        <pt x="176" y="693" on="0"/>
        <pt x="281" y="781" on="0"/>
        <pt x="332" y="815" on="1"/>
        <pt x="293" y="870" on="0"/>
        <pt x="262" y="932" on="1"/>
        <pt x="236" y="986" on="0"/>
        <pt x="193" y="1122" on="0"/>
        <pt x="193" y="1196" on="1"/>
        <pt x="193" y="1277" on="0"/>
        <pt x="252" y="1407" on="0"/>
        <pt x="354" y="1498" on="0"/>
        <pt x="491" y="1546" on="0"/>
        <pt x="569" y="1546" on="1"/>
        <pt x="644" y="1546" on="0"/>
        <pt x="774" y="1503" on="0"/>
        <pt x="872" y="1419" on="0"/>
        <pt x="928" y="1295" on="0"/>
        <pt x="928" y="1214" on="1"/>
        <pt x="928" y="1151" on="0"/>
        <pt x="879" y="1035" on="0"/>
        <pt x="802" y="934" on="0"/>
        <pt x="708" y="850" on="0"/>
        <pt x="663" y="819" on="1"/>
        <pt x="850" y="531" on="1"/>
        <pt x="870" y="576" on="0"/>
        <pt x="888" y="625" on="1"/>
        <pt x="904" y="667" on="0"/>
        <pt x="937" y="772" on="0"/>
        <pt x="948" y="825" on="1"/>
        <pt x="1175" y="754" on="1"/>
        <pt x="1157" y="673" on="0"/>
        <pt x="1099" y="528" on="0"/>
        <pt x="1071" y="473" on="1"/>
        <pt x="1038" y="409" on="0"/>
        <pt x="1003" y="353" on="1"/>
        <pt x="1048" y="308" on="0"/>
        <pt x="1152" y="253" on="0"/>
        <pt x="1227" y="244" on="1"/>
        <pt x="1227" y="-14" on="1"/>
        <pt x="1139" y="-14" on="0"/>
        <pt x="1026" y="8" on="0"/>
        <pt x="945" y="51" on="0"/>
        <pt x="880" y="113" on="0"/>
        <pt x="840" y="153" on="1"/>
        <pt x="800" y="117" on="0"/>
        <pt x="708" y="52" on="0"/>
        <pt x="602" y="2" on="0"/>
        <pt x="479" y="-28" on="0"/>
        <pt x="409" y="-28" on="1"/>
        <pt x="332" y="-28" on="0"/>
        <pt x="198" y="32" on="0"/>
        <pt x="97" y="139" on="0"/>
        <pt x="39" y="287" on="0"/>
      </contour>
      <contour>
        <pt x="443" y="646" on="1"/>
        <pt x="411" y="625" on="0"/>
        <pt x="363" y="570" on="0"/>
        <pt x="331" y="508" on="0"/>
        <pt x="314" y="442" on="0"/>
        <pt x="314" y="411" on="1"/>
        <pt x="314" y="376" on="0"/>
        <pt x="336" y="312" on="0"/>
        <pt x="380" y="264" on="0"/>
        <pt x="448" y="236" on="0"/>
        <pt x="495" y="236" on="1"/>
        <pt x="536" y="236" on="0"/>
        <pt x="610" y="258" on="0"/>
        <pt x="638" y="272" on="1"/>
        <pt x="671" y="288" on="0"/>
        <pt x="699" y="309" on="1"/>
        <pt x="654" y="367" on="0"/>
        <pt x="585" y="458" on="0"/>
        <pt x="532" y="527" on="0"/>
        <pt x="495" y="577" on="0"/>
        <pt x="482" y="594" on="1"/>
      </contour>
      <contour>
        <pt x="555" y="971" on="1"/>
        <pt x="555" y="972" on="0"/>
        <pt x="574" y="996" on="0"/>
        <pt x="602" y="1036" on="0"/>
        <pt x="636" y="1087" on="0"/>
        <pt x="664" y="1143" on="0"/>
        <pt x="683" y="1200" on="0"/>
        <pt x="683" y="1227" on="1"/>
        <pt x="683" y="1256" on="0"/>
        <pt x="662" y="1301" on="0"/>
        <pt x="628" y="1331" on="0"/>
        <pt x="586" y="1346" on="0"/>
        <pt x="565" y="1346" on="1"/>
        <pt x="545" y="1346" on="0"/>
        <pt x="505" y="1328" on="0"/>
        <pt x="474" y="1297" on="0"/>
        <pt x="454" y="1257" on="0"/>
        <pt x="454" y="1235" on="1"/>
        <pt x="454" y="1207" on="0"/>
        <pt x="465" y="1158" on="0"/>
        <pt x="489" y="1099" on="0"/>
        <pt x="528" y="1024" on="0"/>
      </contour>
    </TTGlyph>
    <TTGlyph name="aogonek" xMin="56" yMin="-387" xMax="967" yMax="1167">
      <component glyphName="a" x="0" y="0" flags="0x204"/>
      <component glyphName="ogonek" x="450" y="-2" flags="0x4"/>
    </TTGlyph>
    <TTGlyph name="approxequal" xMin="91" yMin="400" xMax="733" yMax="1074">
      <component glyphName="asciitilde" x="4" y="-357" flags="0x4"/>
      <component glyphName="asciitilde" x="0" y="0" flags="0x4"/>
    </TTGlyph>
    <TTGlyph name="aring" xMin="56" yMin="-27" xMax="882" yMax="1792">
      <component glyphName="a" x="0" y="0" flags="0x204"/>
      <component glyphName="ring" x="87" y="0" flags="0x4"/>
    </TTGlyph>
    <TTGlyph name="asciicircum" xMin="27" yMin="636" xMax="1002" yMax="1440">
      <contour>
        <pt x="1002" y="644" on="1"/>
        <pt x="659" y="636" on="1"/>
        <pt x="484" y="1119" on="1"/>
        <pt x="288" y="644" on="1"/>
        <pt x="27" y="642" on="1"/>
        <pt x="387" y="1440" on="1"/>
        <pt x="652" y="1440" on="1"/>
      </contour>
    </TTGlyph>
    <TTGlyph name="asciitilde" xMin="91" yMin="757" xMax="729" yMax="1074">
      <contour>
        <pt x="92" y="932" on="1"/>
        <pt x="125" y="971" on="0"/>
        <pt x="161" y="1003" on="1"/>
        <pt x="192" y="1029" on="0"/>
        <pt x="267" y="1074" on="0"/>
        <pt x="305" y="1074" on="1"/>
        <pt x="343" y="1074" on="0"/>
        <pt x="405" y="1040" on="0"/>
        <pt x="461" y="998" on="0"/>
        <pt x="515" y="964" on="0"/>
        <pt x="546" y="964" on="1"/>
        <pt x="595" y="964" on="0"/>
        <pt x="665" y="998" on="0"/>
        <pt x="687" y="1019" on="1"/>
        <pt x="713" y="1043" on="0"/>
        <pt x="729" y="1074" on="1"/>
        <pt x="729" y="892" on="1"/>
        <pt x="729" y="891" on="0"/>
        <pt x="703" y="848" on="0"/>
        <pt x="654" y="798" on="0"/>
        <pt x="583" y="757" on="0"/>
        <pt x="538" y="757" on="1"/>
        <pt x="504" y="757" on="0"/>
        <pt x="447" y="795" on="0"/>
        <pt x="389" y="840" on="0"/>
        <pt x="325" y="878" on="0"/>
        <pt x="284" y="878" on="1"/>
        <pt x="247" y="878" on="0"/>
        <pt x="178" y="843" on="0"/>
        <pt x="151" y="823" on="1"/>
        <pt x="119" y="798" on="0"/>
        <pt x="91" y="768" on="1"/>
      </contour>
    </TTGlyph>
    <TTGlyph name="asterisk" xMin="50" yMin="428" xMax="1002" yMax="1392">
      <contour>
        <pt x="657" y="1392" on="1"/>
        <pt x="606" y="1030" on="1"/>
        <pt x="922" y="1182" on="1"/>
        <pt x="1002" y="909" on="1"/>
        <pt x="652" y="855" on="1"/>
        <pt x="914" y="595" on="1"/>
        <pt x="687" y="428" on="1"/>
        <pt x="526" y="748" on="1"/>
        <pt x="365" y="428" on="1"/>
        <pt x="138" y="595" on="1"/>
        <pt x="400" y="855" on="1"/>
        <pt x="50" y="909" on="1"/>
        <pt x="130" y="1182" on="1"/>
        <pt x="446" y="1030" on="1"/>
        <pt x="395" y="1392" on="1"/>
      </contour>
    </TTGlyph>
    <TTGlyph name="at" xMin="55" yMin="-32" xMax="1526" yMax="1452">
      <contour>
        <pt x="1526" y="775" on="1"/>
        <pt x="1526" y="675" on="0"/>
        <pt x="1482" y="517" on="0"/>
        <pt x="1398" y="407" on="0"/>
        <pt x="1277" y="348" on="0"/>
        <pt x="1199" y="348" on="1"/>
        <pt x="1185" y="348" on="0"/>
        <pt x="1130" y="356" on="0"/>
        <pt x="1069" y="389" on="0"/>
        <pt x="1011" y="453" on="0"/>
        <pt x="994" y="510" on="1"/>
        <pt x="943" y="416" on="0"/>
        <pt x="811" y="324" on="0"/>
        <pt x="739" y="324" on="1"/>
        <pt x="685" y="324" on="0"/>
        <pt x="582" y="370" on="0"/>
        <pt x="502" y="463" on="0"/>
        <pt x="454" y="604" on="0"/>
        <pt x="454" y="699" on="1"/>
        <pt x="454" y="798" on="0"/>
        <pt x="503" y="938" on="0"/>
        <pt x="582" y="1027" on="0"/>
        <pt x="681" y="1068" on="0"/>
        <pt x="731" y="1068" on="1"/>
        <pt x="766" y="1068" on="0"/>
        <pt x="833" y="1051" on="0"/>
        <pt x="891" y="1018" on="0"/>
        <pt x="939" y="971" on="0"/>
        <pt x="954" y="941" on="1"/>
        <pt x="990" y="1050" on="1"/>
        <pt x="1147" y="1050" on="1"/>
        <pt x="1147" y="581" on="1"/>
        <pt x="1147" y="521" on="0"/>
        <pt x="1183" y="469" on="0"/>
        <pt x="1210" y="469" on="1"/>
        <pt x="1242" y="469" on="0"/>
        <pt x="1285" y="503" on="0"/>
        <pt x="1313" y="558" on="0"/>
        <pt x="1328" y="627" on="0"/>
        <pt x="1335" y="695" on="0"/>
        <pt x="1336" y="755" on="0"/>
        <pt x="1336" y="775" on="1"/>
        <pt x="1336" y="895" on="0"/>
        <pt x="1260" y="1076" on="0"/>
        <pt x="1123" y="1197" on="0"/>
        <pt x="932" y="1258" on="0"/>
        <pt x="818" y="1258" on="1"/>
        <pt x="729" y="1258" on="0"/>
        <pt x="579" y="1211" on="0"/>
        <pt x="460" y="1128" on="0"/>
        <pt x="370" y="1016" on="0"/>
        <pt x="309" y="885" on="0"/>
        <pt x="279" y="742" on="0"/>
        <pt x="279" y="671" on="1"/>
        <pt x="279" y="571" on="0"/>
        <pt x="337" y="384" on="0"/>
        <pt x="457" y="239" on="0"/>
        <pt x="642" y="151" on="0"/>
        <pt x="769" y="151" on="1"/>
        <pt x="863" y="151" on="0"/>
        <pt x="1075" y="210" on="0"/>
        <pt x="1205" y="274" on="1"/>
        <pt x="1277" y="124" on="1"/>
        <pt x="1130" y="43" on="0"/>
        <pt x="871" y="-32" on="0"/>
        <pt x="753" y="-32" on="1"/>
        <pt x="574" y="-32" on="0"/>
        <pt x="311" y="86" on="0"/>
        <pt x="139" y="281" on="0"/>
        <pt x="55" y="532" on="0"/>
        <pt x="55" y="666" on="1"/>
        <pt x="55" y="762" on="0"/>
        <pt x="100" y="954" on="0"/>
        <pt x="187" y="1128" on="0"/>
        <pt x="317" y="1279" on="0"/>
        <pt x="487" y="1389" on="0"/>
        <pt x="696" y="1452" on="0"/>
        <pt x="819" y="1452" on="1"/>
        <pt x="907" y="1452" on="0"/>
        <pt x="1081" y="1414" on="0"/>
        <pt x="1238" y="1338" on="0"/>
        <pt x="1372" y="1225" on="0"/>
        <pt x="1470" y="1075" on="0"/>
        <pt x="1526" y="887" on="0"/>
      </contour>
      <contour>
        <pt x="924" y="844" on="1"/>
        <pt x="858" y="911" on="0"/>
        <pt x="806" y="911" on="1"/>
        <pt x="779" y="911" on="0"/>
        <pt x="735" y="880" on="0"/>
        <pt x="704" y="825" on="0"/>
        <pt x="688" y="747" on="0"/>
        <pt x="688" y="699" on="1"/>
        <pt x="688" y="652" on="0"/>
        <pt x="707" y="581" on="0"/>
        <pt x="739" y="534" on="0"/>
        <pt x="780" y="511" on="0"/>
        <pt x="803" y="511" on="1"/>
        <pt x="836" y="511" on="0"/>
        <pt x="902" y="568" on="0"/>
        <pt x="924" y="625" on="1"/>
      </contour>
    </TTGlyph>
    <TTGlyph name="atilde" xMin="56" yMin="-27" xMax="882" yMax="1537">
      <component glyphName="a" x="0" y="0" flags="0x204"/>
      <component glyphName="tilde" x="45" y="0" flags="0x4"/>
    </TTGlyph>
    <TTGlyph name="b" xMin="123" yMin="-27" xMax="989" yMax="1536">
      <contour>
        <pt x="123" y="12" on="1"/>
        <pt x="123" y="1500" on="1"/>
        <pt x="411" y="1536" on="1"/>
        <pt x="411" y="1005" on="1"/>
        <pt x="444" y="1041" on="0"/>
        <pt x="518" y="1101" on="0"/>
        <pt x="594" y="1143" on="0"/>
        <pt x="672" y="1167" on="0"/>
        <pt x="709" y="1167" on="1"/>
        <pt x="766" y="1167" on="0"/>
        <pt x="868" y="1105" on="0"/>
        <pt x="944" y="966" on="0"/>
        <pt x="989" y="740" on="0"/>
        <pt x="989" y="576" on="1"/>
        <pt x="989" y="420" on="0"/>
        <pt x="945" y="193" on="0"/>
        <pt x="860" y="44" on="0"/>
        <pt x="737" y="-27" on="0"/>
        <pt x="658" y="-27" on="1"/>
        <pt x="618" y="-27" on="0"/>
        <pt x="555" y="-13" on="0"/>
        <pt x="505" y="11" on="0"/>
        <pt x="468" y="42" on="0"/>
        <pt x="455" y="58" on="1"/>
        <pt x="424" y="96" on="0"/>
        <pt x="411" y="144" on="1"/>
        <pt x="341" y="-12" on="1"/>
      </contour>
      <contour>
        <pt x="411" y="480" on="1"/>
        <pt x="411" y="390" on="0"/>
        <pt x="435" y="273" on="0"/>
        <pt x="475" y="206" on="0"/>
        <pt x="525" y="179" on="0"/>
        <pt x="551" y="179" on="1"/>
        <pt x="604" y="179" on="0"/>
        <pt x="664" y="243" on="0"/>
        <pt x="694" y="352" on="0"/>
        <pt x="701" y="496" on="0"/>
        <pt x="701" y="576" on="1"/>
        <pt x="701" y="649" on="0"/>
        <pt x="696" y="775" on="0"/>
        <pt x="677" y="868" on="0"/>
        <pt x="637" y="922" on="0"/>
        <pt x="601" y="922" on="1"/>
        <pt x="575" y="922" on="0"/>
        <pt x="509" y="897" on="0"/>
        <pt x="480" y="882" on="1"/>
        <pt x="446" y="864" on="0"/>
        <pt x="411" y="843" on="1"/>
      </contour>
    </TTGlyph>
    <TTGlyph name="backslash" xMin="63" yMin="0" xMax="564" yMax="1536">
      <contour>
        <pt x="564" y="0" on="1"/>
        <pt x="264" y="0" on="1"/>
        <pt x="63" y="1536" on="1"/>
        <pt x="363" y="1536" on="1"/>
      </contour>
    </TTGlyph>
    <TTGlyph name="bar" xMin="141" yMin="-96" xMax="441" yMax="1632">
      <contour>
        <pt x="141" y="1632" on="1"/>
        <pt x="441" y="1632" on="1"/>
        <pt x="441" y="-96" on="1"/>
        <pt x="141" y="-96" on="1"/>
      </contour>
    </TTGlyph>
    <TTGlyph name="braceleft" xMin="45" yMin="-87" xMax="621" yMax="1632">
      <contour>
        <pt x="141" y="551" on="1"/>
        <pt x="141" y="575" on="0"/>
        <pt x="138" y="625" on="0"/>
        <pt x="120" y="667" on="0"/>
        <pt x="81" y="693" on="0"/>
        <pt x="45" y="693" on="1"/>
        <pt x="45" y="882" on="1"/>
        <pt x="81" y="882" on="0"/>
        <pt x="120" y="908" on="0"/>
        <pt x="138" y="950" on="0"/>
        <pt x="141" y="1000" on="0"/>
        <pt x="141" y="1024" on="1"/>
        <pt x="141" y="1171" on="0"/>
        <pt x="183" y="1398" on="0"/>
        <pt x="291" y="1552" on="0"/>
        <pt x="477" y="1632" on="0"/>
        <pt x="621" y="1632" on="1"/>
        <pt x="621" y="1470" on="1"/>
        <pt x="549" y="1470" on="0"/>
        <pt x="471" y="1416" on="0"/>
        <pt x="435" y="1305" on="0"/>
        <pt x="429" y="1137" on="0"/>
        <pt x="429" y="1024" on="1"/>
        <pt x="429" y="994" on="0"/>
        <pt x="423" y="931" on="0"/>
        <pt x="387" y="869" on="0"/>
        <pt x="309" y="812" on="0"/>
        <pt x="237" y="787" on="1"/>
        <pt x="309" y="763" on="0"/>
        <pt x="387" y="706" on="0"/>
        <pt x="423" y="644" on="0"/>
        <pt x="429" y="581" on="0"/>
        <pt x="429" y="551" on="1"/>
        <pt x="429" y="430" on="0"/>
        <pt x="435" y="251" on="0"/>
        <pt x="471" y="133" on="0"/>
        <pt x="549" y="75" on="0"/>
        <pt x="621" y="75" on="1"/>
        <pt x="621" y="-87" on="1"/>
        <pt x="477" y="-87" on="0"/>
        <pt x="291" y="-3" on="0"/>
        <pt x="183" y="159" on="0"/>
        <pt x="141" y="397" on="0"/>
      </contour>
    </TTGlyph>
    <TTGlyph name="braceright" xMin="52" yMin="-87" xMax="628" yMax="1632">
      <contour>
        <pt x="532" y="551" on="1"/>
        <pt x="532" y="397" on="0"/>
        <pt x="490" y="159" on="0"/>
        <pt x="382" y="-3" on="0"/>
        <pt x="196" y="-87" on="0"/>
        <pt x="52" y="-87" on="1"/>
        <pt x="52" y="75" on="1"/>
        <pt x="124" y="75" on="0"/>
        <pt x="202" y="133" on="0"/>
        <pt x="238" y="251" on="0"/>
        <pt x="244" y="430" on="0"/>
        <pt x="244" y="551" on="1"/>
        <pt x="244" y="581" on="0"/>
        <pt x="250" y="644" on="0"/>
        <pt x="286" y="706" on="0"/>
        <pt x="364" y="763" on="0"/>
        <pt x="436" y="787" on="1"/>
        <pt x="364" y="812" on="0"/>
        <pt x="286" y="869" on="0"/>
        <pt x="250" y="931" on="0"/>
        <pt x="244" y="994" on="0"/>
        <pt x="244" y="1024" on="1"/>
        <pt x="244" y="1137" on="0"/>
        <pt x="238" y="1305" on="0"/>
        <pt x="202" y="1416" on="0"/>
        <pt x="124" y="1470" on="0"/>
        <pt x="52" y="1470" on="1"/>
        <pt x="52" y="1632" on="1"/>
        <pt x="196" y="1632" on="0"/>
        <pt x="382" y="1552" on="0"/>
        <pt x="490" y="1398" on="0"/>
        <pt x="532" y="1171" on="0"/>
        <pt x="532" y="1024" on="1"/>
        <pt x="532" y="1000" on="0"/>
        <pt x="535" y="950" on="0"/>
        <pt x="553" y="908" on="0"/>
        <pt x="592" y="882" on="0"/>
        <pt x="628" y="882" on="1"/>
        <pt x="628" y="693" on="1"/>
        <pt x="592" y="693" on="0"/>
        <pt x="553" y="667" on="0"/>
        <pt x="535" y="625" on="0"/>
        <pt x="532" y="575" on="0"/>
      </contour>
    </TTGlyph>
    <TTGlyph name="bracketleft" xMin="141" yMin="-96" xMax="633" yMax="1632">
      <contour>
        <pt x="141" y="1632" on="1"/>
        <pt x="633" y="1632" on="1"/>
        <pt x="633" y="1440" on="1"/>
        <pt x="441" y="1440" on="1"/>
        <pt x="441" y="95" on="1"/>
        <pt x="633" y="95" on="1"/>
        <pt x="633" y="-96" on="1"/>
        <pt x="141" y="-96" on="1"/>
      </contour>
    </TTGlyph>
    <TTGlyph name="bracketright" xMin="60" yMin="-96" xMax="552" yMax="1632">
      <contour>
        <pt x="552" y="-96" on="1"/>
        <pt x="60" y="-96" on="1"/>
        <pt x="60" y="95" on="1"/>
        <pt x="252" y="95" on="1"/>
        <pt x="252" y="1440" on="1"/>
        <pt x="60" y="1440" on="1"/>
        <pt x="60" y="1632" on="1"/>
        <pt x="552" y="1632" on="1"/>
      </contour>
    </TTGlyph>
    <TTGlyph name="breve" xMin="77" yMin="1248" xMax="941" yMax="1728">
      <contour>
        <pt x="317" y="1728" on="1"/>
        <pt x="317" y="1692" on="0"/>
        <pt x="323" y="1608" on="0"/>
        <pt x="359" y="1536" on="0"/>
        <pt x="437" y="1488" on="0"/>
        <pt x="509" y="1488" on="1"/>
        <pt x="581" y="1488" on="0"/>
        <pt x="659" y="1536" on="0"/>
        <pt x="695" y="1608" on="0"/>
        <pt x="701" y="1692" on="0"/>
        <pt x="701" y="1728" on="1"/>
        <pt x="941" y="1728" on="1"/>
        <pt x="941" y="1682" on="0"/>
        <pt x="924" y="1576" on="0"/>
        <pt x="884" y="1469" on="0"/>
        <pt x="818" y="1370" on="0"/>
        <pt x="722" y="1294" on="0"/>
        <pt x="593" y="1248" on="0"/>
        <pt x="509" y="1248" on="1"/>
        <pt x="425" y="1248" on="0"/>
        <pt x="296" y="1294" on="0"/>
        <pt x="200" y="1370" on="0"/>
        <pt x="134" y="1469" on="0"/>
        <pt x="94" y="1576" on="0"/>
        <pt x="77" y="1682" on="0"/>
        <pt x="77" y="1728" on="1"/>
      </contour>
    </TTGlyph>
    <TTGlyph name="brokenbar" xMin="145" yMin="-96" xMax="445" yMax="1632">
      <contour>
        <pt x="145" y="576" on="1"/>
        <pt x="445" y="576" on="1"/>
        <pt x="445" y="-96" on="1"/>
        <pt x="145" y="-96" on="1"/>
      </contour>
      <contour>
        <pt x="145" y="1632" on="1"/>
        <pt x="445" y="1632" on="1"/>
        <pt x="445" y="960" on="1"/>
        <pt x="145" y="960" on="1"/>
      </contour>
    </TTGlyph>
    <TTGlyph name="bullet" xMin="72" yMin="385" xMax="745" yMax="1056">
      <contour>
        <pt x="72" y="720" on="1"/>
        <pt x="72" y="792" on="0"/>
        <pt x="115" y="915" on="0"/>
        <pt x="201" y="1005" on="0"/>
        <pt x="330" y="1056" on="0"/>
        <pt x="416" y="1056" on="1"/>
        <pt x="496" y="1056" on="0"/>
        <pt x="619" y="1005" on="0"/>
        <pt x="702" y="915" on="0"/>
        <pt x="745" y="792" on="0"/>
        <pt x="745" y="720" on="1"/>
        <pt x="745" y="648" on="0"/>
        <pt x="702" y="525" on="0"/>
        <pt x="619" y="436" on="0"/>
        <pt x="496" y="385" on="0"/>
        <pt x="416" y="385" on="1"/>
        <pt x="330" y="385" on="0"/>
        <pt x="201" y="436" on="0"/>
        <pt x="115" y="525" on="0"/>
        <pt x="72" y="648" on="0"/>
      </contour>
    </TTGlyph>
    <TTGlyph name="c" xMin="68" yMin="-27" xMax="854" yMax="1167">
      <contour>
        <pt x="847" y="405" on="1"/>
        <pt x="835" y="310" on="0"/>
        <pt x="790" y="151" on="0"/>
        <pt x="707" y="37" on="0"/>
        <pt x="577" y="-27" on="0"/>
        <pt x="480" y="-27" on="1"/>
        <pt x="411" y="-27" on="0"/>
        <pt x="297" y="18" on="0"/>
        <pt x="205" y="99" on="0"/>
        <pt x="137" y="211" on="0"/>
        <pt x="91" y="343" on="0"/>
        <pt x="68" y="490" on="0"/>
        <pt x="68" y="566" on="1"/>
        <pt x="68" y="677" on="0"/>
        <pt x="117" y="892" on="0"/>
        <pt x="219" y="1062" on="0"/>
        <pt x="377" y="1167" on="0"/>
        <pt x="486" y="1167" on="1"/>
        <pt x="565" y="1167" on="0"/>
        <pt x="698" y="1107" on="0"/>
        <pt x="795" y="997" on="0"/>
        <pt x="851" y="845" on="0"/>
        <pt x="854" y="754" on="1"/>
        <pt x="581" y="742" on="1"/>
        <pt x="578" y="767" on="0"/>
        <pt x="570" y="834" on="0"/>
        <pt x="550" y="896" on="0"/>
        <pt x="513" y="939" on="0"/>
        <pt x="483" y="939" on="1"/>
        <pt x="451" y="939" on="0"/>
        <pt x="408" y="899" on="0"/>
        <pt x="380" y="834" on="0"/>
        <pt x="365" y="753" on="0"/>
        <pt x="358" y="672" on="0"/>
        <pt x="357" y="600" on="0"/>
        <pt x="357" y="576" on="1"/>
        <pt x="357" y="552" on="0"/>
        <pt x="358" y="480" on="0"/>
        <pt x="366" y="400" on="0"/>
        <pt x="382" y="320" on="0"/>
        <pt x="412" y="256" on="0"/>
        <pt x="458" y="216" on="0"/>
        <pt x="492" y="216" on="1"/>
        <pt x="513" y="216" on="0"/>
        <pt x="545" y="235" on="0"/>
        <pt x="569" y="265" on="0"/>
        <pt x="586" y="304" on="0"/>
        <pt x="592" y="324" on="1"/>
        <pt x="605" y="372" on="0"/>
        <pt x="607" y="432" on="1"/>
      </contour>
    </TTGlyph>
    <TTGlyph name="cacute" xMin="68" yMin="-27" xMax="854" yMax="1793">
      <component glyphName="c" x="0" y="0" flags="0x204"/>
      <component glyphName="acute" x="128" y="0" flags="0x4"/>
    </TTGlyph>
    <TTGlyph name="caron" xMin="32" yMin="1248" xMax="704" yMax="1728">
      <contour>
        <pt x="242" y="1728" on="1"/>
        <pt x="358" y="1438" on="1"/>
        <pt x="454" y="1728" on="1"/>
        <pt x="704" y="1728" on="1"/>
        <pt x="474" y="1248" on="1"/>
        <pt x="272" y="1248" on="1"/>
        <pt x="32" y="1728" on="1"/>
      </contour>
    </TTGlyph>
    <TTGlyph name="ccaron" xMin="68" yMin="-27" xMax="854" yMax="1728">
      <component glyphName="c" x="0" y="0" flags="0x204"/>
      <component glyphName="caron" x="87" y="0" flags="0x4"/>
    </TTGlyph>
    <TTGlyph name="ccedilla" xMin="69" yMin="-556" xMax="855" yMax="1167">
      <component glyphName="c" x="1" y="0" flags="0x4"/>
      <component glyphName="cedilla" x="230" y="0" flags="0x4"/>
    </TTGlyph>
    <TTGlyph name="ccircumflex" xMin="68" yMin="-27" xMax="854" yMax="1728">
      <component glyphName="c" x="0" y="0" flags="0x204"/>
      <component glyphName="circumflex" x="87" y="0" flags="0x4"/>
    </TTGlyph>
    <TTGlyph name="cdotaccent" xMin="68" yMin="-27" xMax="854" yMax="1538">
      <component glyphName="c" x="0" y="0" flags="0x204"/>
      <component glyphName="dotaccent" x="149" y="0" flags="0x4"/>
    </TTGlyph>
    <TTGlyph name="cedilla" xMin="76" yMin="-556" xMax="522" yMax="48">
      <contour>
        <pt x="164" y="48" on="1"/>
        <pt x="316" y="48" on="1"/>
        <pt x="286" y="-76" on="1"/>
        <pt x="347" y="-93" on="0"/>
        <pt x="429" y="-145" on="0"/>
        <pt x="481" y="-201" on="0"/>
        <pt x="509" y="-258" on="0"/>
        <pt x="521" y="-305" on="0"/>
        <pt x="522" y="-336" on="0"/>
        <pt x="522" y="-339" on="1"/>
        <pt x="522" y="-399" on="0"/>
        <pt x="486" y="-481" on="0"/>
        <pt x="426" y="-533" on="0"/>
        <pt x="348" y="-556" on="0"/>
        <pt x="306" y="-556" on="1"/>
        <pt x="241" y="-556" on="0"/>
        <pt x="118" y="-521" on="0"/>
        <pt x="76" y="-492" on="1"/>
        <pt x="76" y="-327" on="1"/>
        <pt x="120" y="-347" on="0"/>
        <pt x="191" y="-363" on="0"/>
        <pt x="220" y="-363" on="1"/>
        <pt x="272" y="-363" on="0"/>
        <pt x="316" y="-319" on="0"/>
        <pt x="316" y="-289" on="1"/>
        <pt x="316" y="-269" on="0"/>
        <pt x="294" y="-227" on="0"/>
        <pt x="247" y="-193" on="0"/>
        <pt x="175" y="-171" on="0"/>
        <pt x="124" y="-171" on="1"/>
      </contour>
    </TTGlyph>
    <TTGlyph name="cent" xMin="52" yMin="-192" xMax="928" yMax="1344">
      <contour>
        <pt x="439" y="-16" on="1"/>
        <pt x="341" y="4" on="0"/>
        <pt x="196" y="115" on="0"/>
        <pt x="100" y="272" on="0"/>
        <pt x="52" y="464" on="0"/>
        <pt x="52" y="566" on="1"/>
        <pt x="52" y="669" on="0"/>
        <pt x="98" y="871" on="0"/>
        <pt x="192" y="1036" on="0"/>
        <pt x="338" y="1148" on="0"/>
        <pt x="439" y="1162" on="1"/>
        <pt x="439" y="1344" on="1"/>
        <pt x="578" y="1344" on="1"/>
        <pt x="578" y="1161" on="1"/>
        <pt x="655" y="1149" on="0"/>
        <pt x="781" y="1080" on="0"/>
        <pt x="873" y="974" on="0"/>
        <pt x="925" y="835" on="0"/>
        <pt x="928" y="754" on="1"/>
        <pt x="655" y="742" on="1"/>
        <pt x="652" y="761" on="0"/>
        <pt x="643" y="809" on="0"/>
        <pt x="626" y="859" on="0"/>
        <pt x="599" y="903" on="0"/>
        <pt x="578" y="918" on="1"/>
        <pt x="578" y="218" on="1"/>
        <pt x="597" y="222" on="0"/>
        <pt x="626" y="246" on="0"/>
        <pt x="647" y="277" on="0"/>
        <pt x="662" y="315" on="0"/>
        <pt x="667" y="334" on="1"/>
        <pt x="678" y="378" on="0"/>
        <pt x="681" y="432" on="1"/>
        <pt x="921" y="405" on="1"/>
        <pt x="909" y="314" on="0"/>
        <pt x="866" y="161" on="0"/>
        <pt x="788" y="48" on="0"/>
        <pt x="667" y="-19" on="0"/>
        <pt x="578" y="-25" on="1"/>
        <pt x="578" y="-192" on="1"/>
        <pt x="439" y="-192" on="1"/>
      </contour>
      <contour>
        <pt x="341" y="576" on="1"/>
        <pt x="341" y="548" on="0"/>
        <pt x="344" y="461" on="0"/>
        <pt x="362" y="368" on="0"/>
        <pt x="402" y="280" on="0"/>
        <pt x="439" y="252" on="1"/>
        <pt x="439" y="920" on="1"/>
        <pt x="414" y="904" on="0"/>
        <pt x="381" y="852" on="0"/>
        <pt x="359" y="789" on="0"/>
        <pt x="347" y="720" on="0"/>
        <pt x="342" y="654" on="0"/>
        <pt x="341" y="596" on="0"/>
      </contour>
    </TTGlyph>
    <TTGlyph name="circumflex" xMin="32" yMin="1248" xMax="704" yMax="1728">
      <contour>
        <pt x="32" y="1248" on="1"/>
        <pt x="272" y="1728" on="1"/>
        <pt x="474" y="1728" on="1"/>
        <pt x="704" y="1248" on="1"/>
        <pt x="454" y="1248" on="1"/>
        <pt x="358" y="1538" on="1"/>
        <pt x="242" y="1248" on="1"/>
      </contour>
    </TTGlyph>
    <TTGlyph name="colon" xMin="114" yMin="-12" xMax="402" yMax="864">
      <contour>
        <pt x="402" y="288" on="1"/>
        <pt x="402" y="0" on="1"/>
        <pt x="114" y="-12" on="1"/>
        <pt x="114" y="288" on="1"/>
      </contour>
      <contour>
        <pt x="402" y="864" on="1"/>
        <pt x="402" y="576" on="1"/>
        <pt x="114" y="576" on="1"/>
        <pt x="114" y="864" on="1"/>
      </contour>
    </TTGlyph>
    <TTGlyph name="comma" xMin="99" yMin="-288" xMax="387" yMax="288">
      <contour>
        <pt x="387" y="288" on="1"/>
        <pt x="387" y="0" on="1"/>
        <pt x="387" y="-54" on="0"/>
        <pt x="366" y="-136" on="0"/>
        <pt x="333" y="-197" on="0"/>
        <pt x="289" y="-239" on="0"/>
        <pt x="267" y="-252" on="1"/>
        <pt x="214" y="-284" on="0"/>
        <pt x="147" y="-288" on="1"/>
        <pt x="147" y="-96" on="1"/>
        <pt x="183" y="-96" on="0"/>
        <pt x="222" y="-66" on="0"/>
        <pt x="231" y="-48" on="1"/>
        <pt x="242" y="-27" on="0"/>
        <pt x="243" y="0" on="1"/>
        <pt x="99" y="0" on="1"/>
        <pt x="99" y="288" on="1"/>
      </contour>
    </TTGlyph>
    <TTGlyph name="commaaccent" xMin="102" yMin="96" xMax="390" yMax="672">
      <contour>
        <pt x="390" y="672" on="1"/>
        <pt x="390" y="384" on="1"/>
        <pt x="390" y="330" on="0"/>
        <pt x="369" y="248" on="0"/>
        <pt x="336" y="187" on="0"/>
        <pt x="292" y="145" on="0"/>
        <pt x="270" y="132" on="1"/>
        <pt x="217" y="100" on="0"/>
        <pt x="150" y="96" on="1"/>
        <pt x="150" y="288" on="1"/>
        <pt x="186" y="288" on="0"/>
        <pt x="225" y="318" on="0"/>
        <pt x="234" y="336" on="1"/>
        <pt x="245" y="357" on="0"/>
        <pt x="246" y="384" on="1"/>
        <pt x="102" y="384" on="1"/>
        <pt x="102" y="672" on="1"/>
      </contour>
    </TTGlyph>
    <TTGlyph name="copyright" xMin="54" yMin="0" xMax="1343" yMax="1346">
      <contour>
        <pt x="995" y="582" on="1"/>
        <pt x="995" y="515" on="0"/>
        <pt x="960" y="392" on="0"/>
        <pt x="889" y="298" on="0"/>
        <pt x="780" y="242" on="0"/>
        <pt x="707" y="242" on="1"/>
        <pt x="620" y="242" on="0"/>
        <pt x="500" y="324" on="0"/>
        <pt x="425" y="454" on="0"/>
        <pt x="391" y="612" on="0"/>
        <pt x="391" y="689" on="1"/>
        <pt x="391" y="736" on="0"/>
        <pt x="406" y="834" on="0"/>
        <pt x="437" y="927" on="0"/>
        <pt x="488" y="1009" on="0"/>
        <pt x="559" y="1070" on="0"/>
        <pt x="653" y="1106" on="0"/>
        <pt x="712" y="1106" on="1"/>
        <pt x="778" y="1106" on="0"/>
        <pt x="883" y="1046" on="0"/>
        <pt x="956" y="948" on="0"/>
        <pt x="994" y="826" on="0"/>
        <pt x="994" y="763" on="1"/>
        <pt x="803" y="755" on="1"/>
        <pt x="803" y="759" on="0"/>
        <pt x="801" y="791" on="0"/>
        <pt x="795" y="833" on="0"/>
        <pt x="782" y="879" on="0"/>
        <pt x="759" y="918" on="0"/>
        <pt x="725" y="944" on="0"/>
        <pt x="700" y="944" on="1"/>
        <pt x="664" y="944" on="0"/>
        <pt x="621" y="897" on="0"/>
        <pt x="597" y="823" on="0"/>
        <pt x="589" y="732" on="0"/>
        <pt x="589" y="689" on="1"/>
        <pt x="589" y="633" on="0"/>
        <pt x="598" y="526" on="0"/>
        <pt x="625" y="442" on="0"/>
        <pt x="677" y="391" on="0"/>
        <pt x="720" y="391" on="1"/>
        <pt x="751" y="391" on="0"/>
        <pt x="791" y="431" on="0"/>
        <pt x="814" y="493" on="0"/>
        <pt x="825" y="566" on="0"/>
        <pt x="827" y="598" on="1"/>
      </contour>
      <contour>
        <pt x="187" y="673" on="1"/>
        <pt x="187" y="561" on="0"/>
        <pt x="268" y="364" on="0"/>
        <pt x="407" y="218" on="0"/>
        <pt x="593" y="133" on="0"/>
        <pt x="699" y="133" on="1"/>
        <pt x="804" y="133" on="0"/>
        <pt x="990" y="218" on="0"/>
        <pt x="1129" y="364" on="0"/>
        <pt x="1210" y="561" on="0"/>
        <pt x="1210" y="673" on="1"/>
        <pt x="1210" y="785" on="0"/>
        <pt x="1129" y="982" on="0"/>
        <pt x="990" y="1128" on="0"/>
        <pt x="804" y="1213" on="0"/>
        <pt x="699" y="1213" on="1"/>
        <pt x="593" y="1213" on="0"/>
        <pt x="407" y="1128" on="0"/>
        <pt x="268" y="982" on="0"/>
        <pt x="187" y="785" on="0"/>
      </contour>
      <contour>
        <pt x="54" y="673" on="1"/>
        <pt x="54" y="766" on="0"/>
        <pt x="100" y="938" on="0"/>
        <pt x="184" y="1088" on="0"/>
        <pt x="302" y="1210" on="0"/>
        <pt x="446" y="1298" on="0"/>
        <pt x="610" y="1346" on="0"/>
        <pt x="699" y="1346" on="1"/>
        <pt x="787" y="1346" on="0"/>
        <pt x="952" y="1298" on="0"/>
        <pt x="1095" y="1210" on="0"/>
        <pt x="1213" y="1088" on="0"/>
        <pt x="1297" y="938" on="0"/>
        <pt x="1343" y="766" on="0"/>
        <pt x="1343" y="673" on="1"/>
        <pt x="1343" y="580" on="0"/>
        <pt x="1297" y="408" on="0"/>
        <pt x="1213" y="258" on="0"/>
        <pt x="1095" y="136" on="0"/>
        <pt x="952" y="48" on="0"/>
        <pt x="787" y="0" on="0"/>
        <pt x="699" y="0" on="1"/>
        <pt x="610" y="0" on="0"/>
        <pt x="446" y="48" on="0"/>
        <pt x="302" y="136" on="0"/>
        <pt x="184" y="258" on="0"/>
        <pt x="100" y="408" on="0"/>
        <pt x="54" y="580" on="0"/>
      </contour>
    </TTGlyph>
    <TTGlyph name="currency" xMin="88" yMin="447" xMax="1128" yMax="1387">
      <contour>
        <pt x="183" y="447" on="1"/>
        <pt x="88" y="556" on="1"/>
        <pt x="228" y="679" on="1"/>
        <pt x="202" y="729" on="0"/>
        <pt x="176" y="846" on="0"/>
        <pt x="176" y="912" on="1"/>
        <pt x="176" y="980" on="0"/>
        <pt x="203" y="1100" on="0"/>
        <pt x="232" y="1151" on="1"/>
        <pt x="88" y="1278" on="1"/>
        <pt x="183" y="1387" on="1"/>
        <pt x="326" y="1261" on="1"/>
        <pt x="378" y="1300" on="0"/>
        <pt x="518" y="1343" on="0"/>
        <pt x="608" y="1343" on="1"/>
        <pt x="698" y="1343" on="0"/>
        <pt x="837" y="1299" on="0"/>
        <pt x="889" y="1260" on="1"/>
        <pt x="1033" y="1387" on="1"/>
        <pt x="1128" y="1278" on="1"/>
        <pt x="983" y="1150" on="1"/>
        <pt x="1011" y="1099" on="0"/>
        <pt x="1038" y="979" on="0"/>
        <pt x="1038" y="912" on="1"/>
        <pt x="1038" y="846" on="0"/>
        <pt x="1012" y="730" on="0"/>
        <pt x="986" y="680" on="1"/>
        <pt x="1128" y="556" on="1"/>
        <pt x="1033" y="447" on="1"/>
        <pt x="894" y="569" on="1"/>
        <pt x="841" y="527" on="0"/>
        <pt x="699" y="482" on="0"/>
        <pt x="607" y="482" on="1"/>
        <pt x="515" y="482" on="0"/>
        <pt x="373" y="527" on="0"/>
        <pt x="321" y="568" on="1"/>
      </contour>
      <contour>
        <pt x="607" y="698" on="1"/>
        <pt x="798" y="698" on="0"/>
        <pt x="798" y="912" on="1"/>
        <pt x="798" y="1127" on="0"/>
        <pt x="607" y="1127" on="1"/>
        <pt x="416" y="1127" on="0"/>
        <pt x="416" y="912" on="1"/>
        <pt x="416" y="698" on="0"/>
      </contour>
    </TTGlyph>
    <TTGlyph name="d" xMin="78" yMin="-27" xMax="944" yMax="1536">
      <contour>
        <pt x="726" y="-12" on="1"/>
        <pt x="656" y="144" on="1"/>
        <pt x="643" y="96" on="0"/>
        <pt x="612" y="58" on="1"/>
        <pt x="599" y="42" on="0"/>
        <pt x="562" y="11" on="0"/>
        <pt x="512" y="-13" on="0"/>
        <pt x="449" y="-27" on="0"/>
        <pt x="409" y="-27" on="1"/>
        <pt x="330" y="-27" on="0"/>
        <pt x="207" y="44" on="0"/>
        <pt x="122" y="193" on="0"/>
        <pt x="78" y="420" on="0"/>
        <pt x="78" y="576" on="1"/>
        <pt x="78" y="735" on="0"/>
        <pt x="113" y="960" on="0"/>
        <pt x="190" y="1102" on="0"/>
        <pt x="310" y="1167" on="0"/>
        <pt x="395" y="1167" on="1"/>
        <pt x="419" y="1167" on="0"/>
        <pt x="468" y="1153" on="0"/>
        <pt x="514" y="1129" on="0"/>
        <pt x="557" y="1099" on="0"/>
        <pt x="575" y="1083" on="1"/>
        <pt x="618" y="1046" on="0"/>
        <pt x="656" y="1000" on="1"/>
        <pt x="656" y="1500" on="1"/>
        <pt x="944" y="1536" on="1"/>
        <pt x="944" y="12" on="1"/>
      </contour>
      <contour>
        <pt x="656" y="864" on="1"/>
        <pt x="635" y="890" on="0"/>
        <pt x="612" y="910" on="1"/>
        <pt x="592" y="927" on="0"/>
        <pt x="542" y="956" on="0"/>
        <pt x="516" y="956" on="1"/>
        <pt x="463" y="956" on="0"/>
        <pt x="403" y="897" on="0"/>
        <pt x="373" y="794" on="0"/>
        <pt x="366" y="655" on="0"/>
        <pt x="366" y="576" on="1"/>
        <pt x="366" y="496" on="0"/>
        <pt x="373" y="352" on="0"/>
        <pt x="403" y="243" on="0"/>
        <pt x="463" y="179" on="0"/>
        <pt x="516" y="179" on="1"/>
        <pt x="542" y="179" on="0"/>
        <pt x="592" y="206" on="0"/>
        <pt x="632" y="273" on="0"/>
        <pt x="656" y="390" on="0"/>
        <pt x="656" y="480" on="1"/>
      </contour>
    </TTGlyph>
    <TTGlyph name="dagger" xMin="48" yMin="180" xMax="720" yMax="1440">
      <contour>
        <pt x="264" y="1152" on="1"/>
        <pt x="264" y="1428" on="1"/>
        <pt x="504" y="1440" on="1"/>
        <pt x="504" y="1152" on="1"/>
        <pt x="720" y="1152" on="1"/>
        <pt x="708" y="960" on="1"/>
        <pt x="504" y="960" on="1"/>
        <pt x="504" y="192" on="1"/>
        <pt x="264" y="180" on="1"/>
        <pt x="264" y="960" on="1"/>
        <pt x="48" y="960" on="1"/>
        <pt x="60" y="1152" on="1"/>
      </contour>
    </TTGlyph>
    <TTGlyph name="daggerdbl" xMin="76" yMin="180" xMax="748" yMax="1440">
      <contour>
        <pt x="292" y="1152" on="1"/>
        <pt x="292" y="1428" on="1"/>
        <pt x="532" y="1440" on="1"/>
        <pt x="532" y="1152" on="1"/>
        <pt x="748" y="1152" on="1"/>
        <pt x="736" y="960" on="1"/>
        <pt x="532" y="960" on="1"/>
        <pt x="532" y="672" on="1"/>
        <pt x="748" y="672" on="1"/>
        <pt x="736" y="480" on="1"/>
        <pt x="532" y="480" on="1"/>
        <pt x="532" y="192" on="1"/>
        <pt x="292" y="180" on="1"/>
        <pt x="292" y="480" on="1"/>
        <pt x="76" y="480" on="1"/>
        <pt x="88" y="672" on="1"/>
        <pt x="292" y="672" on="1"/>
        <pt x="292" y="960" on="1"/>
        <pt x="76" y="960" on="1"/>
        <pt x="88" y="1152" on="1"/>
      </contour>
    </TTGlyph>
    <TTGlyph name="dcaron" xMin="78" yMin="-27" xMax="1372" yMax="1536">
      <component glyphName="d" x="0" y="0" flags="0x4"/>
      <component glyphName="quoteright" x="997" y="0" flags="0x4"/>
    </TTGlyph>
    <TTGlyph name="dcroat" xMin="78" yMin="-27" xMax="1081" yMax="1536">
      <component glyphName="d" x="0" y="0" flags="0x204"/>
      <component glyphName="hyphen" x="391" y="811" scalex="1.0" scaley="0.806701660156" flags="0x4"/>
    </TTGlyph>
    <TTGlyph name="degree" xMin="68" yMin="387" xMax="852" yMax="1151">
      <contour>
        <pt x="68" y="769" on="1"/>
        <pt x="68" y="851" on="0"/>
        <pt x="118" y="991" on="0"/>
        <pt x="218" y="1093" on="0"/>
        <pt x="368" y="1151" on="0"/>
        <pt x="469" y="1151" on="1"/>
        <pt x="562" y="1151" on="0"/>
        <pt x="705" y="1093" on="0"/>
        <pt x="802" y="991" on="0"/>
        <pt x="852" y="851" on="0"/>
        <pt x="852" y="769" on="1"/>
        <pt x="852" y="687" on="0"/>
        <pt x="802" y="547" on="0"/>
        <pt x="705" y="445" on="0"/>
        <pt x="562" y="387" on="0"/>
        <pt x="469" y="387" on="1"/>
        <pt x="368" y="387" on="0"/>
        <pt x="218" y="445" on="0"/>
        <pt x="118" y="547" on="0"/>
        <pt x="68" y="687" on="0"/>
      </contour>
      <contour>
        <pt x="603" y="769" on="1"/>
        <pt x="603" y="793" on="0"/>
        <pt x="598" y="858" on="0"/>
        <pt x="572" y="918" on="0"/>
        <pt x="517" y="959" on="0"/>
        <pt x="468" y="959" on="1"/>
        <pt x="411" y="959" on="0"/>
        <pt x="349" y="918" on="0"/>
        <pt x="320" y="858" on="0"/>
        <pt x="316" y="793" on="0"/>
        <pt x="316" y="769" on="1"/>
        <pt x="316" y="745" on="0"/>
        <pt x="320" y="680" on="0"/>
        <pt x="349" y="620" on="0"/>
        <pt x="411" y="579" on="0"/>
        <pt x="468" y="579" on="1"/>
        <pt x="517" y="579" on="0"/>
        <pt x="572" y="620" on="0"/>
        <pt x="598" y="680" on="0"/>
        <pt x="603" y="745" on="0"/>
      </contour>
    </TTGlyph>
    <TTGlyph name="dieresis" xMin="162" yMin="1248" xMax="930" yMax="1536">
      <contour>
        <pt x="450" y="1536" on="1"/>
        <pt x="450" y="1248" on="1"/>
        <pt x="162" y="1248" on="1"/>
        <pt x="162" y="1536" on="1"/>
      </contour>
      <contour>
        <pt x="930" y="1536" on="1"/>
        <pt x="930" y="1248" on="1"/>
        <pt x="642" y="1248" on="1"/>
        <pt x="642" y="1536" on="1"/>
      </contour>
    </TTGlyph>
    <TTGlyph name="divide" xMin="64" yMin="-12" xMax="734" yMax="960">
      <contour>
        <pt x="544" y="288" on="1"/>
        <pt x="544" y="0" on="1"/>
        <pt x="256" y="-12" on="1"/>
        <pt x="256" y="288" on="1"/>
      </contour>
      <contour>
        <pt x="544" y="960" on="1"/>
        <pt x="544" y="672" on="1"/>
        <pt x="256" y="672" on="1"/>
        <pt x="256" y="960" on="1"/>
      </contour>
      <contour>
        <pt x="64" y="576" on="1"/>
        <pt x="734" y="576" on="1"/>
        <pt x="734" y="384" on="1"/>
        <pt x="64" y="384" on="1"/>
      </contour>
    </TTGlyph>
    <TTGlyph name="dollar" xMin="48" yMin="-96" xMax="988" yMax="1632">
      <contour>
        <pt x="458" y="29" on="1"/>
        <pt x="380" y="38" on="0"/>
        <pt x="250" y="103" on="0"/>
        <pt x="148" y="204" on="0"/>
        <pt x="72" y="335" on="0"/>
        <pt x="48" y="410" on="1"/>
        <pt x="272" y="529" on="1"/>
        <pt x="289" y="501" on="0"/>
        <pt x="327" y="436" on="0"/>
        <pt x="372" y="374" on="0"/>
        <pt x="425" y="319" on="0"/>
        <pt x="458" y="302" on="1"/>
        <pt x="458" y="657" on="1"/>
        <pt x="311" y="744" on="1"/>
        <pt x="261" y="774" on="0"/>
        <pt x="178" y="842" on="0"/>
        <pt x="118" y="924" on="0"/>
        <pt x="85" y="1019" on="0"/>
        <pt x="85" y="1076" on="1"/>
        <pt x="85" y="1161" on="0"/>
        <pt x="141" y="1307" on="0"/>
        <pt x="240" y="1418" on="0"/>
        <pt x="377" y="1489" on="0"/>
        <pt x="458" y="1501" on="1"/>
        <pt x="458" y="1632" on="1"/>
        <pt x="602" y="1632" on="1"/>
        <pt x="602" y="1501" on="1"/>
        <pt x="724" y="1484" on="0"/>
        <pt x="899" y="1328" on="0"/>
        <pt x="943" y="1194" on="1"/>
        <pt x="709" y="1079" on="1"/>
        <pt x="697" y="1105" on="0"/>
        <pt x="674" y="1155" on="0"/>
        <pt x="650" y="1198" on="0"/>
        <pt x="621" y="1233" on="0"/>
        <pt x="602" y="1245" on="1"/>
        <pt x="602" y="899" on="1"/>
        <pt x="719" y="831" on="1"/>
        <pt x="801" y="783" on="0"/>
        <pt x="904" y="688" on="0"/>
        <pt x="963" y="598" on="0"/>
        <pt x="986" y="515" on="0"/>
        <pt x="988" y="481" on="1"/>
        <pt x="988" y="389" on="0"/>
        <pt x="930" y="236" on="0"/>
        <pt x="827" y="120" on="0"/>
        <pt x="686" y="45" on="0"/>
        <pt x="602" y="32" on="1"/>
        <pt x="602" y="-96" on="1"/>
        <pt x="458" y="-96" on="1"/>
      </contour>
      <contour>
        <pt x="377" y="1107" on="1"/>
        <pt x="377" y="1066" on="0"/>
        <pt x="427" y="1004" on="0"/>
        <pt x="458" y="984" on="1"/>
        <pt x="458" y="1255" on="1"/>
        <pt x="416" y="1237" on="0"/>
        <pt x="377" y="1156" on="0"/>
      </contour>
      <contour>
        <pt x="682" y="434" on="1"/>
        <pt x="682" y="479" on="0"/>
        <pt x="636" y="546" on="0"/>
        <pt x="602" y="571" on="1"/>
        <pt x="602" y="296" on="1"/>
        <pt x="637" y="315" on="0"/>
        <pt x="682" y="390" on="0"/>
      </contour>
    </TTGlyph>
    <TTGlyph name="dotaccent" xMin="162" yMin="1249" xMax="450" yMax="1538">
      <contour>
        <pt x="450" y="1538" on="1"/>
        <pt x="450" y="1250" on="1"/>
        <pt x="162" y="1249" on="1"/>
        <pt x="162" y="1536" on="1"/>
      </contour>
    </TTGlyph>
    <TTGlyph name="dotlessi" xMin="124" yMin="-12" xMax="412" yMax="1152">
      <contour>
        <pt x="124" y="1128" on="1"/>
        <pt x="412" y="1152" on="1"/>
        <pt x="412" y="12" on="1"/>
        <pt x="124" y="-12" on="1"/>
      </contour>
    </TTGlyph>
    <TTGlyph name="dotlessj" xMin="-35" yMin="-288" xMax="412" yMax="1152">
      <contour>
        <pt x="-35" y="-96" on="1"/>
        <pt x="21" y="-96" on="0"/>
        <pt x="85" y="-80" on="0"/>
        <pt x="116" y="-45" on="0"/>
        <pt x="124" y="12" on="0"/>
        <pt x="124" y="54" on="1"/>
        <pt x="124" y="1128" on="1"/>
        <pt x="412" y="1152" on="1"/>
        <pt x="412" y="54" on="1"/>
        <pt x="412" y="-27" on="0"/>
        <pt x="404" y="-155" on="0"/>
        <pt x="356" y="-242" on="0"/>
        <pt x="253" y="-288" on="0"/>
        <pt x="157" y="-288" on="1"/>
        <pt x="117" y="-288" on="0"/>
        <pt x="22" y="-279" on="0"/>
        <pt x="-35" y="-269" on="1"/>
      </contour>
    </TTGlyph>
    <TTGlyph name="e" xMin="70" yMin="-27" xMax="915" yMax="1167">
      <contour>
        <pt x="357" y="536" on="1"/>
        <pt x="357" y="482" on="0"/>
        <pt x="371" y="358" on="0"/>
        <pt x="404" y="254" on="0"/>
        <pt x="458" y="185" on="0"/>
        <pt x="497" y="185" on="1"/>
        <pt x="531" y="185" on="0"/>
        <pt x="587" y="239" on="0"/>
        <pt x="629" y="307" on="0"/>
        <pt x="654" y="367" on="0"/>
        <pt x="657" y="373" on="1"/>
        <pt x="875" y="290" on="1"/>
        <pt x="855" y="220" on="0"/>
        <pt x="789" y="104" on="0"/>
        <pt x="695" y="20" on="0"/>
        <pt x="571" y="-27" on="0"/>
        <pt x="492" y="-27" on="1"/>
        <pt x="387" y="-27" on="0"/>
        <pt x="228" y="61" on="0"/>
        <pt x="123" y="219" on="0"/>
        <pt x="70" y="439" on="0"/>
        <pt x="70" y="570" on="1"/>
        <pt x="70" y="702" on="0"/>
        <pt x="124" y="922" on="0"/>
        <pt x="232" y="1080" on="0"/>
        <pt x="394" y="1167" on="0"/>
        <pt x="502" y="1167" on="1"/>
        <pt x="605" y="1167" on="0"/>
        <pt x="759" y="1080" on="0"/>
        <pt x="863" y="922" on="0"/>
        <pt x="915" y="702" on="0"/>
        <pt x="915" y="570" on="1"/>
        <pt x="911" y="556" on="1"/>
        <pt x="909" y="550" on="0"/>
        <pt x="907" y="539" on="0"/>
        <pt x="907" y="536" on="1"/>
      </contour>
      <contour>
        <pt x="632" y="702" on="1"/>
        <pt x="632" y="759" on="0"/>
        <pt x="617" y="857" on="0"/>
        <pt x="585" y="928" on="0"/>
        <pt x="534" y="969" on="0"/>
        <pt x="497" y="969" on="1"/>
        <pt x="471" y="969" on="0"/>
        <pt x="420" y="928" on="0"/>
        <pt x="381" y="857" on="0"/>
        <pt x="357" y="759" on="0"/>
        <pt x="357" y="702" on="1"/>
      </contour>
    </TTGlyph>
    <TTGlyph name="eacute" xMin="70" yMin="-27" xMax="915" yMax="1793">
      <component glyphName="e" x="0" y="0" flags="0x204"/>
      <component glyphName="acute" x="153" y="0" flags="0x4"/>
    </TTGlyph>
    <TTGlyph name="ebreve" xMin="51" yMin="-27" xMax="915" yMax="1728">
      <component glyphName="e" x="0" y="0" flags="0x204"/>
      <component glyphName="breve" x="-26" y="0" flags="0x4"/>
    </TTGlyph>
    <TTGlyph name="ecaron" xMin="70" yMin="-27" xMax="915" yMax="1728">
      <component glyphName="e" x="0" y="0" flags="0x204"/>
      <component glyphName="caron" x="112" y="0" flags="0x4"/>
    </TTGlyph>
    <TTGlyph name="ecircumflex" xMin="70" yMin="-27" xMax="915" yMax="1728">
      <component glyphName="e" x="0" y="0" flags="0x204"/>
      <component glyphName="circumflex" x="112" y="0" flags="0x4"/>
    </TTGlyph>
    <TTGlyph name="edieresis" xMin="70" yMin="-27" xMax="915" yMax="1536">
      <component glyphName="e" x="0" y="0" flags="0x204"/>
      <component glyphName="dieresis" x="-63" y="0" flags="0x4"/>
    </TTGlyph>
    <TTGlyph name="edotaccent" xMin="70" yMin="-27" xMax="915" yMax="1538">
      <component glyphName="e" x="0" y="0" flags="0x204"/>
      <component glyphName="dotaccent" x="174" y="0" flags="0x4"/>
    </TTGlyph>
    <TTGlyph name="egrave" xMin="70" yMin="-27" xMax="915" yMax="1789">
      <component glyphName="e" x="0" y="0" flags="0x204"/>
      <component glyphName="grave" x="207" y="0" flags="0x4"/>
    </TTGlyph>
    <TTGlyph name="eight" xMin="81" yMin="-27" xMax="1032" yMax="1546">
      <contour>
        <pt x="81" y="371" on="1"/>
        <pt x="81" y="443" on="0"/>
        <pt x="120" y="565" on="0"/>
        <pt x="189" y="666" on="0"/>
        <pt x="282" y="747" on="0"/>
        <pt x="337" y="778" on="1"/>
        <pt x="235" y="838" on="0"/>
        <pt x="126" y="1006" on="0"/>
        <pt x="126" y="1122" on="1"/>
        <pt x="126" y="1218" on="0"/>
        <pt x="195" y="1375" on="0"/>
        <pt x="314" y="1486" on="0"/>
        <pt x="475" y="1546" on="0"/>
        <pt x="567" y="1546" on="1"/>
        <pt x="646" y="1546" on="0"/>
        <pt x="794" y="1497" on="0"/>
        <pt x="908" y="1403" on="0"/>
        <pt x="977" y="1266" on="0"/>
        <pt x="977" y="1178" on="1"/>
        <pt x="977" y="1123" on="0"/>
        <pt x="942" y="1022" on="0"/>
        <pt x="882" y="933" on="0"/>
        <pt x="802" y="859" on="0"/>
        <pt x="757" y="832" on="1"/>
        <pt x="812" y="798" on="0"/>
        <pt x="912" y="720" on="0"/>
        <pt x="988" y="625" on="0"/>
        <pt x="1032" y="510" on="0"/>
        <pt x="1032" y="440" on="1"/>
        <pt x="1032" y="326" on="0"/>
        <pt x="951" y="152" on="0"/>
        <pt x="815" y="34" on="0"/>
        <pt x="638" y="-27" on="0"/>
        <pt x="541" y="-27" on="1"/>
        <pt x="458" y="-27" on="0"/>
        <pt x="294" y="22" on="0"/>
        <pt x="163" y="121" on="0"/>
        <pt x="81" y="271" on="0"/>
      </contour>
      <contour>
        <pt x="369" y="398" on="1"/>
        <pt x="369" y="345" on="0"/>
        <pt x="397" y="269" on="0"/>
        <pt x="446" y="221" on="0"/>
        <pt x="513" y="198" on="0"/>
        <pt x="552" y="198" on="1"/>
        <pt x="588" y="198" on="0"/>
        <pt x="657" y="217" on="0"/>
        <pt x="711" y="258" on="0"/>
        <pt x="744" y="325" on="0"/>
        <pt x="744" y="373" on="1"/>
        <pt x="744" y="409" on="0"/>
        <pt x="724" y="473" on="0"/>
        <pt x="692" y="529" on="0"/>
        <pt x="650" y="575" on="0"/>
        <pt x="629" y="593" on="1"/>
        <pt x="578" y="636" on="0"/>
        <pt x="514" y="667" on="1"/>
        <pt x="473" y="635" on="0"/>
        <pt x="441" y="594" on="1"/>
        <pt x="414" y="559" on="0"/>
        <pt x="369" y="460" on="0"/>
      </contour>
      <contour>
        <pt x="406" y="1165" on="1"/>
        <pt x="406" y="1121" on="0"/>
        <pt x="437" y="1052" on="0"/>
        <pt x="484" y="998" on="0"/>
        <pt x="540" y="955" on="0"/>
        <pt x="566" y="939" on="1"/>
        <pt x="612" y="967" on="0"/>
        <pt x="648" y="1001" on="1"/>
        <pt x="679" y="1030" on="0"/>
        <pt x="731" y="1109" on="0"/>
        <pt x="731" y="1155" on="1"/>
        <pt x="731" y="1186" on="0"/>
        <pt x="706" y="1239" on="0"/>
        <pt x="661" y="1277" on="0"/>
        <pt x="599" y="1298" on="0"/>
        <pt x="563" y="1298" on="1"/>
        <pt x="531" y="1298" on="0"/>
        <pt x="474" y="1278" on="0"/>
        <pt x="431" y="1243" on="0"/>
        <pt x="406" y="1194" on="0"/>
      </contour>
    </TTGlyph>
    <TTGlyph name="ellipsis" xMin="102" yMin="-12" xMax="1534" yMax="288">
      <contour>
        <pt x="390" y="288" on="1"/>
        <pt x="390" y="12" on="1"/>
        <pt x="102" y="-12" on="1"/>
        <pt x="102" y="288" on="1"/>
      </contour>
      <contour>
        <pt x="962" y="288" on="1"/>
        <pt x="962" y="12" on="1"/>
        <pt x="674" y="-12" on="1"/>
        <pt x="674" y="288" on="1"/>
      </contour>
      <contour>
        <pt x="1534" y="288" on="1"/>
        <pt x="1534" y="12" on="1"/>
        <pt x="1246" y="-12" on="1"/>
        <pt x="1246" y="288" on="1"/>
      </contour>
    </TTGlyph>
    <TTGlyph name="emacron" xMin="70" yMin="-27" xMax="915" yMax="1440">
      <component glyphName="e" x="0" y="0" flags="0x204"/>
      <component glyphName="macron" x="30" y="0" flags="0x4"/>
    </TTGlyph>
    <TTGlyph name="emdash" xMin="114" yMin="480" xMax="1266" yMax="718">
      <contour>
        <pt x="114" y="718" on="1"/>
        <pt x="1266" y="718" on="1"/>
        <pt x="1266" y="480" on="1"/>
        <pt x="114" y="480" on="1"/>
      </contour>
    </TTGlyph>
    <TTGlyph name="endash" xMin="114" yMin="480" xMax="690" yMax="718">
      <contour>
        <pt x="114" y="718" on="1"/>
        <pt x="690" y="718" on="1"/>
        <pt x="690" y="480" on="1"/>
        <pt x="114" y="480" on="1"/>
      </contour>
    </TTGlyph>
    <TTGlyph name="eng" xMin="124" yMin="-288" xMax="988" yMax="1167">
      <contour>
        <pt x="541" y="-96" on="1"/>
        <pt x="597" y="-96" on="0"/>
        <pt x="661" y="-80" on="0"/>
        <pt x="692" y="-45" on="0"/>
        <pt x="700" y="12" on="0"/>
        <pt x="700" y="54" on="1"/>
        <pt x="700" y="769" on="1"/>
        <pt x="700" y="854" on="0"/>
        <pt x="642" y="922" on="0"/>
        <pt x="595" y="922" on="1"/>
        <pt x="557" y="922" on="0"/>
        <pt x="462" y="872" on="0"/>
        <pt x="412" y="842" on="1"/>
        <pt x="412" y="12" on="1"/>
        <pt x="124" y="-12" on="1"/>
        <pt x="124" y="1128" on="1"/>
        <pt x="412" y="1152" on="1"/>
        <pt x="412" y="1005" on="1"/>
        <pt x="498" y="1080" on="0"/>
        <pt x="668" y="1167" on="0"/>
        <pt x="742" y="1167" on="1"/>
        <pt x="796" y="1167" on="0"/>
        <pt x="886" y="1126" on="0"/>
        <pt x="951" y="1051" on="0"/>
        <pt x="988" y="943" on="0"/>
        <pt x="988" y="876" on="1"/>
        <pt x="988" y="54" on="1"/>
        <pt x="988" y="-27" on="0"/>
        <pt x="980" y="-155" on="0"/>
        <pt x="932" y="-242" on="0"/>
        <pt x="829" y="-288" on="0"/>
        <pt x="733" y="-288" on="1"/>
        <pt x="693" y="-288" on="0"/>
        <pt x="598" y="-279" on="0"/>
        <pt x="541" y="-269" on="1"/>
      </contour>
    </TTGlyph>
    <TTGlyph name="eogonek" xMin="71" yMin="-385" xMax="916" yMax="1167">
      <component glyphName="e" x="1" y="0" flags="0x4"/>
      <component glyphName="ogonek" x="280" y="0" flags="0x4"/>
    </TTGlyph>
    <TTGlyph name="equal" xMin="114" yMin="288" xMax="690" yMax="910">
      <contour>
        <pt x="114" y="526" on="1"/>
        <pt x="690" y="526" on="1"/>
        <pt x="690" y="288" on="1"/>
        <pt x="114" y="288" on="1"/>
      </contour>
      <contour>
        <pt x="114" y="910" on="1"/>
        <pt x="690" y="910" on="1"/>
        <pt x="690" y="672" on="1"/>
        <pt x="114" y="672" on="1"/>
      </contour>
    </TTGlyph>
    <TTGlyph name="eth" xMin="-8" yMin="-32" xMax="1007" yMax="1568">
      <contour>
        <pt x="329" y="1202" on="1"/>
        <pt x="541" y="1267" on="1"/>
        <pt x="518" y="1300" on="0"/>
        <pt x="486" y="1321" on="1"/>
        <pt x="449" y="1346" on="0"/>
        <pt x="397" y="1346" on="1"/>
        <pt x="357" y="1346" on="0"/>
        <pt x="270" y="1317" on="0"/>
        <pt x="189" y="1274" on="0"/>
        <pt x="121" y="1226" on="0"/>
        <pt x="100" y="1207" on="1"/>
        <pt x="-8" y="1393" on="1"/>
        <pt x="58" y="1448" on="0"/>
        <pt x="167" y="1517" on="0"/>
        <pt x="271" y="1555" on="0"/>
        <pt x="380" y="1568" on="0"/>
        <pt x="448" y="1568" on="1"/>
        <pt x="532" y="1568" on="0"/>
        <pt x="668" y="1497" on="0"/>
        <pt x="720" y="1436" on="1"/>
        <pt x="756" y="1394" on="0"/>
        <pt x="785" y="1342" on="1"/>
        <pt x="943" y="1391" on="1"/>
        <pt x="1007" y="1210" on="1"/>
        <pt x="859" y="1164" on="1"/>
        <pt x="865" y="1146" on="0"/>
        <pt x="870" y="1128" on="1"/>
        <pt x="894" y="1040" on="0"/>
        <pt x="916" y="857" on="0"/>
        <pt x="916" y="774" on="1"/>
        <pt x="916" y="680" on="0"/>
        <pt x="902" y="487" on="0"/>
        <pt x="866" y="308" on="0"/>
        <pt x="802" y="151" on="0"/>
        <pt x="704" y="35" on="0"/>
        <pt x="565" y="-32" on="0"/>
        <pt x="471" y="-32" on="1"/>
        <pt x="376" y="-32" on="0"/>
        <pt x="218" y="50" on="0"/>
        <pt x="105" y="185" on="0"/>
        <pt x="43" y="360" on="0"/>
        <pt x="43" y="452" on="1"/>
        <pt x="43" y="546" on="0"/>
        <pt x="91" y="720" on="0"/>
        <pt x="180" y="855" on="0"/>
        <pt x="307" y="936" on="0"/>
        <pt x="387" y="936" on="1"/>
        <pt x="449" y="936" on="0"/>
        <pt x="576" y="891" on="0"/>
        <pt x="623" y="856" on="1"/>
        <pt x="622" y="898" on="0"/>
        <pt x="618" y="1003" on="0"/>
        <pt x="610" y="1057" on="1"/>
        <pt x="608" y="1072" on="0"/>
        <pt x="605" y="1086" on="1"/>
        <pt x="393" y="1021" on="1"/>
      </contour>
      <contour>
        <pt x="623" y="608" on="1"/>
        <pt x="623" y="613" on="0"/>
        <pt x="622" y="626" on="0"/>
        <pt x="622" y="633" on="1"/>
        <pt x="621" y="641" on="0"/>
        <pt x="621" y="649" on="1"/>
        <pt x="602" y="660" on="0"/>
        <pt x="581" y="670" on="1"/>
        <pt x="563" y="678" on="0"/>
        <pt x="515" y="692" on="0"/>
        <pt x="488" y="692" on="1"/>
        <pt x="444" y="692" on="0"/>
        <pt x="384" y="649" on="0"/>
        <pt x="348" y="579" on="0"/>
        <pt x="332" y="491" on="0"/>
        <pt x="332" y="447" on="1"/>
        <pt x="332" y="414" on="0"/>
        <pt x="345" y="338" on="0"/>
        <pt x="379" y="273" on="0"/>
        <pt x="438" y="230" on="0"/>
        <pt x="484" y="230" on="1"/>
        <pt x="521" y="230" on="0"/>
        <pt x="571" y="269" on="0"/>
        <pt x="602" y="331" on="0"/>
        <pt x="617" y="412" on="0"/>
        <pt x="623" y="496" on="0"/>
        <pt x="623" y="536" on="1"/>
      </contour>
    </TTGlyph>
    <TTGlyph name="exclam" xMin="127" yMin="-12" xMax="415" yMax="1536">
      <contour>
        <pt x="127" y="1536" on="1"/>
        <pt x="415" y="1536" on="1"/>
        <pt x="368" y="448" on="1"/>
        <pt x="176" y="448" on="1"/>
      </contour>
      <contour>
        <pt x="127" y="-12" on="1"/>
        <pt x="127" y="300" on="1"/>
        <pt x="415" y="300" on="1"/>
        <pt x="415" y="0" on="1"/>
      </contour>
    </TTGlyph>
    <TTGlyph name="exclamdown" xMin="127" yMin="-12" xMax="415" yMax="1535">
      <component glyphName="exclam" x="0" y="1524" scalex="1.0" scaley="-0.999938964844" flags="0x4"/>
    </TTGlyph>
    <TTGlyph name="f" xMin="34" yMin="-12" xMax="667" yMax="1546">
      <contour>
        <pt x="176" y="936" on="1"/>
        <pt x="34" y="936" on="1"/>
        <pt x="46" y="1152" on="1"/>
        <pt x="176" y="1152" on="1"/>
        <pt x="176" y="1174" on="1"/>
        <pt x="176" y="1244" on="0"/>
        <pt x="187" y="1377" on="0"/>
        <pt x="242" y="1482" on="0"/>
        <pt x="358" y="1546" on="0"/>
        <pt x="462" y="1546" on="1"/>
        <pt x="515" y="1546" on="0"/>
        <pt x="589" y="1536" on="0"/>
        <pt x="612" y="1531" on="1"/>
        <pt x="639" y="1524" on="0"/>
        <pt x="657" y="1516" on="1"/>
        <pt x="657" y="1344" on="1"/>
        <pt x="594" y="1344" on="1"/>
        <pt x="549" y="1344" on="0"/>
        <pt x="497" y="1314" on="0"/>
        <pt x="471" y="1266" on="0"/>
        <pt x="464" y="1204" on="0"/>
        <pt x="464" y="1173" on="1"/>
        <pt x="464" y="1152" on="1"/>
        <pt x="667" y="1152" on="1"/>
        <pt x="655" y="936" on="1"/>
        <pt x="464" y="936" on="1"/>
        <pt x="464" y="12" on="1"/>
        <pt x="176" y="-12" on="1"/>
      </contour>
    </TTGlyph>
    <TTGlyph name="f_f" xMin="34" yMin="-12" xMax="1421" yMax="1546">
      <component glyphName="f" x="0" y="0" flags="0x4"/>
      <component glyphName="f" x="754" y="0" flags="0x4"/>
    </TTGlyph>
    <TTGlyph name="f_f_i" xMin="34" yMin="-12" xMax="1421" yMax="1546">
      <component glyphName="f" x="0" y="0" flags="0x4"/>
      <component glyphName="f" x="754" y="0" flags="0x4"/>
    </TTGlyph>
    <TTGlyph name="f_f_l" xMin="34" yMin="-12" xMax="1970" yMax="1546">
      <component glyphName="f" x="0" y="0" flags="0x4"/>
      <component glyphName="f" x="754" y="0" flags="0x4"/>
      <component glyphName="l" x="1558" y="0" flags="0x4"/>
    </TTGlyph>
    <TTGlyph name="f_f_l.001" xMin="34" yMin="-12" xMax="1970" yMax="1546">
      <component glyphName="f" x="0" y="0" flags="0x4"/>
      <component glyphName="f" x="754" y="0" flags="0x4"/>
      <component glyphName="l" x="1558" y="0" flags="0x4"/>
    </TTGlyph>
    <TTGlyph name="fi" xMin="35" yMin="-12" xMax="1163" yMax="1600">
      <contour>
        <pt x="875" y="915" on="1"/>
        <pt x="465" y="915" on="1"/>
        <pt x="465" y="12" on="1"/>
        <pt x="177" y="-12" on="1"/>
        <pt x="177" y="917" on="1"/>
        <pt x="35" y="917" on="1"/>
        <pt x="59" y="1152" on="1"/>
        <pt x="177" y="1152" on="1"/>
        <pt x="177" y="1174" on="1"/>
        <pt x="177" y="1244" on="0"/>
        <pt x="188" y="1377" on="0"/>
        <pt x="243" y="1482" on="0"/>
        <pt x="359" y="1546" on="0"/>
        <pt x="463" y="1546" on="1"/>
        <pt x="516" y="1546" on="0"/>
        <pt x="590" y="1536" on="0"/>
        <pt x="613" y="1531" on="1"/>
        <pt x="640" y="1524" on="0"/>
        <pt x="658" y="1516" on="1"/>
        <pt x="658" y="1344" on="1"/>
        <pt x="595" y="1344" on="1"/>
        <pt x="550" y="1344" on="0"/>
        <pt x="498" y="1314" on="0"/>
        <pt x="472" y="1266" on="0"/>
        <pt x="465" y="1204" on="0"/>
        <pt x="465" y="1173" on="1"/>
        <pt x="465" y="1152" on="1"/>
        <pt x="1163" y="1152" on="1"/>
        <pt x="1163" y="12" on="1"/>
        <pt x="875" y="-12" on="1"/>
      </contour>
      <contour>
        <pt x="1163" y="1600" on="1"/>
        <pt x="1163" y="1300" on="1"/>
        <pt x="875" y="1288" on="1"/>
        <pt x="875" y="1600" on="1"/>
      </contour>
    </TTGlyph>
    <TTGlyph name="five" xMin="78" yMin="-25" xMax="983" yMax="1536">
      <contour>
        <pt x="309" y="434" on="1"/>
        <pt x="320" y="379" on="0"/>
        <pt x="345" y="336" on="1"/>
        <pt x="355" y="318" on="0"/>
        <pt x="383" y="283" on="0"/>
        <pt x="420" y="256" on="0"/>
        <pt x="466" y="239" on="0"/>
        <pt x="495" y="239" on="1"/>
        <pt x="546" y="239" on="0"/>
        <pt x="618" y="274" on="0"/>
        <pt x="664" y="340" on="0"/>
        <pt x="685" y="434" on="0"/>
        <pt x="685" y="493" on="1"/>
        <pt x="685" y="538" on="0"/>
        <pt x="663" y="630" on="0"/>
        <pt x="618" y="703" on="0"/>
        <pt x="550" y="749" on="0"/>
        <pt x="503" y="749" on="1"/>
        <pt x="449" y="749" on="0"/>
        <pt x="352" y="687" on="0"/>
        <pt x="315" y="642" on="1"/>
        <pt x="101" y="731" on="1"/>
        <pt x="167" y="1536" on="1"/>
        <pt x="922" y="1536" on="1"/>
        <pt x="898" y="1296" on="1"/>
        <pt x="417" y="1296" on="1"/>
        <pt x="384" y="938" on="1"/>
        <pt x="411" y="949" on="0"/>
        <pt x="443" y="958" on="1"/>
        <pt x="470" y="966" on="0"/>
        <pt x="542" y="979" on="0"/>
        <pt x="583" y="979" on="1"/>
        <pt x="585" y="979" on="1"/>
        <pt x="671" y="979" on="0"/>
        <pt x="817" y="902" on="0"/>
        <pt x="923" y="770" on="0"/>
        <pt x="983" y="595" on="0"/>
        <pt x="983" y="498" on="1"/>
        <pt x="983" y="384" on="0"/>
        <pt x="914" y="192" on="0"/>
        <pt x="791" y="53" on="0"/>
        <pt x="622" y="-25" on="0"/>
        <pt x="522" y="-25" on="1"/>
        <pt x="445" y="-25" on="0"/>
        <pt x="302" y="24" on="0"/>
        <pt x="183" y="119" on="0"/>
        <pt x="97" y="258" on="0"/>
        <pt x="78" y="348" on="1"/>
      </contour>
    </TTGlyph>
    <TTGlyph name="fl" xMin="35" yMin="-12" xMax="1163" yMax="1536">
      <contour>
        <pt x="875" y="1344" on="1"/>
        <pt x="555" y="1344" on="1"/>
        <pt x="523" y="1344" on="0"/>
        <pt x="487" y="1314" on="0"/>
        <pt x="469" y="1266" on="0"/>
        <pt x="465" y="1204" on="0"/>
        <pt x="465" y="1173" on="1"/>
        <pt x="465" y="1152" on="1"/>
        <pt x="656" y="1152" on="1"/>
        <pt x="632" y="915" on="1"/>
        <pt x="465" y="915" on="1"/>
        <pt x="465" y="12" on="1"/>
        <pt x="177" y="-12" on="1"/>
        <pt x="177" y="917" on="1"/>
        <pt x="35" y="917" on="1"/>
        <pt x="59" y="1152" on="1"/>
        <pt x="177" y="1152" on="1"/>
        <pt x="177" y="1174" on="1"/>
        <pt x="177" y="1220" on="0"/>
        <pt x="182" y="1310" on="0"/>
        <pt x="204" y="1391" on="0"/>
        <pt x="252" y="1459" on="0"/>
        <pt x="338" y="1508" on="0"/>
        <pt x="468" y="1536" on="0"/>
        <pt x="563" y="1536" on="1"/>
        <pt x="1163" y="1536" on="1"/>
        <pt x="1163" y="12" on="1"/>
        <pt x="875" y="-12" on="1"/>
      </contour>
    </TTGlyph>
    <TTGlyph name="florin" xMin="-7" yMin="-394" xMax="667" yMax="1546">
      <contour>
        <pt x="474" y="-22" on="1"/>
        <pt x="474" y="-92" on="0"/>
        <pt x="463" y="-225" on="0"/>
        <pt x="408" y="-330" on="0"/>
        <pt x="292" y="-394" on="0"/>
        <pt x="188" y="-394" on="1"/>
        <pt x="134" y="-394" on="0"/>
        <pt x="61" y="-385" on="0"/>
        <pt x="38" y="-379" on="1"/>
        <pt x="11" y="-373" on="0"/>
        <pt x="-7" y="-364" on="1"/>
        <pt x="-7" y="-192" on="1"/>
        <pt x="56" y="-192" on="1"/>
        <pt x="101" y="-192" on="0"/>
        <pt x="153" y="-162" on="0"/>
        <pt x="179" y="-114" on="0"/>
        <pt x="186" y="-53" on="0"/>
        <pt x="186" y="-21" on="1"/>
        <pt x="186" y="629" on="1"/>
        <pt x="44" y="629" on="1"/>
        <pt x="44" y="864" on="1"/>
        <pt x="186" y="864" on="1"/>
        <pt x="186" y="1174" on="1"/>
        <pt x="186" y="1244" on="0"/>
        <pt x="197" y="1377" on="0"/>
        <pt x="252" y="1482" on="0"/>
        <pt x="368" y="1546" on="0"/>
        <pt x="472" y="1546" on="1"/>
        <pt x="525" y="1546" on="0"/>
        <pt x="599" y="1536" on="0"/>
        <pt x="622" y="1531" on="1"/>
        <pt x="649" y="1524" on="0"/>
        <pt x="667" y="1516" on="1"/>
        <pt x="667" y="1344" on="1"/>
        <pt x="604" y="1344" on="1"/>
        <pt x="559" y="1344" on="0"/>
        <pt x="507" y="1314" on="0"/>
        <pt x="481" y="1266" on="0"/>
        <pt x="474" y="1204" on="0"/>
        <pt x="474" y="1173" on="1"/>
        <pt x="474" y="864" on="1"/>
        <pt x="665" y="864" on="1"/>
        <pt x="665" y="627" on="1"/>
        <pt x="474" y="627" on="1"/>
      </contour>
    </TTGlyph>
    <TTGlyph name="four" xMin="45" yMin="-12" xMax="1048" yMax="1536">
      <contour>
        <pt x="568" y="384" on="1"/>
        <pt x="45" y="384" on="1"/>
        <pt x="45" y="614" on="1"/>
        <pt x="555" y="1536" on="1"/>
        <pt x="856" y="1536" on="1"/>
        <pt x="856" y="614" on="1"/>
        <pt x="1048" y="614" on="1"/>
        <pt x="1024" y="384" on="1"/>
        <pt x="856" y="384" on="1"/>
        <pt x="856" y="12" on="1"/>
        <pt x="568" y="-12" on="1"/>
      </contour>
      <contour>
        <pt x="568" y="614" on="1"/>
        <pt x="568" y="1153" on="1"/>
        <pt x="283" y="614" on="1"/>
      </contour>
    </TTGlyph>
    <TTGlyph name="foursuperior" xMin="44" yMin="528" xMax="807" yMax="1536">
      <contour>
        <pt x="434" y="768" on="1"/>
        <pt x="44" y="768" on="1"/>
        <pt x="44" y="936" on="1"/>
        <pt x="396" y="1536" on="1"/>
        <pt x="682" y="1536" on="1"/>
        <pt x="682" y="946" on="1"/>
        <pt x="807" y="946" on="1"/>
        <pt x="791" y="768" on="1"/>
        <pt x="682" y="768" on="1"/>
        <pt x="682" y="544" on="1"/>
        <pt x="434" y="528" on="1"/>
      </contour>
      <contour>
        <pt x="434" y="946" on="1"/>
        <pt x="434" y="1287" on="1"/>
        <pt x="229" y="946" on="1"/>
      </contour>
    </TTGlyph>
    <TTGlyph name="fraction" xMin="67" yMin="0" xMax="568" yMax="1536">
      <contour>
        <pt x="268" y="1536" on="1"/>
        <pt x="568" y="1536" on="1"/>
        <pt x="367" y="0" on="1"/>
        <pt x="67" y="0" on="1"/>
      </contour>
    </TTGlyph>
    <TTGlyph name="g" xMin="44" yMin="-358" xMax="1101" yMax="1215">
      <contour>
        <pt x="44" y="-123" on="1"/>
        <pt x="44" y="-94" on="0"/>
        <pt x="61" y="-44" on="0"/>
        <pt x="90" y="-1" on="0"/>
        <pt x="126" y="34" on="0"/>
        <pt x="145" y="48" on="1"/>
        <pt x="189" y="81" on="0"/>
        <pt x="246" y="103" on="1"/>
        <pt x="198" y="116" on="0"/>
        <pt x="160" y="137" on="1"/>
        <pt x="144" y="146" on="0"/>
        <pt x="113" y="170" on="0"/>
        <pt x="89" y="199" on="0"/>
        <pt x="74" y="235" on="0"/>
        <pt x="74" y="256" on="1"/>
        <pt x="74" y="284" on="0"/>
        <pt x="93" y="337" on="0"/>
        <pt x="123" y="383" on="0"/>
        <pt x="162" y="424" on="0"/>
        <pt x="182" y="441" on="1"/>
        <pt x="230" y="481" on="0"/>
        <pt x="291" y="511" on="1"/>
        <pt x="239" y="542" on="0"/>
        <pt x="199" y="586" on="1"/>
        <pt x="182" y="605" on="0"/>
        <pt x="149" y="652" on="0"/>
        <pt x="123" y="709" on="0"/>
        <pt x="107" y="776" on="0"/>
        <pt x="107" y="815" on="1"/>
        <pt x="107" y="901" on="0"/>
        <pt x="182" y="1033" on="0"/>
        <pt x="302" y="1122" on="0"/>
        <pt x="453" y="1167" on="0"/>
        <pt x="530" y="1167" on="1"/>
        <pt x="585" y="1167" on="0"/>
        <pt x="675" y="1151" on="0"/>
        <pt x="746" y="1125" on="0"/>
        <pt x="801" y="1095" on="0"/>
        <pt x="822" y="1081" on="1"/>
        <pt x="837" y="1095" on="0"/>
        <pt x="888" y="1140" on="0"/>
        <pt x="954" y="1184" on="0"/>
        <pt x="1031" y="1215" on="0"/>
        <pt x="1070" y="1215" on="1"/>
        <pt x="1075" y="1215" on="0"/>
        <pt x="1085" y="1214" on="0"/>
        <pt x="1090" y="1213" on="1"/>
        <pt x="1095" y="1212" on="0"/>
        <pt x="1101" y="1211" on="1"/>
        <pt x="1101" y="969" on="1"/>
        <pt x="1074" y="979" on="0"/>
        <pt x="1050" y="988" on="1"/>
        <pt x="1030" y="996" on="0"/>
        <pt x="987" y="1008" on="0"/>
        <pt x="975" y="1008" on="1"/>
        <pt x="964" y="1008" on="0"/>
        <pt x="945" y="1002" on="0"/>
        <pt x="937" y="999" on="1"/>
        <pt x="927" y="995" on="0"/>
        <pt x="919" y="991" on="1"/>
        <pt x="931" y="961" on="0"/>
        <pt x="941" y="931" on="1"/>
        <pt x="949" y="905" on="0"/>
        <pt x="963" y="846" on="0"/>
        <pt x="963" y="820" on="1"/>
        <pt x="963" y="757" on="0"/>
        <pt x="912" y="627" on="0"/>
        <pt x="812" y="520" on="0"/>
        <pt x="663" y="453" on="0"/>
        <pt x="565" y="465" on="1"/>
        <pt x="526" y="465" on="0"/>
        <pt x="466" y="469" on="0"/>
        <pt x="445" y="469" on="1"/>
        <pt x="403" y="457" on="0"/>
        <pt x="370" y="428" on="0"/>
        <pt x="370" y="374" on="1"/>
        <pt x="370" y="345" on="0"/>
        <pt x="412" y="306" on="0"/>
        <pt x="442" y="302" on="1"/>
        <pt x="714" y="281" on="1"/>
        <pt x="792" y="275" on="0"/>
        <pt x="917" y="238" on="0"/>
        <pt x="1006" y="158" on="0"/>
        <pt x="1053" y="49" on="0"/>
        <pt x="1053" y="-20" on="1"/>
        <pt x="1053" y="-85" on="0"/>
        <pt x="1005" y="-187" on="0"/>
        <pt x="924" y="-262" on="0"/>
        <pt x="817" y="-313" on="0"/>
        <pt x="700" y="-344" on="0"/>
        <pt x="580" y="-358" on="0"/>
        <pt x="526" y="-358" on="1"/>
        <pt x="409" y="-358" on="0"/>
        <pt x="229" y="-323" on="0"/>
        <pt x="107" y="-261" on="0"/>
        <pt x="44" y="-175" on="0"/>
      </contour>
      <contour>
        <pt x="306" y="-36" on="1"/>
        <pt x="306" y="-61" on="0"/>
        <pt x="333" y="-101" on="0"/>
        <pt x="394" y="-130" on="0"/>
        <pt x="491" y="-145" on="0"/>
        <pt x="561" y="-145" on="1"/>
        <pt x="664" y="-145" on="0"/>
        <pt x="773" y="-77" on="0"/>
        <pt x="773" y="-17" on="1"/>
        <pt x="773" y="16" on="0"/>
        <pt x="725" y="55" on="0"/>
        <pt x="658" y="74" on="0"/>
        <pt x="587" y="80" on="0"/>
        <pt x="565" y="80" on="1"/>
        <pt x="397" y="80" on="1"/>
        <pt x="381" y="75" on="0"/>
        <pt x="348" y="57" on="0"/>
        <pt x="322" y="28" on="0"/>
        <pt x="306" y="-11" on="0"/>
      </contour>
      <contour>
        <pt x="395" y="826" on="1"/>
        <pt x="395" y="793" on="0"/>
        <pt x="405" y="723" on="0"/>
        <pt x="434" y="665" on="0"/>
        <pt x="487" y="628" on="0"/>
        <pt x="530" y="628" on="1"/>
        <pt x="589" y="628" on="0"/>
        <pt x="658" y="727" on="0"/>
        <pt x="658" y="820" on="1"/>
        <pt x="658" y="865" on="0"/>
        <pt x="637" y="930" on="0"/>
        <pt x="601" y="972" on="0"/>
        <pt x="554" y="993" on="0"/>
        <pt x="528" y="993" on="1"/>
        <pt x="493" y="993" on="0"/>
        <pt x="443" y="962" on="0"/>
        <pt x="411" y="914" on="0"/>
        <pt x="395" y="854" on="0"/>
      </contour>
    </TTGlyph>
    <TTGlyph name="gbreve" xMin="44" yMin="-358" xMax="1101" yMax="1728">
      <component glyphName="g" x="0" y="0" flags="0x204"/>
      <component glyphName="breve" x="74" y="0" flags="0x4"/>
    </TTGlyph>
    <TTGlyph name="gcircumflex" xMin="44" yMin="-358" xMax="1101" yMax="1728">
      <component glyphName="g" x="0" y="0" flags="0x204"/>
      <component glyphName="circumflex" x="215" y="0" flags="0x4"/>
    </TTGlyph>
    <TTGlyph name="gcommaaccent" xMin="44" yMin="-358" xMax="1101" yMax="1920">
      <component glyphName="g" x="0" y="0" flags="0x204"/>
      <component glyphName="quoteleft" x="317" y="384" flags="0x4"/>
    </TTGlyph>
    <TTGlyph name="gdotaccent" xMin="44" yMin="-358" xMax="1101" yMax="1538">
      <component glyphName="g" x="0" y="0" flags="0x204"/>
      <component glyphName="dotaccent" x="277" y="0" flags="0x4"/>
    </TTGlyph>
    <TTGlyph name="germandbls" xMin="124" yMin="0" xMax="1127" yMax="1567">
      <contour>
        <pt x="124" y="0" on="1"/>
        <pt x="124" y="1056" on="1"/>
        <pt x="124" y="1192" on="0"/>
        <pt x="192" y="1386" on="0"/>
        <pt x="305" y="1510" on="0"/>
        <pt x="451" y="1567" on="0"/>
        <pt x="529" y="1567" on="1"/>
        <pt x="637" y="1567" on="0"/>
        <pt x="812" y="1505" on="0"/>
        <pt x="934" y="1401" on="0"/>
        <pt x="1000" y="1265" on="0"/>
        <pt x="1000" y="1192" on="1"/>
        <pt x="1000" y="1104" on="0"/>
        <pt x="901" y="930" on="0"/>
        <pt x="793" y="858" on="1"/>
        <pt x="857" y="837" on="0"/>
        <pt x="977" y="779" on="0"/>
        <pt x="1070" y="690" on="0"/>
        <pt x="1127" y="562" on="0"/>
        <pt x="1127" y="471" on="1"/>
        <pt x="1127" y="381" on="0"/>
        <pt x="1081" y="242" on="0"/>
        <pt x="1001" y="140" on="0"/>
        <pt x="890" y="71" on="0"/>
        <pt x="759" y="27" on="0"/>
        <pt x="614" y="5" on="0"/>
        <pt x="540" y="2" on="1"/>
        <pt x="540" y="230" on="1"/>
        <pt x="552" y="230" on="1"/>
        <pt x="625" y="230" on="0"/>
        <pt x="733" y="269" on="0"/>
        <pt x="802" y="334" on="0"/>
        <pt x="836" y="418" on="0"/>
        <pt x="836" y="462" on="1"/>
        <pt x="836" y="510" on="0"/>
        <pt x="798" y="604" on="0"/>
        <pt x="725" y="677" on="0"/>
        <pt x="619" y="723" on="0"/>
        <pt x="551" y="723" on="1"/>
        <pt x="551" y="931" on="1"/>
        <pt x="603" y="948" on="0"/>
        <pt x="679" y="999" on="0"/>
        <pt x="728" y="1060" on="0"/>
        <pt x="751" y="1127" on="0"/>
        <pt x="751" y="1160" on="1"/>
        <pt x="751" y="1196" on="0"/>
        <pt x="724" y="1263" on="0"/>
        <pt x="675" y="1314" on="0"/>
        <pt x="604" y="1345" on="0"/>
        <pt x="560" y="1345" on="1"/>
        <pt x="532" y="1345" on="0"/>
        <pt x="480" y="1317" on="0"/>
        <pt x="439" y="1260" on="0"/>
        <pt x="414" y="1172" on="0"/>
        <pt x="414" y="1111" on="1"/>
        <pt x="414" y="0" on="1"/>
      </contour>
    </TTGlyph>
    <TTGlyph name="grave" xMin="-49" yMin="1241" xMax="475" yMax="1789">
      <contour>
        <pt x="361" y="1241" on="1"/>
        <pt x="-49" y="1587" on="1"/>
        <pt x="178" y="1789" on="1"/>
        <pt x="475" y="1342" on="1"/>
      </contour>
    </TTGlyph>
    <TTGlyph name="greater" xMin="98" yMin="89" xMax="920" yMax="1064">
      <contour>
        <pt x="112" y="89" on="1"/>
        <pt x="98" y="432" on="1"/>
        <pt x="575" y="607" on="1"/>
        <pt x="124" y="803" on="1"/>
        <pt x="110" y="1064" on="1"/>
        <pt x="920" y="704" on="1"/>
        <pt x="920" y="439" on="1"/>
      </contour>
    </TTGlyph>
    <TTGlyph name="greaterequal" xMin="96" yMin="0" xMax="918" yMax="1448">
      <contour>
        <pt x="110" y="473" on="1"/>
        <pt x="96" y="816" on="1"/>
        <pt x="573" y="991" on="1"/>
        <pt x="122" y="1187" on="1"/>
        <pt x="108" y="1448" on="1"/>
        <pt x="918" y="1088" on="1"/>
        <pt x="918" y="823" on="1"/>
      </contour>
      <contour>
        <pt x="219" y="238" on="1"/>
        <pt x="795" y="238" on="1"/>
        <pt x="795" y="0" on="1"/>
        <pt x="219" y="0" on="1"/>
      </contour>
    </TTGlyph>
    <TTGlyph name="guillemotleft" xMin="54" yMin="59" xMax="1152" yMax="1094">
      <contour>
        <pt x="54" y="439" on="1"/>
        <pt x="54" y="704" on="1"/>
        <pt x="564" y="1094" on="1"/>
        <pt x="550" y="833" on="1"/>
        <pt x="249" y="607" on="1"/>
        <pt x="576" y="402" on="1"/>
        <pt x="562" y="59" on="1"/>
      </contour>
      <contour>
        <pt x="630" y="439" on="1"/>
        <pt x="630" y="704" on="1"/>
        <pt x="1140" y="1094" on="1"/>
        <pt x="1126" y="833" on="1"/>
        <pt x="825" y="607" on="1"/>
        <pt x="1152" y="402" on="1"/>
        <pt x="1138" y="59" on="1"/>
      </contour>
    </TTGlyph>
    <TTGlyph name="guillemotright" xMin="92" yMin="59" xMax="1190" yMax="1094">
      <contour>
        <pt x="682" y="59" on="1"/>
        <pt x="668" y="402" on="1"/>
        <pt x="995" y="607" on="1"/>
        <pt x="694" y="833" on="1"/>
        <pt x="680" y="1094" on="1"/>
        <pt x="1190" y="704" on="1"/>
        <pt x="1190" y="439" on="1"/>
      </contour>
      <contour>
        <pt x="106" y="59" on="1"/>
        <pt x="92" y="402" on="1"/>
        <pt x="419" y="607" on="1"/>
        <pt x="118" y="833" on="1"/>
        <pt x="104" y="1094" on="1"/>
        <pt x="614" y="704" on="1"/>
        <pt x="614" y="439" on="1"/>
      </contour>
    </TTGlyph>
    <TTGlyph name="guilsinglleft" xMin="54" yMin="59" xMax="706" yMax="1094">
      <contour>
        <pt x="54" y="439" on="1"/>
        <pt x="54" y="704" on="1"/>
        <pt x="694" y="1094" on="1"/>
        <pt x="680" y="833" on="1"/>
        <pt x="299" y="607" on="1"/>
        <pt x="706" y="402" on="1"/>
        <pt x="692" y="59" on="1"/>
      </contour>
    </TTGlyph>
    <TTGlyph name="guilsinglright" xMin="94" yMin="59" xMax="746" yMax="1094">
      <contour>
        <pt x="108" y="59" on="1"/>
        <pt x="94" y="402" on="1"/>
        <pt x="501" y="607" on="1"/>
        <pt x="120" y="833" on="1"/>
        <pt x="106" y="1094" on="1"/>
        <pt x="746" y="704" on="1"/>
        <pt x="746" y="439" on="1"/>
      </contour>
    </TTGlyph>
    <TTGlyph name="h" xMin="124" yMin="-12" xMax="988" yMax="1536">
      <contour>
        <pt x="700" y="773" on="1"/>
        <pt x="700" y="852" on="0"/>
        <pt x="643" y="922" on="0"/>
        <pt x="600" y="922" on="1"/>
        <pt x="560" y="922" on="0"/>
        <pt x="472" y="879" on="0"/>
        <pt x="412" y="843" on="1"/>
        <pt x="412" y="12" on="1"/>
        <pt x="124" y="-12" on="1"/>
        <pt x="124" y="1500" on="1"/>
        <pt x="412" y="1536" on="1"/>
        <pt x="412" y="1005" on="1"/>
        <pt x="502" y="1089" on="0"/>
        <pt x="668" y="1167" on="0"/>
        <pt x="742" y="1167" on="1"/>
        <pt x="796" y="1167" on="0"/>
        <pt x="886" y="1126" on="0"/>
        <pt x="951" y="1051" on="0"/>
        <pt x="988" y="943" on="0"/>
        <pt x="988" y="876" on="1"/>
        <pt x="988" y="12" on="1"/>
        <pt x="700" y="-12" on="1"/>
      </contour>
    </TTGlyph>
    <TTGlyph name="hbar" xMin="-67" yMin="-12" xMax="988" yMax="1536">
      <component glyphName="h" x="0" y="0" flags="0x204"/>
      <component glyphName="macron" x="-255" y="0" scalex="1.16491699219" scaley="1.0" flags="0x4"/>
    </TTGlyph>
    <TTGlyph name="hcircumflex" xMin="-63" yMin="-12" xMax="988" yMax="2112">
      <component glyphName="h" x="0" y="0" flags="0x204"/>
      <component glyphName="circumflex" x="-95" y="384" flags="0x4"/>
    </TTGlyph>
    <TTGlyph name="hungarumlaut" xMin="61" yMin="1150" xMax="1067" yMax="1728">
      <contour>
        <pt x="564" y="1248" on="1"/>
        <pt x="833" y="1728" on="1"/>
        <pt x="1067" y="1534" on="1"/>
        <pt x="683" y="1150" on="1"/>
      </contour>
      <contour>
        <pt x="61" y="1248" on="1"/>
        <pt x="330" y="1728" on="1"/>
        <pt x="564" y="1534" on="1"/>
        <pt x="180" y="1150" on="1"/>
      </contour>
    </TTGlyph>
    <TTGlyph name="hyphen" xMin="114" yMin="480" xMax="690" yMax="718">
      <contour>
        <pt x="114" y="718" on="1"/>
        <pt x="690" y="718" on="1"/>
        <pt x="690" y="480" on="1"/>
        <pt x="114" y="480" on="1"/>
      </contour>
    </TTGlyph>
    <TTGlyph name="i" xMin="124" yMin="-12" xMax="413" yMax="1600">
      <component glyphName="dotlessi" x="0" y="0" flags="0x200"/>
      <component glyphName="dotaccent" x="-37" y="62" flags="0x0"/>
    </TTGlyph>
    <TTGlyph name="iacute" xMin="106" yMin="-12" xMax="630" yMax="1793">
      <component glyphName="dotlessi" x="0" y="0" flags="0x204"/>
      <component glyphName="acute" x="-59" y="0" flags="0x4"/>
    </TTGlyph>
    <TTGlyph name="ibreve" xMin="-164" yMin="-12" xMax="700" yMax="1728">
      <component glyphName="dotlessi" x="0" y="0" flags="0x4"/>
      <component glyphName="breve" x="-241" y="0" flags="0x4"/>
    </TTGlyph>
    <TTGlyph name="icircumflex" xMin="-68" yMin="-12" xMax="604" yMax="1728">
      <component glyphName="dotlessi" x="0" y="0" flags="0x204"/>
      <component glyphName="circumflex" x="-100" y="0" flags="0x4"/>
    </TTGlyph>
    <TTGlyph name="idieresis" xMin="-116" yMin="-12" xMax="652" yMax="1536">
      <component glyphName="dotlessi" x="0" y="0" flags="0x4"/>
      <component glyphName="dieresis" x="-278" y="0" flags="0x4"/>
    </TTGlyph>
    <TTGlyph name="igrave" xMin="-55" yMin="-12" xMax="469" yMax="1789">
      <component glyphName="dotlessi" x="0" y="0" flags="0x204"/>
      <component glyphName="grave" x="-6" y="0" flags="0x4"/>
    </TTGlyph>
    <TTGlyph name="ij" xMin="124" yMin="-288" xMax="948" yMax="1600">
      <component glyphName="dotlessi" x="0" y="0" flags="0x4"/>
      <component glyphName="dotaccent" x="-37" y="62" flags="0x4"/>
      <component glyphName="dotaccent" x="498" y="62" flags="0x4"/>
      <component glyphName="dotlessj" x="536" y="0" flags="0x4"/>
    </TTGlyph>
    <TTGlyph name="imacron" xMin="-20" yMin="-12" xMax="556" yMax="1440">
      <component glyphName="dotlessi" x="0" y="0" flags="0x204"/>
      <component glyphName="macron" x="-182" y="0" flags="0x4"/>
    </TTGlyph>
    <TTGlyph name="integral" xMin="17" yMin="-394" xMax="691" yMax="1546">
      <contour>
        <pt x="498" y="-22" on="1"/>
        <pt x="498" y="-92" on="0"/>
        <pt x="487" y="-225" on="0"/>
        <pt x="432" y="-330" on="0"/>
        <pt x="316" y="-394" on="0"/>
        <pt x="212" y="-394" on="1"/>
        <pt x="158" y="-394" on="0"/>
        <pt x="85" y="-385" on="0"/>
        <pt x="62" y="-379" on="1"/>
        <pt x="35" y="-373" on="0"/>
        <pt x="17" y="-364" on="1"/>
        <pt x="17" y="-192" on="1"/>
        <pt x="80" y="-192" on="1"/>
        <pt x="125" y="-192" on="0"/>
        <pt x="177" y="-162" on="0"/>
        <pt x="203" y="-114" on="0"/>
        <pt x="210" y="-53" on="0"/>
        <pt x="210" y="-21" on="1"/>
        <pt x="210" y="1174" on="1"/>
        <pt x="210" y="1244" on="0"/>
        <pt x="221" y="1377" on="0"/>
        <pt x="276" y="1482" on="0"/>
        <pt x="392" y="1546" on="0"/>
        <pt x="496" y="1546" on="1"/>
        <pt x="549" y="1546" on="0"/>
        <pt x="623" y="1536" on="0"/>
        <pt x="646" y="1531" on="1"/>
        <pt x="673" y="1524" on="0"/>
        <pt x="691" y="1516" on="1"/>
        <pt x="691" y="1344" on="1"/>
        <pt x="628" y="1344" on="1"/>
        <pt x="583" y="1344" on="0"/>
        <pt x="531" y="1314" on="0"/>
        <pt x="505" y="1266" on="0"/>
        <pt x="498" y="1204" on="0"/>
        <pt x="498" y="1173" on="1"/>
      </contour>
    </TTGlyph>
    <TTGlyph name="iogonek" xMin="94" yMin="-385" xMax="528" yMax="1600">
      <component glyphName="ogonek" x="11" y="0" flags="0x4"/>
      <component glyphName="dotlessi" x="0" y="0" flags="0x4"/>
      <component glyphName="dotaccent" x="-37" y="62" flags="0x4"/>
    </TTGlyph>
    <TTGlyph name="itilde" xMin="-51" yMin="-12" xMax="586" yMax="1537">
      <component glyphName="dotlessi" x="0" y="0" flags="0x204"/>
      <component glyphName="tilde" x="-169" y="0" flags="0x4"/>
    </TTGlyph>
    <TTGlyph name="j" xMin="-35" yMin="-288" xMax="413" yMax="1600">
      <component glyphName="dotaccent" x="-37" y="62" flags="0x0"/>
      <component glyphName="dotlessj" x="0" y="0" flags="0x0"/>
    </TTGlyph>
    <TTGlyph name="jcircumflex" xMin="-74" yMin="-288" xMax="598" yMax="1728">
      <component glyphName="dotlessj" x="0" y="0" flags="0x204"/>
      <component glyphName="circumflex" x="-106" y="0" flags="0x4"/>
    </TTGlyph>
    <TTGlyph name="k" xMin="125" yMin="-27" xMax="1017" yMax="1536">
      <contour>
        <pt x="413" y="421" on="1"/>
        <pt x="413" y="0" on="1"/>
        <pt x="125" y="0" on="1"/>
        <pt x="125" y="1500" on="1"/>
        <pt x="413" y="1536" on="1"/>
        <pt x="413" y="775" on="1"/>
        <pt x="706" y="1152" on="1"/>
        <pt x="1017" y="1152" on="1"/>
        <pt x="693" y="738" on="1"/>
        <pt x="994" y="60" on="1"/>
        <pt x="740" y="-27" on="1"/>
        <pt x="507" y="546" on="1"/>
      </contour>
    </TTGlyph>
    <TTGlyph name="kcommaaccent" xMin="125" yMin="-666" xMax="1017" yMax="1536">
      <component glyphName="k" x="0" y="0" flags="0x204"/>
      <component glyphName="commaaccent" x="294" y="-762" flags="0x4"/>
    </TTGlyph>
    <TTGlyph name="l" xMin="124" yMin="-12" xMax="412" yMax="1536">
      <contour>
        <pt x="124" y="1500" on="1"/>
        <pt x="412" y="1536" on="1"/>
        <pt x="412" y="12" on="1"/>
        <pt x="124" y="-12" on="1"/>
      </contour>
    </TTGlyph>
    <TTGlyph name="lacute" xMin="124" yMin="-12" xMax="666" yMax="2098">
      <component glyphName="l" x="0" y="0" flags="0x204"/>
      <component glyphName="acute" x="-23" y="305" flags="0x4"/>
    </TTGlyph>
    <TTGlyph name="lcaron" xMin="124" yMin="-12" xMax="847" yMax="1536">
      <component glyphName="l" x="0" y="0" flags="0x4"/>
      <component glyphName="quoteright" x="472" y="0" flags="0x4"/>
    </TTGlyph>
    <TTGlyph name="lcommaaccent" xMin="124" yMin="-666" xMax="423" yMax="1536">
      <component glyphName="l" x="0" y="0" flags="0x204"/>
      <component glyphName="commaaccent" x="33" y="-762" flags="0x4"/>
    </TTGlyph>
    <TTGlyph name="ldot" xMin="124" yMin="-12" xMax="876" yMax="1536">
      <component glyphName="l" x="0" y="0" flags="0x4"/>
      <component glyphName="periodcentered" x="474" y="70" flags="0x4"/>
    </TTGlyph>
    <TTGlyph name="less" xMin="56" yMin="89" xMax="878" yMax="1064">
      <contour>
        <pt x="56" y="439" on="1"/>
        <pt x="56" y="704" on="1"/>
        <pt x="866" y="1064" on="1"/>
        <pt x="852" y="803" on="1"/>
        <pt x="401" y="607" on="1"/>
        <pt x="878" y="432" on="1"/>
        <pt x="864" y="89" on="1"/>
      </contour>
    </TTGlyph>
    <TTGlyph name="lessequal" xMin="61" yMin="-1" xMax="883" yMax="1448">
      <contour>
        <pt x="61" y="823" on="1"/>
        <pt x="61" y="1088" on="1"/>
        <pt x="871" y="1448" on="1"/>
        <pt x="857" y="1187" on="1"/>
        <pt x="406" y="991" on="1"/>
        <pt x="883" y="816" on="1"/>
        <pt x="869" y="473" on="1"/>
      </contour>
      <contour>
        <pt x="184" y="237" on="1"/>
        <pt x="760" y="237" on="1"/>
        <pt x="760" y="-1" on="1"/>
        <pt x="184" y="-1" on="1"/>
      </contour>
    </TTGlyph>
    <TTGlyph name="logicalnot" xMin="95" yMin="288" xMax="671" yMax="718">
      <contour>
        <pt x="95" y="718" on="1"/>
        <pt x="671" y="718" on="1"/>
        <pt x="671" y="288" on="1"/>
        <pt x="527" y="288" on="1"/>
        <pt x="527" y="480" on="1"/>
        <pt x="95" y="480" on="1"/>
      </contour>
    </TTGlyph>
    <TTGlyph name="lozenge" xMin="50" yMin="0" xMax="887" yMax="1440">
      <contour>
        <pt x="887" y="642" on="1"/>
        <pt x="605" y="0" on="1"/>
        <pt x="340" y="0" on="1"/>
        <pt x="50" y="642" on="1"/>
        <pt x="50" y="797" on="1"/>
        <pt x="340" y="1440" on="1"/>
        <pt x="605" y="1440" on="1"/>
        <pt x="887" y="797" on="1"/>
      </contour>
      <contour>
        <pt x="296" y="720" on="1"/>
        <pt x="461" y="321" on="1"/>
        <pt x="605" y="720" on="1"/>
        <pt x="461" y="1119" on="1"/>
      </contour>
    </TTGlyph>
    <TTGlyph name="lslash" xMin="-1" yMin="-12" xMax="575" yMax="1536">
      <contour>
        <pt x="-1" y="814" on="1"/>
        <pt x="156" y="854" on="1"/>
        <pt x="156" y="1500" on="1"/>
        <pt x="444" y="1536" on="1"/>
        <pt x="444" y="927" on="1"/>
        <pt x="575" y="960" on="1"/>
        <pt x="575" y="722" on="1"/>
        <pt x="444" y="689" on="1"/>
        <pt x="444" y="12" on="1"/>
        <pt x="156" y="-12" on="1"/>
        <pt x="156" y="616" on="1"/>
        <pt x="-1" y="576" on="1"/>
      </contour>
    </TTGlyph>
    <TTGlyph name="m" xMin="124" yMin="-12" xMax="1372" yMax="1167">
      <contour>
        <pt x="1084" y="802" on="1"/>
        <pt x="1084" y="860" on="0"/>
        <pt x="1051" y="921" on="0"/>
        <pt x="1025" y="921" on="1"/>
        <pt x="996" y="921" on="0"/>
        <pt x="948" y="895" on="0"/>
        <pt x="930" y="880" on="1"/>
        <pt x="909" y="862" on="0"/>
        <pt x="892" y="839" on="1"/>
        <pt x="892" y="12" on="1"/>
        <pt x="604" y="-12" on="1"/>
        <pt x="604" y="804" on="1"/>
        <pt x="604" y="867" on="0"/>
        <pt x="575" y="921" on="0"/>
        <pt x="555" y="921" on="1"/>
        <pt x="527" y="921" on="0"/>
        <pt x="476" y="895" on="0"/>
        <pt x="456" y="880" on="1"/>
        <pt x="432" y="862" on="0"/>
        <pt x="412" y="839" on="1"/>
        <pt x="412" y="12" on="1"/>
        <pt x="124" y="-12" on="1"/>
        <pt x="124" y="1128" on="1"/>
        <pt x="412" y="1152" on="1"/>
        <pt x="412" y="1005" on="1"/>
        <pt x="473" y="1077" on="0"/>
        <pt x="624" y="1167" on="0"/>
        <pt x="709" y="1167" on="1"/>
        <pt x="768" y="1167" on="0"/>
        <pt x="857" y="1085" on="0"/>
        <pt x="879" y="988" on="1"/>
        <pt x="942" y="1071" on="0"/>
        <pt x="1083" y="1167" on="0"/>
        <pt x="1175" y="1167" on="1"/>
        <pt x="1232" y="1167" on="0"/>
        <pt x="1307" y="1120" on="0"/>
        <pt x="1353" y="1030" on="0"/>
        <pt x="1372" y="900" on="0"/>
        <pt x="1372" y="817" on="1"/>
        <pt x="1372" y="12" on="1"/>
        <pt x="1084" y="-12" on="1"/>
      </contour>
    </TTGlyph>
    <TTGlyph name="macron" xMin="162" yMin="1248" xMax="738" yMax="1440">
      <contour>
        <pt x="162" y="1440" on="1"/>
        <pt x="738" y="1440" on="1"/>
        <pt x="738" y="1248" on="1"/>
        <pt x="162" y="1248" on="1"/>
      </contour>
    </TTGlyph>
    <TTGlyph name="minus" xMin="114" yMin="480" xMax="690" yMax="718">
      <contour>
        <pt x="114" y="718" on="1"/>
        <pt x="690" y="718" on="1"/>
        <pt x="690" y="480" on="1"/>
        <pt x="114" y="480" on="1"/>
      </contour>
    </TTGlyph>
    <TTGlyph name="mu" xMin="128" yMin="-204" xMax="992" yMax="1152">
      <contour>
        <pt x="128" y="1128" on="1"/>
        <pt x="416" y="1152" on="1"/>
        <pt x="416" y="381" on="1"/>
        <pt x="416" y="296" on="0"/>
        <pt x="468" y="228" on="0"/>
        <pt x="511" y="228" on="1"/>
        <pt x="531" y="228" on="0"/>
        <pt x="576" y="243" on="0"/>
        <pt x="626" y="269" on="0"/>
        <pt x="678" y="301" on="0"/>
        <pt x="704" y="318" on="1"/>
        <pt x="704" y="1128" on="1"/>
        <pt x="992" y="1152" on="1"/>
        <pt x="992" y="12" on="1"/>
        <pt x="704" y="-12" on="1"/>
        <pt x="704" y="135" on="1"/>
        <pt x="643" y="91" on="0"/>
        <pt x="525" y="43" on="0"/>
        <pt x="474" y="43" on="1"/>
        <pt x="443" y="43" on="0"/>
        <pt x="416" y="46" on="1"/>
        <pt x="416" y="-192" on="1"/>
        <pt x="128" y="-204" on="1"/>
      </contour>
    </TTGlyph>
    <TTGlyph name="multiply" xMin="71" yMin="193" xMax="786" yMax="908">
      <contour>
        <pt x="427" y="720" on="1"/>
        <pt x="615" y="908" on="1"/>
        <pt x="783" y="739" on="1"/>
        <pt x="595" y="552" on="1"/>
        <pt x="786" y="362" on="1"/>
        <pt x="617" y="193" on="1"/>
        <pt x="427" y="384" on="1"/>
        <pt x="240" y="196" on="1"/>
        <pt x="71" y="364" on="1"/>
        <pt x="259" y="552" on="1"/>
        <pt x="74" y="736" on="1"/>
        <pt x="243" y="905" on="1"/>
      </contour>
    </TTGlyph>
    <TTGlyph name="n" xMin="124" yMin="-12" xMax="988" yMax="1167">
      <contour>
        <pt x="700" y="769" on="1"/>
        <pt x="700" y="854" on="0"/>
        <pt x="642" y="922" on="0"/>
        <pt x="595" y="922" on="1"/>
        <pt x="557" y="922" on="0"/>
        <pt x="462" y="872" on="0"/>
        <pt x="412" y="842" on="1"/>
        <pt x="412" y="12" on="1"/>
        <pt x="124" y="-12" on="1"/>
        <pt x="124" y="1128" on="1"/>
        <pt x="412" y="1152" on="1"/>
        <pt x="412" y="1005" on="1"/>
        <pt x="498" y="1080" on="0"/>
        <pt x="668" y="1167" on="0"/>
        <pt x="742" y="1167" on="1"/>
        <pt x="796" y="1167" on="0"/>
        <pt x="886" y="1126" on="0"/>
        <pt x="951" y="1051" on="0"/>
        <pt x="988" y="943" on="0"/>
        <pt x="988" y="876" on="1"/>
        <pt x="988" y="12" on="1"/>
        <pt x="700" y="-12" on="1"/>
      </contour>
    </TTGlyph>
    <TTGlyph name="nacute" xMin="124" yMin="-12" xMax="1003" yMax="1793">
      <component glyphName="n" x="0" y="0" flags="0x204"/>
      <component glyphName="acute" x="314" y="0" flags="0x4"/>
    </TTGlyph>
    <TTGlyph name="napostrophe" xMin="73" yMin="-12" xMax="988" yMax="1785">
      <component glyphName="n" x="0" y="0" flags="0x204"/>
      <component glyphName="commaaccent" x="-29" y="1113" flags="0x4"/>
    </TTGlyph>
    <TTGlyph name="ncaron" xMin="124" yMin="-12" xMax="988" yMax="1728">
      <component glyphName="n" x="0" y="0" flags="0x204"/>
      <component glyphName="circumflex" x="234" y="2976" scalex="1.0" scaley="-0.999938964844" flags="0x4"/>
    </TTGlyph>
    <TTGlyph name="ncommaaccent" xMin="125" yMin="-666" xMax="989" yMax="1167">
      <component glyphName="n" x="1" y="0" flags="0x4"/>
      <component glyphName="commaaccent" x="306" y="-762" flags="0x4"/>
    </TTGlyph>
    <TTGlyph name="nine" xMin="73" yMin="-27" xMax="946" yMax="1546">
      <contour>
        <pt x="946" y="745" on="1"/>
        <pt x="946" y="664" on="0"/>
        <pt x="923" y="486" on="0"/>
        <pt x="873" y="314" on="0"/>
        <pt x="795" y="159" on="0"/>
        <pt x="687" y="42" on="0"/>
        <pt x="546" y="-27" on="0"/>
        <pt x="458" y="-27" on="1"/>
        <pt x="393" y="-27" on="0"/>
        <pt x="279" y="22" on="0"/>
        <pt x="188" y="117" on="0"/>
        <pt x="126" y="255" on="0"/>
        <pt x="114" y="345" on="1"/>
        <pt x="338" y="397" on="1"/>
        <pt x="344" y="368" on="0"/>
        <pt x="359" y="304" on="0"/>
        <pt x="388" y="249" on="0"/>
        <pt x="437" y="213" on="0"/>
        <pt x="477" y="213" on="1"/>
        <pt x="518" y="213" on="0"/>
        <pt x="576" y="258" on="0"/>
        <pt x="614" y="332" on="0"/>
        <pt x="637" y="427" on="0"/>
        <pt x="649" y="527" on="0"/>
        <pt x="652" y="624" on="0"/>
        <pt x="653" y="663" on="1"/>
        <pt x="606" y="628" on="0"/>
        <pt x="479" y="585" on="0"/>
        <pt x="417" y="585" on="1"/>
        <pt x="337" y="585" on="0"/>
        <pt x="210" y="655" on="0"/>
        <pt x="121" y="772" on="0"/>
        <pt x="73" y="924" on="0"/>
        <pt x="73" y="1007" on="1"/>
        <pt x="73" y="1110" on="0"/>
        <pt x="135" y="1305" on="0"/>
        <pt x="248" y="1455" on="0"/>
        <pt x="406" y="1546" on="0"/>
        <pt x="501" y="1546" on="1"/>
        <pt x="595" y="1546" on="0"/>
        <pt x="734" y="1480" on="0"/>
        <pt x="832" y="1365" on="0"/>
        <pt x="896" y="1209" on="0"/>
        <pt x="932" y="1031" on="0"/>
        <pt x="946" y="839" on="0"/>
      </contour>
      <contour>
        <pt x="653" y="911" on="1"/>
        <pt x="653" y="983" on="1"/>
        <pt x="653" y="1023" on="0"/>
        <pt x="647" y="1107" on="0"/>
        <pt x="632" y="1187" on="0"/>
        <pt x="601" y="1251" on="0"/>
        <pt x="551" y="1289" on="0"/>
        <pt x="514" y="1289" on="1"/>
        <pt x="468" y="1289" on="0"/>
        <pt x="409" y="1240" on="0"/>
        <pt x="375" y="1166" on="0"/>
        <pt x="362" y="1079" on="0"/>
        <pt x="362" y="1042" on="1"/>
        <pt x="362" y="1003" on="0"/>
        <pt x="378" y="927" on="0"/>
        <pt x="414" y="865" on="0"/>
        <pt x="474" y="827" on="0"/>
        <pt x="518" y="827" on="1"/>
        <pt x="545" y="827" on="0"/>
        <pt x="593" y="840" on="0"/>
        <pt x="611" y="848" on="1"/>
        <pt x="632" y="858" on="0"/>
        <pt x="651" y="870" on="1"/>
        <pt x="651" y="878" on="0"/>
        <pt x="652" y="886" on="1"/>
        <pt x="652" y="893" on="0"/>
        <pt x="653" y="906" on="0"/>
      </contour>
    </TTGlyph>
    <TTGlyph name="notequal" xMin="114" yMin="288" xMax="690" yMax="910">
      <component glyphName="equal" x="0" y="0" flags="0x204"/>
    </TTGlyph>
    <TTGlyph name="ntilde" xMin="124" yMin="-12" xMax="988" yMax="1537">
      <component glyphName="n" x="0" y="0" flags="0x204"/>
      <component glyphName="tilde" x="110" y="0" flags="0x4"/>
    </TTGlyph>
    <TTGlyph name="numbersign" xMin="64" yMin="0" xMax="1219" yMax="1536">
      <contour>
        <pt x="112" y="1198" on="1"/>
        <pt x="319" y="1198" on="1"/>
        <pt x="364" y="1536" on="1"/>
        <pt x="664" y="1536" on="1"/>
        <pt x="619" y="1198" on="1"/>
        <pt x="805" y="1198" on="1"/>
        <pt x="850" y="1536" on="1"/>
        <pt x="1150" y="1536" on="1"/>
        <pt x="1105" y="1198" on="1"/>
        <pt x="1219" y="1198" on="1"/>
        <pt x="1219" y="960" on="1"/>
        <pt x="1074" y="960" on="1"/>
        <pt x="1030" y="622" on="1"/>
        <pt x="1171" y="622" on="1"/>
        <pt x="1171" y="384" on="1"/>
        <pt x="999" y="384" on="1"/>
        <pt x="949" y="0" on="1"/>
        <pt x="649" y="0" on="1"/>
        <pt x="699" y="384" on="1"/>
        <pt x="513" y="384" on="1"/>
        <pt x="463" y="0" on="1"/>
        <pt x="163" y="0" on="1"/>
        <pt x="213" y="384" on="1"/>
        <pt x="64" y="384" on="1"/>
        <pt x="64" y="622" on="1"/>
        <pt x="244" y="622" on="1"/>
        <pt x="288" y="960" on="1"/>
        <pt x="112" y="960" on="1"/>
      </contour>
      <contour>
        <pt x="544" y="622" on="1"/>
        <pt x="730" y="622" on="1"/>
        <pt x="774" y="960" on="1"/>
        <pt x="588" y="960" on="1"/>
      </contour>
    </TTGlyph>
    <TTGlyph name="o" xMin="70" yMin="-27" xMax="934" yMax="1167">
      <contour>
        <pt x="502" y="-27" on="1"/>
        <pt x="394" y="-27" on="0"/>
        <pt x="232" y="62" on="0"/>
        <pt x="124" y="221" on="0"/>
        <pt x="70" y="443" on="0"/>
        <pt x="70" y="577" on="1"/>
        <pt x="70" y="706" on="0"/>
        <pt x="124" y="923" on="0"/>
        <pt x="232" y="1080" on="0"/>
        <pt x="394" y="1167" on="0"/>
        <pt x="502" y="1167" on="1"/>
        <pt x="607" y="1167" on="0"/>
        <pt x="769" y="1080" on="0"/>
        <pt x="878" y="923" on="0"/>
        <pt x="934" y="706" on="0"/>
        <pt x="934" y="577" on="1"/>
        <pt x="934" y="443" on="0"/>
        <pt x="878" y="221" on="0"/>
        <pt x="769" y="62" on="0"/>
        <pt x="607" y="-27" on="0"/>
      </contour>
      <contour>
        <pt x="500" y="187" on="1"/>
        <pt x="535" y="187" on="0"/>
        <pt x="585" y="225" on="0"/>
        <pt x="617" y="288" on="0"/>
        <pt x="635" y="369" on="0"/>
        <pt x="643" y="456" on="0"/>
        <pt x="645" y="541" on="0"/>
        <pt x="645" y="577" on="1"/>
        <pt x="645" y="612" on="0"/>
        <pt x="643" y="696" on="0"/>
        <pt x="635" y="782" on="0"/>
        <pt x="617" y="863" on="0"/>
        <pt x="585" y="926" on="0"/>
        <pt x="536" y="964" on="0"/>
        <pt x="501" y="964" on="1"/>
        <pt x="465" y="964" on="0"/>
        <pt x="416" y="926" on="0"/>
        <pt x="384" y="863" on="0"/>
        <pt x="367" y="782" on="0"/>
        <pt x="359" y="696" on="0"/>
        <pt x="358" y="612" on="0"/>
        <pt x="358" y="577" on="1"/>
        <pt x="358" y="541" on="0"/>
        <pt x="359" y="456" on="0"/>
        <pt x="367" y="369" on="0"/>
        <pt x="384" y="288" on="0"/>
        <pt x="415" y="225" on="0"/>
        <pt x="464" y="187" on="0"/>
      </contour>
    </TTGlyph>
    <TTGlyph name="oacute" xMin="70" yMin="-27" xMax="934" yMax="1793">
      <component glyphName="o" x="0" y="0" flags="0x204"/>
      <component glyphName="acute" x="174" y="0" flags="0x4"/>
    </TTGlyph>
    <TTGlyph name="obreve" xMin="70" yMin="-27" xMax="936" yMax="1728">
      <component glyphName="o" x="0" y="0" flags="0x204"/>
      <component glyphName="breve" x="-5" y="0" flags="0x4"/>
    </TTGlyph>
    <TTGlyph name="ocircumflex" xMin="70" yMin="-27" xMax="934" yMax="1728">
      <component glyphName="o" x="0" y="0" flags="0x204"/>
      <component glyphName="circumflex" x="133" y="0" flags="0x4"/>
    </TTGlyph>
    <TTGlyph name="odieresis" xMin="70" yMin="-27" xMax="934" yMax="1536">
      <component glyphName="o" x="0" y="0" flags="0x204"/>
      <component glyphName="dieresis" x="-42" y="0" flags="0x4"/>
    </TTGlyph>
    <TTGlyph name="oe" xMin="70" yMin="-27" xMax="1490" yMax="1167">
      <contour>
        <pt x="932" y="536" on="1"/>
        <pt x="932" y="482" on="0"/>
        <pt x="946" y="358" on="0"/>
        <pt x="979" y="254" on="0"/>
        <pt x="1033" y="185" on="0"/>
        <pt x="1072" y="185" on="1"/>
        <pt x="1106" y="185" on="0"/>
        <pt x="1162" y="239" on="0"/>
        <pt x="1204" y="307" on="0"/>
        <pt x="1229" y="367" on="0"/>
        <pt x="1232" y="373" on="1"/>
        <pt x="1450" y="290" on="1"/>
        <pt x="1430" y="220" on="0"/>
        <pt x="1364" y="104" on="0"/>
        <pt x="1270" y="20" on="0"/>
        <pt x="1146" y="-27" on="0"/>
        <pt x="1067" y="-27" on="1"/>
        <pt x="974" y="-27" on="0"/>
        <pt x="843" y="57" on="0"/>
        <pt x="791" y="132" on="1"/>
        <pt x="740" y="57" on="0"/>
        <pt x="590" y="-27" on="0"/>
        <pt x="502" y="-27" on="1"/>
        <pt x="394" y="-27" on="0"/>
        <pt x="232" y="62" on="0"/>
        <pt x="124" y="221" on="0"/>
        <pt x="70" y="443" on="0"/>
        <pt x="70" y="577" on="1"/>
        <pt x="70" y="706" on="0"/>
        <pt x="124" y="923" on="0"/>
        <pt x="232" y="1080" on="0"/>
        <pt x="394" y="1167" on="0"/>
        <pt x="502" y="1167" on="1"/>
        <pt x="590" y="1167" on="0"/>
        <pt x="742" y="1077" on="0"/>
        <pt x="793" y="997" on="1"/>
        <pt x="847" y="1078" on="0"/>
        <pt x="982" y="1167" on="0"/>
        <pt x="1077" y="1167" on="1"/>
        <pt x="1180" y="1167" on="0"/>
        <pt x="1334" y="1080" on="0"/>
        <pt x="1438" y="922" on="0"/>
        <pt x="1490" y="702" on="0"/>
        <pt x="1490" y="570" on="1"/>
        <pt x="1486" y="556" on="1"/>
        <pt x="1484" y="550" on="0"/>
        <pt x="1482" y="539" on="0"/>
        <pt x="1482" y="536" on="1"/>
      </contour>
      <contour>
        <pt x="500" y="187" on="1"/>
        <pt x="535" y="187" on="0"/>
        <pt x="585" y="225" on="0"/>
        <pt x="617" y="288" on="0"/>
        <pt x="635" y="369" on="0"/>
        <pt x="643" y="456" on="0"/>
        <pt x="645" y="541" on="0"/>
        <pt x="645" y="577" on="1"/>
        <pt x="645" y="612" on="0"/>
        <pt x="643" y="696" on="0"/>
        <pt x="635" y="782" on="0"/>
        <pt x="617" y="863" on="0"/>
        <pt x="585" y="926" on="0"/>
        <pt x="536" y="964" on="0"/>
        <pt x="501" y="964" on="1"/>
        <pt x="465" y="964" on="0"/>
        <pt x="416" y="926" on="0"/>
        <pt x="384" y="863" on="0"/>
        <pt x="367" y="782" on="0"/>
        <pt x="359" y="696" on="0"/>
        <pt x="358" y="612" on="0"/>
        <pt x="358" y="577" on="1"/>
        <pt x="358" y="541" on="0"/>
        <pt x="359" y="456" on="0"/>
        <pt x="367" y="369" on="0"/>
        <pt x="384" y="288" on="0"/>
        <pt x="415" y="225" on="0"/>
        <pt x="464" y="187" on="0"/>
      </contour>
      <contour>
        <pt x="1207" y="702" on="1"/>
        <pt x="1207" y="759" on="0"/>
        <pt x="1192" y="857" on="0"/>
        <pt x="1160" y="928" on="0"/>
        <pt x="1109" y="969" on="0"/>
        <pt x="1072" y="969" on="1"/>
        <pt x="1046" y="969" on="0"/>
        <pt x="995" y="928" on="0"/>
        <pt x="956" y="857" on="0"/>
        <pt x="932" y="759" on="0"/>
        <pt x="932" y="702" on="1"/>
      </contour>
    </TTGlyph>
    <TTGlyph name="ogonek" xMin="83" yMin="-385" xMax="517" yMax="20">
      <contour>
        <pt x="294" y="-101" on="1"/>
        <pt x="289" y="-119" on="0"/>
        <pt x="289" y="-130" on="1"/>
        <pt x="289" y="-165" on="0"/>
        <pt x="335" y="-191" on="0"/>
        <pt x="368" y="-191" on="1"/>
        <pt x="388" y="-191" on="0"/>
        <pt x="432" y="-184" on="0"/>
        <pt x="472" y="-173" on="0"/>
        <pt x="506" y="-161" on="0"/>
        <pt x="517" y="-156" on="1"/>
        <pt x="517" y="-321" on="1"/>
        <pt x="488" y="-352" on="0"/>
        <pt x="379" y="-385" on="0"/>
        <pt x="319" y="-385" on="1"/>
        <pt x="275" y="-385" on="0"/>
        <pt x="190" y="-366" on="0"/>
        <pt x="124" y="-325" on="0"/>
        <pt x="83" y="-262" on="0"/>
        <pt x="83" y="-218" on="1"/>
        <pt x="83" y="-202" on="0"/>
        <pt x="92" y="-168" on="0"/>
        <pt x="100" y="-148" on="1"/>
        <pt x="162" y="20" on="1"/>
        <pt x="324" y="20" on="1"/>
      </contour>
    </TTGlyph>
    <TTGlyph name="ograve" xMin="70" yMin="-27" xMax="934" yMax="1789">
      <component glyphName="o" x="0" y="0" flags="0x204"/>
      <component glyphName="grave" x="228" y="0" flags="0x4"/>
    </TTGlyph>
    <TTGlyph name="ohungarumlaut" xMin="70" yMin="-27" xMax="1119" yMax="1740">
      <component glyphName="o" x="0" y="0" flags="0x4"/>
      <component glyphName="hungarumlaut" x="52" y="12" flags="0x4"/>
    </TTGlyph>
    <TTGlyph name="omacron" xMin="70" yMin="-27" xMax="934" yMax="1440">
      <component glyphName="o" x="0" y="0" flags="0x204"/>
      <component glyphName="macron" x="51" y="0" flags="0x4"/>
    </TTGlyph>
    <TTGlyph name="one" xMin="83" yMin="0" xMax="780" yMax="1536">
      <contour>
        <pt x="96" y="251" on="1"/>
        <pt x="293" y="251" on="1"/>
        <pt x="293" y="1132" on="1"/>
        <pt x="256" y="1128" on="0"/>
        <pt x="222" y="1124" on="1"/>
        <pt x="193" y="1121" on="0"/>
        <pt x="129" y="1116" on="0"/>
        <pt x="109" y="1116" on="1"/>
        <pt x="83" y="1116" on="1"/>
        <pt x="83" y="1331" on="1"/>
        <pt x="432" y="1536" on="1"/>
        <pt x="581" y="1536" on="1"/>
        <pt x="581" y="251" on="1"/>
        <pt x="780" y="251" on="1"/>
        <pt x="768" y="0" on="1"/>
        <pt x="96" y="0" on="1"/>
      </contour>
    </TTGlyph>
    <TTGlyph name="onehalf" xMin="65" yMin="0" xMax="1934" yMax="1536">
      <contour>
        <pt x="1058" y="1536" on="1"/>
        <pt x="1346" y="1536" on="1"/>
        <pt x="962" y="0" on="1"/>
        <pt x="674" y="0" on="1"/>
      </contour>
      <contour>
        <pt x="1267" y="745" on="1"/>
        <pt x="1279" y="794" on="0"/>
        <pt x="1338" y="884" on="0"/>
        <pt x="1427" y="952" on="0"/>
        <pt x="1544" y="992" on="0"/>
        <pt x="1614" y="992" on="1"/>
        <pt x="1679" y="992" on="0"/>
        <pt x="1795" y="960" on="0"/>
        <pt x="1883" y="892" on="0"/>
        <pt x="1934" y="784" on="0"/>
        <pt x="1934" y="708" on="1"/>
        <pt x="1934" y="639" on="0"/>
        <pt x="1868" y="498" on="0"/>
        <pt x="1766" y="365" on="0"/>
        <pt x="1642" y="243" on="0"/>
        <pt x="1583" y="192" on="1"/>
        <pt x="1887" y="192" on="1"/>
        <pt x="1887" y="163" on="0"/>
        <pt x="1882" y="118" on="0"/>
        <pt x="1876" y="74" on="0"/>
        <pt x="1871" y="29" on="0"/>
        <pt x="1871" y="0" on="1"/>
        <pt x="1267" y="0" on="1"/>
        <pt x="1267" y="173" on="1"/>
        <pt x="1304" y="215" on="0"/>
        <pt x="1389" y="303" on="0"/>
        <pt x="1474" y="392" on="0"/>
        <pt x="1553" y="482" on="0"/>
        <pt x="1613" y="573" on="0"/>
        <pt x="1649" y="664" on="0"/>
        <pt x="1649" y="710" on="1"/>
        <pt x="1649" y="748" on="0"/>
        <pt x="1618" y="802" on="0"/>
        <pt x="1588" y="802" on="1"/>
        <pt x="1562" y="802" on="0"/>
        <pt x="1530" y="759" on="0"/>
        <pt x="1521" y="733" on="1"/>
        <pt x="1510" y="703" on="0"/>
        <pt x="1506" y="665" on="1"/>
      </contour>
      <contour>
        <pt x="78" y="768" on="1"/>
        <pt x="257" y="768" on="1"/>
        <pt x="257" y="1206" on="1"/>
        <pt x="195" y="1198" on="1"/>
        <pt x="169" y="1195" on="0"/>
        <pt x="111" y="1190" on="0"/>
        <pt x="91" y="1190" on="1"/>
        <pt x="65" y="1190" on="1"/>
        <pt x="65" y="1331" on="1"/>
        <pt x="396" y="1536" on="1"/>
        <pt x="497" y="1536" on="1"/>
        <pt x="497" y="768" on="1"/>
        <pt x="684" y="768" on="1"/>
        <pt x="672" y="576" on="1"/>
        <pt x="78" y="576" on="1"/>
      </contour>
    </TTGlyph>
    <TTGlyph name="onequarter" xMin="71" yMin="-48" xMax="1945" yMax="1536">
      <contour>
        <pt x="1572" y="192" on="1"/>
        <pt x="1182" y="192" on="1"/>
        <pt x="1182" y="360" on="1"/>
        <pt x="1534" y="960" on="1"/>
        <pt x="1820" y="960" on="1"/>
        <pt x="1820" y="370" on="1"/>
        <pt x="1945" y="370" on="1"/>
        <pt x="1929" y="192" on="1"/>
        <pt x="1820" y="192" on="1"/>
        <pt x="1820" y="-32" on="1"/>
        <pt x="1572" y="-48" on="1"/>
      </contour>
      <contour>
        <pt x="1064" y="1536" on="1"/>
        <pt x="1352" y="1536" on="1"/>
        <pt x="968" y="0" on="1"/>
        <pt x="680" y="0" on="1"/>
      </contour>
      <contour>
        <pt x="84" y="768" on="1"/>
        <pt x="263" y="768" on="1"/>
        <pt x="263" y="1206" on="1"/>
        <pt x="201" y="1198" on="1"/>
        <pt x="175" y="1195" on="0"/>
        <pt x="117" y="1190" on="0"/>
        <pt x="97" y="1190" on="1"/>
        <pt x="71" y="1190" on="1"/>
        <pt x="71" y="1331" on="1"/>
        <pt x="402" y="1536" on="1"/>
        <pt x="503" y="1536" on="1"/>
        <pt x="503" y="768" on="1"/>
        <pt x="690" y="768" on="1"/>
        <pt x="678" y="576" on="1"/>
        <pt x="84" y="576" on="1"/>
      </contour>
      <contour>
        <pt x="1572" y="370" on="1"/>
        <pt x="1572" y="711" on="1"/>
        <pt x="1367" y="370" on="1"/>
      </contour>
    </TTGlyph>
    <TTGlyph name="onesuperior" xMin="91" yMin="576" xMax="710" yMax="1536">
      <contour>
        <pt x="104" y="768" on="1"/>
        <pt x="283" y="768" on="1"/>
        <pt x="283" y="1206" on="1"/>
        <pt x="221" y="1198" on="1"/>
        <pt x="195" y="1195" on="0"/>
        <pt x="137" y="1190" on="0"/>
        <pt x="117" y="1190" on="1"/>
        <pt x="91" y="1190" on="1"/>
        <pt x="91" y="1331" on="1"/>
        <pt x="422" y="1536" on="1"/>
        <pt x="523" y="1536" on="1"/>
        <pt x="523" y="768" on="1"/>
        <pt x="710" y="768" on="1"/>
        <pt x="698" y="576" on="1"/>
        <pt x="104" y="576" on="1"/>
      </contour>
    </TTGlyph>
    <TTGlyph name="ordfeminine" xMin="68" yMin="288" xMax="676" yMax="1167">
      <contour>
        <pt x="68" y="549" on="1"/>
        <pt x="68" y="639" on="0"/>
        <pt x="143" y="754" on="0"/>
        <pt x="256" y="821" on="0"/>
        <pt x="386" y="849" on="0"/>
        <pt x="442" y="853" on="1"/>
        <pt x="442" y="882" on="0"/>
        <pt x="440" y="939" on="0"/>
        <pt x="428" y="984" on="0"/>
        <pt x="403" y="1012" on="0"/>
        <pt x="380" y="1012" on="1"/>
        <pt x="361" y="1012" on="0"/>
        <pt x="334" y="995" on="0"/>
        <pt x="316" y="968" on="0"/>
        <pt x="306" y="933" on="0"/>
        <pt x="304" y="916" on="1"/>
        <pt x="98" y="952" on="1"/>
        <pt x="106" y="1015" on="0"/>
        <pt x="162" y="1098" on="0"/>
        <pt x="241" y="1147" on="0"/>
        <pt x="334" y="1167" on="0"/>
        <pt x="380" y="1167" on="1"/>
        <pt x="452" y="1167" on="0"/>
        <pt x="556" y="1127" on="0"/>
        <pt x="623" y="1056" on="0"/>
        <pt x="654" y="961" on="0"/>
        <pt x="654" y="907" on="1"/>
        <pt x="654" y="468" on="1"/>
        <pt x="654" y="442" on="0"/>
        <pt x="660" y="389" on="0"/>
        <pt x="665" y="367" on="1"/>
        <pt x="669" y="341" on="0"/>
        <pt x="676" y="317" on="1"/>
        <pt x="470" y="299" on="1"/>
        <pt x="447" y="403" on="1"/>
        <pt x="435" y="380" on="0"/>
        <pt x="394" y="339" on="0"/>
        <pt x="343" y="307" on="0"/>
        <pt x="287" y="288" on="0"/>
        <pt x="260" y="288" on="1"/>
        <pt x="217" y="288" on="0"/>
        <pt x="146" y="327" on="0"/>
        <pt x="96" y="397" on="0"/>
        <pt x="68" y="493" on="0"/>
      </contour>
      <contour>
        <pt x="276" y="552" on="1"/>
        <pt x="276" y="501" on="0"/>
        <pt x="316" y="440" on="0"/>
        <pt x="360" y="440" on="1"/>
        <pt x="374" y="440" on="0"/>
        <pt x="404" y="455" on="0"/>
        <pt x="416" y="465" on="1"/>
        <pt x="430" y="476" on="0"/>
        <pt x="442" y="490" on="1"/>
        <pt x="442" y="726" on="1"/>
        <pt x="406" y="726" on="0"/>
        <pt x="346" y="708" on="0"/>
        <pt x="301" y="667" on="0"/>
        <pt x="276" y="601" on="0"/>
      </contour>
    </TTGlyph>
    <TTGlyph name="ordmasculine" xMin="84" yMin="363" xMax="868" yMax="1167">
      <contour>
        <pt x="474" y="557" on="1"/>
        <pt x="510" y="557" on="0"/>
        <pt x="565" y="593" on="0"/>
        <pt x="601" y="653" on="0"/>
        <pt x="619" y="729" on="0"/>
        <pt x="619" y="769" on="1"/>
        <pt x="619" y="809" on="0"/>
        <pt x="601" y="886" on="0"/>
        <pt x="565" y="947" on="0"/>
        <pt x="511" y="984" on="0"/>
        <pt x="475" y="984" on="1"/>
        <pt x="439" y="984" on="0"/>
        <pt x="385" y="948" on="0"/>
        <pt x="349" y="888" on="0"/>
        <pt x="331" y="811" on="0"/>
        <pt x="331" y="771" on="1"/>
        <pt x="331" y="732" on="0"/>
        <pt x="349" y="656" on="0"/>
        <pt x="385" y="596" on="0"/>
        <pt x="438" y="558" on="0"/>
      </contour>
      <contour>
        <pt x="476" y="363" on="1"/>
        <pt x="378" y="363" on="0"/>
        <pt x="231" y="423" on="0"/>
        <pt x="133" y="530" on="0"/>
        <pt x="84" y="678" on="0"/>
        <pt x="84" y="767" on="1"/>
        <pt x="84" y="854" on="0"/>
        <pt x="133" y="1000" on="0"/>
        <pt x="231" y="1107" on="0"/>
        <pt x="378" y="1167" on="0"/>
        <pt x="476" y="1167" on="1"/>
        <pt x="572" y="1167" on="0"/>
        <pt x="718" y="1107" on="0"/>
        <pt x="817" y="1000" on="0"/>
        <pt x="868" y="854" on="0"/>
        <pt x="868" y="767" on="1"/>
        <pt x="868" y="678" on="0"/>
        <pt x="817" y="530" on="0"/>
        <pt x="718" y="423" on="0"/>
        <pt x="572" y="363" on="0"/>
      </contour>
    </TTGlyph>
    <TTGlyph name="oslash" xMin="55" yMin="-31" xMax="983" yMax="1167">
      <contour>
        <pt x="502" y="-27" on="1"/>
        <pt x="414" y="-27" on="0"/>
        <pt x="276" y="31" on="0"/>
        <pt x="223" y="85" on="1"/>
        <pt x="132" y="-31" on="1"/>
        <pt x="55" y="37" on="1"/>
        <pt x="160" y="170" on="1"/>
        <pt x="115" y="248" on="0"/>
        <pt x="70" y="454" on="0"/>
        <pt x="70" y="577" on="1"/>
        <pt x="70" y="706" on="0"/>
        <pt x="124" y="923" on="0"/>
        <pt x="232" y="1080" on="0"/>
        <pt x="394" y="1167" on="0"/>
        <pt x="502" y="1167" on="1"/>
        <pt x="606" y="1167" on="0"/>
        <pt x="764" y="1083" on="0"/>
        <pt x="819" y="1007" on="1"/>
        <pt x="906" y="1117" on="1"/>
        <pt x="983" y="1049" on="1"/>
        <pt x="873" y="910" on="1"/>
        <pt x="934" y="770" on="0"/>
        <pt x="934" y="577" on="1"/>
        <pt x="934" y="443" on="0"/>
        <pt x="878" y="221" on="0"/>
        <pt x="769" y="62" on="0"/>
        <pt x="607" y="-27" on="0"/>
      </contour>
      <contour>
        <pt x="358" y="577" on="1"/>
        <pt x="358" y="544" on="0"/>
        <pt x="359" y="466" on="0"/>
        <pt x="362" y="426" on="1"/>
        <pt x="635" y="773" on="1"/>
        <pt x="630" y="811" on="0"/>
        <pt x="610" y="880" on="0"/>
        <pt x="579" y="933" on="0"/>
        <pt x="533" y="964" on="0"/>
        <pt x="501" y="964" on="1"/>
        <pt x="465" y="964" on="0"/>
        <pt x="416" y="926" on="0"/>
        <pt x="384" y="863" on="0"/>
        <pt x="367" y="782" on="0"/>
        <pt x="359" y="696" on="0"/>
        <pt x="358" y="612" on="0"/>
      </contour>
      <contour>
        <pt x="500" y="187" on="1"/>
        <pt x="535" y="187" on="0"/>
        <pt x="585" y="225" on="0"/>
        <pt x="617" y="288" on="0"/>
        <pt x="635" y="369" on="0"/>
        <pt x="643" y="456" on="0"/>
        <pt x="645" y="541" on="0"/>
        <pt x="645" y="577" on="1"/>
        <pt x="645" y="620" on="1"/>
        <pt x="385" y="290" on="1"/>
        <pt x="400" y="245" on="0"/>
        <pt x="455" y="187" on="0"/>
      </contour>
    </TTGlyph>
    <TTGlyph name="oslashacute" xMin="55" yMin="-31" xMax="983" yMax="1793">
      <component glyphName="oslash" x="0" y="0" flags="0x204"/>
      <component glyphName="acute" x="213" y="0" flags="0x4"/>
    </TTGlyph>
    <TTGlyph name="otilde" xMin="70" yMin="-27" xMax="934" yMax="1537">
      <component glyphName="o" x="0" y="0" flags="0x204"/>
      <component glyphName="tilde" x="64" y="0" flags="0x4"/>
    </TTGlyph>
    <TTGlyph name="p" xMin="124" yMin="-358" xMax="960" yMax="1167">
      <contour>
        <pt x="124" y="1128" on="1"/>
        <pt x="412" y="1152" on="1"/>
        <pt x="412" y="1041" on="1"/>
        <pt x="436" y="1065" on="0"/>
        <pt x="491" y="1110" on="0"/>
        <pt x="552" y="1145" on="0"/>
        <pt x="620" y="1167" on="0"/>
        <pt x="656" y="1167" on="1"/>
        <pt x="735" y="1167" on="0"/>
        <pt x="842" y="1112" on="0"/>
        <pt x="910" y="1020" on="0"/>
        <pt x="945" y="899" on="0"/>
        <pt x="959" y="768" on="0"/>
        <pt x="960" y="635" on="0"/>
        <pt x="960" y="576" on="1"/>
        <pt x="960" y="522" on="0"/>
        <pt x="956" y="390" on="0"/>
        <pt x="937" y="256" on="0"/>
        <pt x="897" y="130" on="0"/>
        <pt x="824" y="32" on="0"/>
        <pt x="714" y="-27" on="0"/>
        <pt x="634" y="-27" on="1"/>
        <pt x="578" y="-27" on="0"/>
        <pt x="496" y="12" on="0"/>
        <pt x="468" y="36" on="1"/>
        <pt x="435" y="63" on="0"/>
        <pt x="412" y="99" on="1"/>
        <pt x="412" y="-302" on="1"/>
        <pt x="124" y="-358" on="1"/>
      </contour>
      <contour>
        <pt x="535" y="960" on="1"/>
        <pt x="507" y="960" on="0"/>
        <pt x="462" y="935" on="0"/>
        <pt x="446" y="920" on="1"/>
        <pt x="427" y="902" on="0"/>
        <pt x="412" y="880" on="1"/>
        <pt x="412" y="285" on="1"/>
        <pt x="424" y="259" on="0"/>
        <pt x="442" y="239" on="1"/>
        <pt x="457" y="222" on="0"/>
        <pt x="504" y="193" on="0"/>
        <pt x="537" y="193" on="1"/>
        <pt x="567" y="193" on="0"/>
        <pt x="616" y="223" on="0"/>
        <pt x="652" y="307" on="0"/>
        <pt x="672" y="457" on="0"/>
        <pt x="672" y="576" on="1"/>
        <pt x="672" y="684" on="0"/>
        <pt x="654" y="831" on="0"/>
        <pt x="620" y="921" on="0"/>
        <pt x="568" y="960" on="0"/>
      </contour>
    </TTGlyph>
    <TTGlyph name="paragraph" xMin="47" yMin="0" xMax="1095" yMax="1536">
      <contour>
        <pt x="1095" y="1288" on="1"/>
        <pt x="951" y="1288" on="1"/>
        <pt x="951" y="0" on="1"/>
        <pt x="719" y="0" on="1"/>
        <pt x="719" y="764" on="1"/>
        <pt x="681" y="764" on="0"/>
        <pt x="606" y="766" on="0"/>
        <pt x="567" y="770" on="1"/>
        <pt x="567" y="0" on="1"/>
        <pt x="335" y="0" on="1"/>
        <pt x="335" y="801" on="1"/>
        <pt x="273" y="818" on="0"/>
        <pt x="167" y="872" on="0"/>
        <pt x="90" y="955" on="0"/>
        <pt x="47" y="1069" on="0"/>
        <pt x="47" y="1145" on="1"/>
        <pt x="47" y="1247" on="0"/>
        <pt x="119" y="1384" on="0"/>
        <pt x="241" y="1471" on="0"/>
        <pt x="403" y="1516" on="0"/>
        <pt x="583" y="1535" on="0"/>
        <pt x="771" y="1536" on="0"/>
        <pt x="859" y="1536" on="1"/>
        <pt x="1095" y="1536" on="1"/>
      </contour>
    </TTGlyph>
    <TTGlyph name="parenleft" xMin="62" yMin="-76" xMax="627" yMax="1563">
      <contour>
        <pt x="627" y="-76" on="1"/>
        <pt x="531" y="-68" on="0"/>
        <pt x="374" y="5" on="0"/>
        <pt x="248" y="121" on="0"/>
        <pt x="155" y="275" on="0"/>
        <pt x="93" y="452" on="0"/>
        <pt x="62" y="646" on="0"/>
        <pt x="62" y="745" on="1"/>
        <pt x="62" y="846" on="0"/>
        <pt x="94" y="1044" on="0"/>
        <pt x="157" y="1224" on="0"/>
        <pt x="252" y="1378" on="0"/>
        <pt x="377" y="1492" on="0"/>
        <pt x="533" y="1560" on="0"/>
        <pt x="627" y="1563" on="1"/>
        <pt x="627" y="1380" on="1"/>
        <pt x="558" y="1367" on="0"/>
        <pt x="454" y="1249" on="0"/>
        <pt x="385" y="1074" on="0"/>
        <pt x="350" y="857" on="0"/>
        <pt x="350" y="745" on="1"/>
        <pt x="350" y="629" on="0"/>
        <pt x="385" y="407" on="0"/>
        <pt x="454" y="231" on="0"/>
        <pt x="558" y="119" on="0"/>
        <pt x="627" y="113" on="1"/>
      </contour>
    </TTGlyph>
    <TTGlyph name="parenright" xMin="56" yMin="-76" xMax="621" yMax="1563">
      <contour>
        <pt x="56" y="113" on="1"/>
        <pt x="125" y="119" on="0"/>
        <pt x="229" y="231" on="0"/>
        <pt x="298" y="407" on="0"/>
        <pt x="333" y="629" on="0"/>
        <pt x="333" y="745" on="1"/>
        <pt x="333" y="857" on="0"/>
        <pt x="298" y="1074" on="0"/>
        <pt x="229" y="1249" on="0"/>
        <pt x="125" y="1367" on="0"/>
        <pt x="56" y="1380" on="1"/>
        <pt x="56" y="1563" on="1"/>
        <pt x="149" y="1560" on="0"/>
        <pt x="306" y="1492" on="0"/>
        <pt x="431" y="1378" on="0"/>
        <pt x="526" y="1224" on="0"/>
        <pt x="589" y="1044" on="0"/>
        <pt x="621" y="846" on="0"/>
        <pt x="621" y="745" on="1"/>
        <pt x="621" y="646" on="0"/>
        <pt x="590" y="452" on="0"/>
        <pt x="528" y="275" on="0"/>
        <pt x="435" y="121" on="0"/>
        <pt x="309" y="5" on="0"/>
        <pt x="151" y="-68" on="0"/>
        <pt x="56" y="-76" on="1"/>
      </contour>
    </TTGlyph>
    <TTGlyph name="percent" xMin="47" yMin="-1" xMax="2049" yMax="1536">
      <contour>
        <pt x="437" y="926" on="1"/>
        <pt x="473" y="926" on="0"/>
        <pt x="528" y="962" on="0"/>
        <pt x="564" y="1022" on="0"/>
        <pt x="582" y="1098" on="0"/>
        <pt x="582" y="1138" on="1"/>
        <pt x="582" y="1178" on="0"/>
        <pt x="564" y="1255" on="0"/>
        <pt x="528" y="1316" on="0"/>
        <pt x="474" y="1353" on="0"/>
        <pt x="438" y="1353" on="1"/>
        <pt x="402" y="1353" on="0"/>
        <pt x="348" y="1317" on="0"/>
        <pt x="312" y="1257" on="0"/>
        <pt x="294" y="1180" on="0"/>
        <pt x="294" y="1140" on="1"/>
        <pt x="294" y="1101" on="0"/>
        <pt x="312" y="1025" on="0"/>
        <pt x="348" y="965" on="0"/>
        <pt x="401" y="927" on="0"/>
      </contour>
      <contour>
        <pt x="439" y="732" on="1"/>
        <pt x="341" y="732" on="0"/>
        <pt x="194" y="792" on="0"/>
        <pt x="96" y="899" on="0"/>
        <pt x="47" y="1047" on="0"/>
        <pt x="47" y="1136" on="1"/>
        <pt x="47" y="1223" on="0"/>
        <pt x="96" y="1369" on="0"/>
        <pt x="194" y="1476" on="0"/>
        <pt x="341" y="1536" on="0"/>
        <pt x="439" y="1536" on="1"/>
        <pt x="535" y="1536" on="0"/>
        <pt x="681" y="1476" on="0"/>
        <pt x="780" y="1369" on="0"/>
        <pt x="831" y="1223" on="0"/>
        <pt x="831" y="1136" on="1"/>
        <pt x="831" y="1047" on="0"/>
        <pt x="780" y="899" on="0"/>
        <pt x="681" y="792" on="0"/>
        <pt x="535" y="732" on="0"/>
      </contour>
      <contour>
        <pt x="1655" y="193" on="1"/>
        <pt x="1691" y="193" on="0"/>
        <pt x="1746" y="229" on="0"/>
        <pt x="1782" y="289" on="0"/>
        <pt x="1800" y="365" on="0"/>
        <pt x="1800" y="405" on="1"/>
        <pt x="1800" y="445" on="0"/>
        <pt x="1782" y="522" on="0"/>
        <pt x="1746" y="583" on="0"/>
        <pt x="1692" y="620" on="0"/>
        <pt x="1656" y="620" on="1"/>
        <pt x="1620" y="620" on="0"/>
        <pt x="1566" y="584" on="0"/>
        <pt x="1530" y="524" on="0"/>
        <pt x="1512" y="447" on="0"/>
        <pt x="1512" y="407" on="1"/>
        <pt x="1512" y="368" on="0"/>
        <pt x="1530" y="292" on="0"/>
        <pt x="1566" y="232" on="0"/>
        <pt x="1619" y="194" on="0"/>
      </contour>
      <contour>
        <pt x="1657" y="-1" on="1"/>
        <pt x="1559" y="-1" on="0"/>
        <pt x="1412" y="59" on="0"/>
        <pt x="1314" y="166" on="0"/>
        <pt x="1265" y="314" on="0"/>
        <pt x="1265" y="403" on="1"/>
        <pt x="1265" y="490" on="0"/>
        <pt x="1314" y="636" on="0"/>
        <pt x="1412" y="743" on="0"/>
        <pt x="1559" y="803" on="0"/>
        <pt x="1657" y="803" on="1"/>
        <pt x="1753" y="803" on="0"/>
        <pt x="1899" y="743" on="0"/>
        <pt x="1998" y="636" on="0"/>
        <pt x="2049" y="490" on="0"/>
        <pt x="2049" y="403" on="1"/>
        <pt x="2049" y="314" on="0"/>
        <pt x="1998" y="166" on="0"/>
        <pt x="1899" y="59" on="0"/>
        <pt x="1753" y="-1" on="0"/>
      </contour>
      <contour>
        <pt x="1096" y="1536" on="1"/>
        <pt x="1372" y="1536" on="1"/>
        <pt x="979" y="0" on="1"/>
        <pt x="703" y="0" on="1"/>
      </contour>
    </TTGlyph>
</ttFont>
